<?xml version="1.0" standalone="no"?>
<!DOCTYPE svg PUBLIC "-//W3C//DTD SVG 20010904//EN"
 "http://www.w3.org/TR/2001/REC-SVG-20010904/DTD/svg10.dtd">
<svg version="1.0" xmlns="http://www.w3.org/2000/svg"
 width="1073.000000pt" height="1073.000000pt" viewBox="0 0 1073.000000 1073.000000"
 preserveAspectRatio="xMidYMid meet">
<metadata>
Created by potrace 1.16, written by Peter Selinger 2001-2019
</metadata>
<g transform="translate(0.000000,1073.000000) scale(0.100000,-0.100000)"
fill="#000000" stroke="none">
<path d="M5140 10720 c-19 -4 -87 -11 -150 -14 -63 -4 -176 -15 -250 -26 -74
-10 -160 -22 -190 -25 -157 -19 -567 -114 -753 -176 -49 -16 -95 -29 -103 -29
-7 0 -28 -7 -46 -15 -18 -8 -96 -38 -173 -66 -380 -140 -806 -362 -1144 -597
-72 -50 -345 -253 -351 -261 -3 -4 -32 -28 -65 -55 -218 -173 -618 -589 -786
-816 -201 -271 -262 -363 -402 -601 -86 -147 -279 -537 -308 -624 -7 -22 -16
-45 -20 -50 -21 -30 -157 -431 -200 -590 -74 -276 -108 -460 -159 -860 -45
-352 -45 -734 0 -1090 44 -351 64 -468 122 -715 36 -155 122 -444 172 -574 13
-34 40 -106 61 -161 47 -123 82 -201 191 -420 129 -261 233 -436 414 -699 26
-37 133 -179 160 -212 14 -17 41 -50 60 -74 247 -306 554 -604 880 -856 151
-116 407 -291 500 -340 19 -11 49 -29 67 -42 33 -23 405 -213 528 -269 276
-126 710 -268 1000 -328 66 -14 138 -29 160 -34 89 -22 403 -66 590 -83 157
-15 667 -15 823 0 310 28 692 93 932 158 52 14 111 29 130 33 40 8 205 63 297
98 34 12 68 23 75 23 8 0 18 4 23 9 6 5 35 16 65 26 30 10 60 21 65 25 6 4 35
17 66 28 139 51 488 225 657 327 9 6 40 24 67 40 170 100 524 350 607 428 7 7
36 30 63 52 220 176 650 622 790 819 11 16 29 40 41 55 106 133 308 445 417
646 55 101 183 361 219 445 49 115 79 189 87 215 5 17 21 62 36 100 95 249
190 610 244 920 18 99 50 351 63 495 16 172 16 604 0 780 -27 297 -96 715
-157 945 -13 50 -31 117 -40 150 -26 96 -85 276 -125 380 -4 11 -16 43 -25 70
-10 28 -28 74 -41 103 -13 29 -24 56 -24 61 0 4 -16 40 -35 80 -19 39 -35 74
-35 77 0 20 -200 399 -270 513 -22 34 -40 65 -40 67 0 3 -136 209 -190 288
-40 58 -199 265 -220 286 -3 3 -34 41 -69 85 -77 96 -500 520 -589 590 -68 53
-236 187 -288 230 -18 14 -35 25 -38 25 -9 0 -90 62 -94 73 -2 4 -7 7 -12 7
-5 0 -44 24 -87 54 -43 29 -103 68 -133 85 -30 18 -77 46 -105 63 -167 103
-497 267 -695 347 -214 86 -458 168 -650 220 -275 73 -690 143 -1020 172 -164
15 -542 20 -590 9z m675 -260 c508 -41 1086 -186 1565 -392 205 -89 499 -239
630 -323 19 -12 69 -44 110 -70 482 -307 915 -697 1265 -1140 245 -311 506
-742 647 -1070 213 -497 322 -871 397 -1365 68 -444 68 -1069 0 -1500 -29
-186 -66 -369 -104 -515 -58 -224 -185 -591 -260 -753 -14 -29 -25 -55 -25
-58 0 -15 -137 -285 -216 -425 -73 -130 -258 -419 -337 -524 -71 -95 -218
-275 -299 -365 -371 -416 -844 -795 -1323 -1062 -437 -244 -903 -420 -1435
-542 -296 -67 -699 -108 -1070 -109 -716 0 -1387 139 -2045 425 -299 130 -750
389 -946 542 -15 12 -54 40 -86 64 -224 159 -599 510 -793 742 -30 36 -57 67
-60 70 -64 63 -365 489 -455 645 -206 354 -356 687 -477 1065 -121 376 -188
701 -225 1095 -20 210 -22 701 -4 905 37 427 144 925 271 1265 94 250 137 351
235 550 216 438 432 763 749 1125 210 239 547 550 769 710 27 19 60 44 75 56
24 19 237 161 287 191 231 141 244 148 435 243 171 85 344 162 405 180 22 7
45 16 50 20 10 7 275 98 405 138 129 41 409 102 620 136 186 30 299 42 580 60
92 6 527 -3 665 -14z"/>
<path d="M5010 10214 c-430 -45 -873 -124 -886 -159 -4 -11 9 -66 66 -280 11
-44 32 -123 46 -175 14 -52 32 -115 40 -139 22 -66 15 -75 -79 -101 -156 -44
-426 -146 -585 -221 -46 -21 -87 -39 -93 -39 -5 0 -77 137 -161 305 -84 168
-157 305 -164 305 -6 0 -51 -21 -100 -46 -75 -39 -128 -70 -289 -167 -88 -54
-240 -157 -340 -232 -188 -141 -335 -266 -335 -286 0 -8 22 -37 48 -65 26 -28
81 -89 122 -135 41 -46 121 -134 178 -196 56 -63 102 -115 102 -118 0 -2 -67
-70 -148 -152 -82 -81 -195 -204 -252 -273 -57 -69 -108 -126 -114 -128 -9 -2
-232 165 -376 281 -9 7 -42 32 -75 57 -33 24 -66 50 -73 57 -20 19 -40 16 -53
-9 -7 -13 -29 -43 -49 -68 -58 -71 -244 -358 -320 -495 -53 -95 -210 -413
-210 -425 0 -6 -9 -28 -20 -50 -28 -55 -25 -69 17 -86 21 -9 74 -31 118 -49
44 -18 127 -52 185 -76 297 -120 285 -114 284 -140 -1 -13 -22 -80 -47 -149
-63 -173 -90 -264 -126 -414 -16 -71 -34 -133 -40 -139 -6 -6 -42 -2 -103 12
-51 12 -127 27 -168 35 -41 8 -146 29 -233 47 -117 25 -160 30 -168 22 -38
-38 -109 -675 -109 -973 0 -71 3 -92 15 -96 8 -3 87 19 175 50 326 115 577
190 973 290 92 24 170 46 174 49 3 4 12 53 19 110 56 445 155 782 347 1177
192 394 512 811 832 1082 38 33 75 65 80 72 34 38 428 316 449 316 3 0 21 11
40 24 51 34 304 158 436 212 284 116 691 219 957 240 45 4 86 10 92 13 7 5 12
210 13 666 l3 660 -30 1 c-16 1 -46 0 -65 -2z"/>
<path d="M5716 9974 c-7 -260 -10 -1083 -5 -1089 2 -1 56 -10 119 -19 296 -43
559 -111 805 -209 55 -21 117 -46 138 -53 118 -44 416 -209 581 -322 325 -223
660 -545 855 -822 80 -114 137 -197 147 -215 6 -11 39 -66 72 -123 147 -247
288 -591 357 -874 13 -54 26 -102 29 -106 6 -10 62 -352 73 -451 l8 -65 185
-48 c102 -26 220 -56 263 -67 43 -11 99 -26 125 -35 26 -8 81 -24 122 -36 99
-28 185 -56 417 -135 106 -36 199 -65 208 -65 13 0 15 23 15 159 0 191 -12
352 -45 609 -26 195 -51 330 -65 345 -8 9 -114 -10 -330 -59 -63 -14 -149 -32
-190 -40 -41 -7 -89 -18 -106 -23 -17 -5 -36 -6 -42 -2 -7 4 -28 70 -47 146
-44 172 -73 264 -130 421 -25 67 -45 130 -45 141 0 14 12 25 38 36 88 37 346
143 456 188 65 26 122 53 126 60 4 6 -4 37 -17 68 -116 259 -229 475 -351 669
-40 63 -165 245 -177 258 -6 6 -28 36 -49 67 -22 32 -46 57 -54 57 -8 0 -39
-19 -68 -42 -29 -24 -106 -84 -171 -135 -65 -51 -158 -124 -208 -163 -49 -38
-93 -70 -97 -70 -5 0 -42 40 -153 169 -91 106 -319 336 -351 354 -25 14 -14
41 44 103 31 34 116 128 187 209 72 80 145 163 162 183 18 20 33 44 33 52 0
20 -203 189 -365 304 -70 50 -175 123 -191 133 -215 136 -478 283 -507 283
-12 0 -48 -64 -128 -227 -188 -389 -183 -378 -204 -377 -11 1 -92 33 -180 72
-142 62 -386 151 -455 166 -14 3 -33 11 -44 19 -18 13 -18 16 4 93 12 43 35
124 51 179 15 55 44 158 64 228 49 173 48 176 -40 199 -224 57 -548 113 -786
134 l-76 6 -7 -238z"/>
<path d="M5315 5601 c-164 -16 -245 -62 -245 -137 0 -29 9 -44 53 -87 51 -50
54 -55 65 -127 28 -186 23 -631 -9 -745 -6 -23 -27 -54 -48 -75 -63 -59 -77
-105 -43 -146 29 -37 59 -45 200 -56 146 -11 373 1 415 23 77 40 91 105 33
162 -57 58 -67 80 -68 151 0 73 19 116 51 116 21 0 144 -126 219 -224 25 -33
50 -65 54 -71 5 -5 29 -37 54 -70 25 -33 53 -64 62 -69 23 -14 427 -47 474
-40 21 3 40 10 44 15 9 15 44 10 51 -7 16 -43 284 -94 417 -78 51 5 66 12 94
40 29 29 33 39 28 66 -8 41 -21 55 -78 84 -54 28 -64 58 -28 94 24 24 75 26
210 5 187 -29 223 -40 260 -79 30 -33 22 -50 -41 -87 -38 -22 -44 -30 -47 -62
-5 -56 32 -98 110 -125 142 -49 474 -101 561 -88 32 5 55 16 77 39 30 30 33
31 44 13 29 -49 63 -78 115 -102 128 -59 284 -94 417 -94 92 0 97 1 125 29 43
43 35 97 -22 157 -18 18 -36 53 -44 85 -18 68 -19 215 -2 249 12 22 19 25 68
24 30 -1 90 -11 133 -24 107 -32 110 -38 104 -193 -6 -139 -16 -171 -64 -210
-28 -24 -34 -35 -34 -67 0 -22 5 -51 12 -65 29 -64 224 -151 427 -189 147 -28
209 -19 232 35 16 39 2 71 -61 137 -42 45 -49 58 -56 108 -10 87 1 744 14 776
8 18 25 34 50 44 96 38 72 143 -48 219 -89 55 -292 114 -420 122 -87 5 -97 4
-122 -17 -40 -31 -40 -96 1 -142 56 -65 65 -93 65 -217 1 -144 2 -143 -126
-112 -177 44 -188 54 -188 180 0 103 13 141 60 183 53 48 60 80 29 137 -20 39
-35 52 -98 83 -142 71 -402 110 -496 74 -51 -20 -75 -48 -75 -89 0 -22 14 -42
59 -85 50 -49 60 -64 66 -104 10 -66 0 -727 -12 -763 -5 -16 -25 -40 -44 -52
-19 -12 -41 -29 -50 -38 -20 -19 -38 -19 -46 0 -3 9 -30 31 -59 50 -62 40 -70
54 -174 305 -40 96 -80 193 -90 215 -10 22 -32 74 -50 115 -37 84 -173 365
-192 395 -137 213 -196 264 -319 273 -72 5 -117 -9 -158 -52 -31 -32 -33 -39
-41 -137 -13 -163 -30 -212 -166 -498 -181 -376 -181 -377 -265 -416 -66 -30
-75 -31 -91 -5 -7 12 -37 37 -66 57 -29 21 -76 67 -103 104 -27 37 -90 118
-140 181 -49 62 -95 120 -102 128 -7 9 -46 58 -88 110 -91 114 -99 128 -99
174 0 34 17 62 108 174 51 63 76 72 177 69 l87 -2 30 35 c23 28 28 41 23 65
-15 80 -77 110 -258 126 -190 17 -306 -3 -342 -58 -14 -21 -16 -40 -10 -108
l7 -82 -61 -81 c-59 -77 -113 -132 -131 -132 -19 0 -40 47 -40 90 0 74 25 143
62 171 55 42 68 58 68 89 0 90 -67 125 -255 133 -66 3 -156 2 -200 -2z m2091
-789 c53 -109 65 -165 40 -175 -27 -11 -186 14 -209 33 -24 20 -23 26 33 162
31 73 47 90 77 80 7 -2 33 -47 59 -100z"/>
<path d="M4370 5572 c-19 -1 -98 -13 -175 -27 -77 -13 -196 -29 -265 -35 -248
-22 -318 -44 -355 -112 -18 -35 -19 -40 -5 -65 9 -16 32 -37 53 -48 71 -38 72
-45 71 -450 -1 -242 -5 -374 -13 -403 -8 -29 -31 -64 -68 -104 -48 -53 -54
-64 -49 -91 8 -39 22 -55 64 -73 104 -43 463 -13 573 48 70 39 78 103 20 157
-58 55 -62 69 -64 218 -2 130 -1 135 22 154 30 24 58 24 98 -1 43 -26 54 -51
93 -205 35 -139 74 -236 109 -272 48 -50 108 -75 194 -80 192 -12 329 54 344
164 6 44 -25 93 -59 93 -28 0 -88 63 -88 92 0 30 -44 176 -64 215 -25 49 -66
93 -107 113 -21 11 -44 30 -50 42 -13 23 -12 24 75 91 20 16 51 56 68 90 30
57 32 70 32 157 0 83 -3 101 -26 146 -67 127 -236 201 -428 186z m-82 -248
c39 -27 52 -67 52 -156 0 -95 -17 -134 -72 -168 -42 -25 -94 -26 -107 -2 -6
12 -7 72 -2 160 6 117 10 144 25 161 23 25 72 28 104 5z"/>
<path d="M3210 5439 c-30 -11 -140 -35 -245 -54 -473 -84 -606 -111 -647 -131
-32 -17 -58 -62 -58 -101 0 -38 9 -50 52 -67 26 -11 39 -25 47 -49 40 -120 40
-721 1 -868 -7 -26 -27 -56 -56 -84 -36 -35 -44 -50 -44 -78 0 -43 22 -67 61
-67 17 0 121 18 232 40 182 37 408 76 587 102 36 5 97 6 136 3 86 -7 110 8
153 94 54 107 76 189 76 282 0 101 -15 129 -70 129 -41 0 -65 -27 -104 -113
-37 -83 -80 -137 -130 -165 -54 -31 -184 -62 -258 -62 -77 0 -79 3 -94 146
-15 139 -3 206 41 224 25 10 34 10 55 -4 27 -17 32 -28 56 -106 12 -39 18 -45
45 -48 35 -3 77 25 98 66 8 15 22 63 31 106 21 94 16 270 -9 352 -26 84 -81
106 -136 57 -26 -24 -33 -40 -45 -108 -15 -87 -35 -115 -84 -115 -53 0 -56 8
-56 153 0 188 14 205 190 227 126 16 175 -4 232 -93 13 -21 35 -42 49 -47 36
-14 82 12 101 58 22 53 13 181 -17 250 -40 93 -84 109 -190 71z"/>
<path d="M1755 5130 c-44 -7 -117 -25 -380 -96 -87 -23 -312 -90 -365 -109
-85 -30 -139 -110 -106 -160 8 -13 29 -26 46 -30 16 -4 39 -18 50 -32 19 -24
20 -40 20 -272 0 -227 -11 -465 -26 -569 -4 -29 -21 -63 -51 -103 -54 -71 -61
-120 -24 -150 30 -24 53 -24 137 2 129 40 317 93 554 155 232 60 320 103 415
198 119 120 170 252 154 399 -10 94 -78 168 -184 204 -48 16 -53 37 -19 80
112 143 136 299 62 405 -47 68 -160 99 -283 78z m-176 -260 c44 -23 65 -155
39 -243 -24 -80 -112 -136 -138 -88 -5 11 -10 79 -10 151 0 157 11 189 68 190
13 0 31 -4 41 -10z m55 -559 c34 -30 46 -68 46 -151 0 -108 -28 -168 -94 -200
-89 -43 -108 -14 -114 170 -4 135 -4 136 22 167 38 45 97 51 140 14z"/>
<path d="M2380 3418 c-14 -5 -88 -24 -165 -43 -198 -48 -295 -75 -495 -139
-96 -31 -204 -65 -240 -76 -109 -32 -359 -125 -373 -139 -9 -9 61 -142 127
-242 17 -25 47 -71 66 -103 62 -101 236 -332 364 -483 114 -135 382 -405 516
-519 190 -163 452 -355 615 -451 44 -26 82 -50 85 -53 20 -26 532 -282 620
-311 14 -4 57 -21 97 -38 98 -41 416 -144 538 -175 300 -76 584 -122 875 -141
79 -6 652 -5 719 0 184 15 445 49 546 71 39 8 120 26 180 39 300 64 686 197
1007 348 96 46 336 173 413 220 11 7 38 23 60 37 22 14 48 30 57 35 9 6 45 30
80 54 34 25 77 54 93 65 37 26 188 138 195 146 3 3 23 18 44 35 87 64 353 303
446 400 153 159 335 369 392 455 17 25 41 56 53 70 24 26 175 246 175 255 0 2
24 42 53 87 67 105 107 174 107 185 0 9 -33 22 -250 100 -243 86 -626 200
-870 258 -52 12 -113 27 -135 34 -63 17 -72 14 -106 -36 -18 -27 -35 -50 -39
-53 -3 -3 -13 -16 -21 -30 -48 -73 -240 -300 -345 -404 -123 -123 -407 -361
-469 -393 -16 -9 -42 -26 -58 -39 -73 -61 -403 -239 -617 -333 -75 -33 -232
-89 -310 -112 -36 -11 -94 -28 -130 -39 -97 -29 -338 -77 -480 -96 -203 -26
-584 -31 -795 -9 -71 7 -191 25 -265 40 -74 15 -153 30 -175 34 -76 14 -379
108 -442 136 -17 8 -35 15 -40 15 -31 0 -370 164 -493 238 -291 175 -488 329
-721 561 -186 187 -294 317 -400 484 -36 55 -55 67 -89 55z m-240 -325 c36
-38 78 -90 94 -118 31 -55 31 -51 -8 -208 -29 -119 -28 -121 85 -83 104 34
136 33 187 -4 47 -34 121 -124 123 -148 4 -48 -9 -62 -57 -62 -37 0 -75 -38
-151 -151 -73 -109 -86 -136 -79 -174 8 -43 24 -54 83 -61 40 -5 59 -1 118 26
159 72 200 97 257 154 51 51 61 57 85 51 39 -9 90 -50 109 -87 22 -42 33 -179
34 -406 0 -191 0 -193 26 -232 31 -47 68 -53 102 -17 21 22 93 167 130 263 19
47 19 53 4 83 -11 24 -13 38 -5 50 17 28 55 24 123 -14 36 -20 103 -54 150
-76 123 -57 141 -68 183 -108 50 -47 67 -80 67 -131 0 -60 -43 -130 -80 -130
-9 0 -24 -6 -34 -13 -17 -12 -16 -15 6 -52 18 -31 23 -55 24 -111 0 -57 5 -77
22 -99 57 -72 -14 -119 -121 -81 -62 22 -106 58 -129 104 -18 39 -20 54 -14
133 5 61 3 96 -5 111 -28 54 -58 41 -82 -35 -16 -50 -16 -56 -1 -86 15 -30 15
-34 -2 -52 -22 -24 -31 -24 -91 2 -87 37 -168 91 -207 141 -31 37 -46 48 -68
48 -40 0 -111 38 -208 111 -92 69 -125 112 -109 141 6 11 21 18 39 18 53 0 37
33 -52 110 -78 66 -110 82 -122 61 -3 -4 1 -17 9 -27 20 -27 18 -61 -4 -73
-39 -21 -192 93 -230 172 -16 33 -29 46 -50 50 -35 7 -178 140 -221 205 -19
28 -30 57 -28 72 3 22 8 25 42 25 33 1 45 7 77 44 62 70 55 74 -66 36 -165
-51 -179 -34 -125 158 17 59 30 114 30 122 0 28 -27 15 -74 -35 -43 -46 -47
-54 -44 -93 3 -39 1 -42 -23 -45 -48 -6 -179 151 -179 213 0 35 17 49 41 34 8
-5 21 -9 29 -9 17 0 82 52 170 134 86 80 100 102 100 157 0 46 7 56 40 58 8 1
44 -29 80 -66z m6682 -73 c84 -24 142 -122 142 -240 -1 -135 -62 -271 -169
-375 -76 -74 -145 -112 -216 -121 -71 -8 -126 8 -177 52 -63 54 -84 102 -89
209 -4 79 -2 98 20 156 34 90 69 143 142 215 111 112 213 142 347 104z m-629
-475 c11 -10 14 -27 10 -54 -5 -33 1 -51 31 -105 49 -88 152 -215 179 -221 12
-2 33 -6 47 -7 20 -2 26 -9 28 -36 3 -29 -5 -41 -78 -113 -85 -83 -161 -139
-191 -139 -29 0 -40 23 -27 57 10 26 8 36 -12 69 -56 93 -71 90 -58 -12 5 -35
8 -92 6 -126 -5 -100 -28 -101 -179 -3 -37 25 -73 45 -78 45 -19 0 -12 -30 21
-90 27 -48 39 -60 64 -65 83 -15 55 -74 -76 -159 -30 -20 -65 -36 -77 -36 -29
0 -49 35 -32 56 21 26 3 88 -67 229 -70 139 -75 145 -129 162 -51 14 -46 51
15 112 55 55 143 111 174 111 10 0 53 -20 94 -45 86 -52 117 -63 124 -43 3 7
2 40 -3 73 -13 105 -10 178 8 205 29 45 77 92 122 121 51 33 64 35 84 14z
m-743 -647 c76 -23 148 -94 175 -173 44 -130 -34 -307 -176 -401 -76 -51 -121
-67 -202 -72 -129 -8 -220 43 -268 151 -28 63 -31 176 -5 246 41 111 163 219
285 252 67 18 123 17 191 -3z m-617 -243 c66 -45 88 -125 45 -165 -29 -27 -67
-25 -112 5 -43 29 -52 31 -64 9 -10 -17 -8 -24 28 -159 43 -162 47 -171 90
-188 33 -13 40 -20 40 -42 0 -15 -10 -35 -22 -46 -55 -46 -207 -99 -296 -102
-35 -2 -48 3 -63 22 l-19 23 35 39 c40 44 41 51 20 157 -8 42 -20 104 -27 137
-19 102 -43 111 -84 34 -16 -29 -41 -57 -57 -66 -27 -14 -32 -13 -56 5 -37 27
-40 86 -8 156 26 56 39 65 132 84 95 19 200 53 265 86 81 41 106 43 153 11z
m-2592 -61 c30 -9 72 -27 95 -40 22 -13 52 -24 67 -24 14 0 33 -3 42 -6 43
-17 63 -138 30 -188 -13 -19 -26 -26 -49 -26 -35 0 -60 22 -110 97 -27 41 -77
73 -113 73 -30 0 -81 -37 -99 -72 -26 -49 -25 -180 1 -233 19 -38 74 -85 101
-85 21 0 44 30 44 56 0 19 -8 28 -30 36 -38 13 -52 55 -25 75 23 16 66 17 137
2 134 -28 201 -64 196 -108 -2 -19 -11 -29 -35 -36 -19 -7 -45 -28 -63 -54
-35 -48 -115 -91 -186 -99 -54 -6 -172 29 -236 69 -60 39 -125 109 -148 162
-43 97 -34 224 21 293 86 109 220 149 360 108z m1993 -110 c21 -21 20 -26 -9
-60 -14 -16 -25 -33 -25 -39 0 -5 9 -64 20 -130 23 -142 25 -214 6 -258 -34
-82 -147 -149 -284 -168 -69 -10 -91 -10 -149 5 -86 21 -137 55 -164 109 -19
36 -23 65 -28 194 l-6 152 -34 35 c-33 34 -33 36 -18 60 22 33 70 46 193 53
96 5 102 5 122 -18 26 -27 28 -42 6 -60 -37 -31 -41 -58 -29 -189 13 -136 20
-158 61 -185 56 -37 160 -10 191 48 17 34 13 110 -13 247 -11 62 -19 79 -44
100 -33 27 -39 60 -14 80 42 36 191 52 218 24z m-1167 -73 c78 -39 130 -93
166 -171 71 -154 19 -312 -126 -383 -186 -91 -415 -23 -502 149 -26 51 -29 68
-28 136 2 123 56 214 157 265 69 36 107 43 198 38 60 -3 90 -11 135 -34z"/>
<path d="M8523 2780 c-27 -11 -43 -40 -43 -77 1 -58 54 -110 152 -149 81 -32
93 -31 135 11 30 30 35 40 29 67 -17 87 -193 182 -273 148z"/>
<path d="M7180 1718 c-40 -43 -17 -125 60 -211 23 -26 59 -56 79 -67 34 -17
40 -17 69 -3 23 11 33 24 38 48 8 45 -1 69 -51 141 -73 103 -150 140 -195 92z"/>
<path d="M4855 1295 c-22 -21 -25 -33 -25 -97 0 -105 37 -215 79 -238 38 -20
70 -12 92 23 17 27 19 42 15 97 -10 113 -43 198 -86 223 -37 22 -46 21 -75 -8z"/>
</g>
</svg>
