<?xml version="1.0" standalone="no"?>
<!DOCTYPE svg PUBLIC "-//W3C//DTD SVG 20010904//EN"
 "http://www.w3.org/TR/2001/REC-SVG-20010904/DTD/svg10.dtd">
<svg version="1.0" xmlns="http://www.w3.org/2000/svg"
 width="1654.000000pt" height="2339.000000pt" viewBox="0 0 1654.000000 2339.000000"
 preserveAspectRatio="xMidYMid meet">
<metadata>
Created by potrace 1.16, written by Peter Selinger 2001-2019
</metadata>
<g transform="translate(0.000000,2339.000000) scale(0.100000,-0.100000)"
fill="#000000" stroke="none">
<path d="M10 11695 c0 -7790 3 -11695 10 -11695 7 0 10 3905 10 11695 0 7790
-3 11695 -10 11695 -7 0 -10 -3905 -10 -11695z"/>
<path d="M16515 11695 c0 -6435 1 -9066 2 -5847 2 3220 2 8485 0 11700 -1
3216 -2 582 -2 -5853z"/>
<path d="M7349 16448 c-40 -90 -92 -193 -116 -230 -133 -210 -376 -355 -628
-374 -118 -9 -200 8 -480 102 -398 132 -514 156 -780 156 -335 1 -670 -78
-1035 -243 -160 -71 -530 -258 -530 -266 0 -4 54 -116 120 -250 164 -331 191
-403 234 -618 40 -198 49 -323 43 -578 -6 -244 -22 -382 -72 -612 -35 -164
-54 -230 -151 -527 -99 -304 -152 -503 -194 -728 -95 -520 -102 -984 -24
-1475 71 -440 213 -846 426 -1217 l50 -88 145 0 c110 0 142 3 137 12 -4 7 -36
57 -71 113 -178 280 -325 642 -408 1004 -159 699 -108 1470 150 2246 149 447
204 677 241 1005 25 222 16 614 -19 810 -44 248 -119 473 -219 660 -22 41 -46
90 -53 108 l-14 32 107 54 c352 176 642 272 925 307 141 17 414 6 542 -21 55
-12 213 -59 350 -105 317 -107 348 -114 476 -122 128 -7 242 8 361 47 305 102
509 284 655 588 l64 132 688 0 687 0 49 -107 c184 -401 523 -640 935 -660 157
-7 240 10 545 112 377 127 466 145 708 145 275 -1 533 -55 817 -171 148 -61
419 -193 419 -204 1 -6 -33 -80 -75 -165 -118 -238 -188 -475 -226 -760 -16
-125 -17 -545 0 -680 38 -310 100 -575 221 -943 107 -327 122 -379 166 -587
69 -324 90 -532 89 -890 0 -372 -28 -616 -105 -925 -85 -336 -267 -750 -435
-987 l-34 -48 145 0 145 0 27 43 c48 75 180 339 226 452 130 318 218 674 259
1040 17 158 17 712 0 860 -49 417 -108 681 -247 1101 -173 522 -229 825 -229
1229 0 253 16 391 68 596 43 173 64 223 212 523 68 136 124 250 124 252 0 7
-498 248 -610 296 -501 215 -990 267 -1433 152 -33 -8 -173 -53 -312 -100
-294 -98 -372 -113 -504 -97 -227 29 -428 144 -568 325 -40 53 -129 227 -194
380 l-24 58 -846 0 -846 0 -74 -162z"/>
<path d="M7679 16047 c-105 -212 -300 -417 -512 -538 -190 -108 -371 -158
-597 -166 -201 -6 -278 9 -630 127 -312 104 -381 120 -558 127 -273 12 -548
-47 -862 -184 -58 -25 -109 -50 -114 -54 -5 -4 10 -49 32 -101 82 -193 145
-426 179 -668 27 -191 24 -611 -5 -825 -43 -319 -93 -526 -222 -920 -130 -398
-191 -666 -232 -1020 -17 -146 -17 -628 0 -770 67 -573 234 -1038 520 -1447
l75 -108 758 0 759 0 -90 118 c-412 545 -678 1223 -795 2024 -14 95 -32 209
-40 253 -17 92 -19 201 -5 210 22 14 149 -223 369 -689 196 -413 223 -465 331
-629 262 -398 614 -744 1045 -1029 l150 -100 3 30 c5 49 -35 198 -79 291 -78
166 -188 282 -372 391 -217 127 -354 323 -408 585 -19 89 -25 165 -13 165 3 0
54 -29 113 -64 58 -35 194 -114 301 -176 671 -388 991 -644 1171 -936 62 -100
134 -256 166 -356 l28 -88 97 0 c86 0 96 2 92 18 -2 9 -22 95 -43 190 -194
843 -555 1523 -1015 1909 -230 193 -496 327 -751 376 -44 9 -91 18 -105 21
-61 12 337 -5 445 -19 576 -74 1009 -265 1290 -567 69 -74 170 -218 194 -276
l14 -33 49 83 c138 233 313 395 578 536 248 133 644 241 973 268 l87 7 0 31
c0 28 -19 177 -36 294 -4 24 -12 42 -19 42 -7 0 -71 -18 -141 -39 -174 -54
-490 -131 -534 -131 -7 0 -60 156 -60 178 0 5 33 12 73 16 184 18 621 96 641
116 15 15 -56 320 -130 558 -53 172 -182 499 -220 560 -1 2 -55 -11 -120 -27
-152 -38 -353 -75 -519 -95 -106 -13 -423 -35 -511 -36 -20 0 -21 -8 -33 -217
-17 -301 -7 -273 -101 -273 l-77 0 -6 58 c-4 31 -12 143 -18 248 l-12 191
-101 7 c-274 18 -621 67 -869 122 -87 19 -161 33 -166 30 -12 -8 -96 -200
-153 -350 -84 -224 -189 -599 -172 -616 23 -22 469 -146 652 -181 34 -6 62
-15 62 -19 0 -4 -13 -37 -30 -73 -16 -36 -37 -94 -46 -129 -10 -35 -20 -66
-24 -71 -8 -9 -348 52 -539 98 -79 20 -145 34 -147 33 -1 -2 -11 -67 -20 -146
-15 -113 -22 -142 -34 -142 -13 0 -15 21 -12 155 2 85 1 155 -2 155 -3 0 -72
21 -153 46 -409 127 -740 296 -925 473 l-70 68 -25 -56 c-136 -306 -224 -626
-262 -956 l-8 -70 -2 100 c-4 347 113 845 286 1217 183 395 388 684 704 994
505 494 1143 809 1854 915 199 30 365 34 535 15 1277 -147 2356 -989 2786
-2173 113 -313 187 -718 182 -1005 -1 -62 -3 -95 -5 -73 -32 354 -134 737
-279 1046 -28 59 -52 98 -59 95 -7 -2 -50 -31 -96 -64 -218 -156 -569 -344
-864 -462 l-150 -60 0 -55 c1 -30 2 -118 3 -195 l2 -140 133 -1 c117 -1 125
-2 72 -10 -33 -5 -91 -17 -130 -26 l-70 -18 -6 -90 c-4 -63 -6 -75 -8 -40 -1
28 -5 67 -9 87 l-7 37 -96 -38 c-652 -257 -1155 -929 -1444 -1931 -46 -160
-115 -447 -115 -479 0 -7 33 -11 93 -11 l92 0 29 93 c41 127 153 345 230 448
137 182 420 421 723 610 76 48 237 144 358 214 121 70 268 156 326 191 59 35
110 64 113 64 12 0 6 -76 -13 -166 -53 -259 -192 -457 -408 -584 -184 -109
-294 -225 -372 -391 -41 -88 -81 -228 -81 -286 l0 -32 53 30 c425 251 864 668
1138 1082 107 161 148 238 337 637 234 495 349 709 374 694 12 -8 4 -170 -12
-239 -5 -22 -21 -121 -35 -220 -117 -807 -381 -1480 -795 -2027 l-90 -118 640
0 639 0 58 80 c227 314 396 708 482 1122 57 274 66 381 66 743 -1 359 -9 449
-66 750 -40 216 -75 342 -179 660 -132 402 -196 683 -231 1015 -16 149 -16
504 0 650 26 237 105 558 178 719 14 31 31 70 39 87 l13 31 -107 48 c-276 121
-515 182 -757 192 -244 9 -326 -7 -730 -142 -311 -104 -394 -120 -593 -112
-163 6 -276 29 -425 89 -280 113 -521 330 -667 600 l-42 78 -534 0 -534 0 -31
-63z m796 -3461 c156 -41 280 -156 336 -312 32 -87 32 -246 -1 -329 -78 -202
-251 -325 -454 -325 -135 1 -232 39 -330 131 -199 186 -210 499 -24 695 99
105 206 153 343 153 44 1 103 -5 130 -13z"/>
<path d="M8110 14684 c-8 -3 -44 -14 -80 -26 -242 -77 -502 -300 -713 -612
-26 -37 -47 -72 -47 -76 0 -11 209 -84 374 -131 122 -34 400 -95 524 -114 36
-6 42 -4 42 12 0 10 -14 221 -30 468 -16 248 -30 458 -30 468 0 17 -11 20 -40
11z"/>
<path d="M8526 14578 c-3 -62 -18 -286 -32 -497 -14 -211 -23 -385 -20 -388
13 -14 285 -24 486 -19 254 6 587 39 608 61 7 6 -35 84 -112 208 -239 386
-518 636 -813 727 -113 35 -109 38 -117 -92z"/>
<path d="M7140 14495 c-138 -56 -376 -172 -419 -204 l-23 -18 63 -50 c64 -50
221 -143 243 -143 6 0 27 30 45 68 53 108 119 221 182 310 33 45 59 85 59 87
0 9 -16 4 -150 -50z"/>
<path d="M9438 14513 c103 -131 239 -383 323 -597 40 -103 57 -135 69 -132
248 68 583 191 577 211 -6 18 -217 174 -342 252 -139 87 -397 215 -537 267
-53 20 -102 36 -108 36 -7 0 2 -17 18 -37z"/>
<path d="M6263 13967 c-174 -147 -394 -389 -521 -576 l-57 -83 50 -46 c137
-124 321 -251 520 -360 153 -83 394 -188 404 -176 4 5 15 70 25 144 25 194 89
503 141 685 25 87 45 160 45 164 0 3 -28 17 -62 30 -154 59 -307 150 -399 237
l-57 55 -89 -74z"/>
<path d="M10265 13895 c-88 -44 -218 -104 -290 -133 -101 -40 -130 -56 -129
-69 1 -10 18 -75 37 -145 73 -261 130 -561 162 -857 9 -80 17 -147 19 -149 2
-2 37 6 78 18 238 69 465 154 668 251 139 67 370 198 370 211 0 15 -50 108
-108 203 -139 224 -285 409 -473 596 -75 76 -145 141 -155 146 -15 8 -54 -8
-179 -72z"/>
<path d="M3761 9424 c-129 -34 -235 -124 -298 -250 l-38 -78 -3 -258 c-3 -275
0 -302 49 -400 30 -59 123 -152 187 -186 125 -67 -265 -62 4617 -61 4155 0
4434 1 4496 17 123 32 239 124 294 232 49 96 55 139 55 374 0 301 -19 366
-139 487 -68 68 -141 110 -222 128 -29 7 -1527 10 -4494 10 -3856 0 -4457 -2
-4504 -15z m3360 -333 c59 -18 82 -52 87 -126 l4 -65 -91 0 c-89 0 -91 1 -91
24 0 17 -22 42 -77 90 l-78 67 -3 -83 c-5 -139 -5 -139 147 -168 182 -35 203
-53 204 -182 1 -97 -16 -138 -66 -165 -27 -15 -59 -18 -207 -18 -148 0 -180 3
-207 18 -43 23 -63 64 -63 132 l0 55 90 0 c88 0 90 0 90 -24 0 -18 23 -45 83
-100 l82 -75 3 97 c5 156 7 152 -155 183 -59 11 -120 27 -136 35 -37 20 -57
69 -57 141 0 120 28 158 124 174 64 10 269 3 317 -10z m877 9 c96 -11 145 -31
161 -66 7 -16 11 -105 11 -258 0 -221 -1 -235 -21 -260 -35 -45 -108 -59 -283
-54 -166 4 -219 18 -243 68 -18 35 -18 465 0 499 33 66 180 94 375 71z m1339
0 c124 -16 163 -52 163 -150 l0 -50 -95 0 c-93 0 -95 0 -95 24 0 16 -23 44
-79 95 -44 39 -82 71 -85 71 -3 0 -6 -117 -6 -260 0 -247 1 -261 20 -280 14
-14 33 -20 66 -20 76 0 84 9 84 95 l0 75 -35 0 c-35 0 -35 0 -35 45 l0 45 130
0 130 0 0 -120 c0 -152 -9 -173 -82 -195 -62 -18 -290 -21 -370 -4 -33 7 -62
22 -80 39 l-28 28 0 239 c0 262 1 268 62 299 54 28 216 40 335 24z m-5215 -22
c25 -11 44 -30 60 -60 22 -41 23 -53 23 -238 0 -182 -1 -198 -22 -236 -36 -68
-70 -77 -315 -82 l-208 -4 0 322 0 322 213 -4 c169 -3 219 -7 249 -20z m378
-76 c0 -74 -4 -103 -16 -121 -33 -47 -144 -71 -144 -31 0 13 9 22 25 26 32 8
55 40 55 76 0 26 -2 28 -45 28 l-45 0 0 60 0 60 85 0 85 0 0 -98z m582 78 c21
-7 48 -24 60 -37 20 -22 23 -35 23 -113 0 -99 -14 -131 -73 -159 -17 -9 -32
-19 -32 -22 0 -3 17 -11 39 -17 57 -18 65 -33 72 -141 3 -53 9 -104 13 -113 7
-17 0 -18 -88 -18 l-97 0 -15 35 c-7 19 -14 58 -14 87 l0 53 -80 76 c-44 41
-77 78 -74 82 4 4 32 7 62 7 75 0 92 16 92 88 0 59 -2 62 -123 164 l-48 41 1
-149 c1 -82 1 -225 0 -317 l0 -168 -97 3 -98 3 -3 319 -2 318 222 -5 c143 -3
236 -9 260 -17z m682 3 c10 -32 136 -602 136 -613 0 -7 -32 -10 -97 -8 -93 3
-98 4 -101 26 -3 22 -179 189 -189 179 -4 -4 -43 -190 -43 -204 0 -2 -45 -3
-101 -3 -77 0 -100 3 -97 13 3 6 36 150 73 320 l69 307 172 0 c156 0 173 -2
178 -17z m711 -5 c27 -115 135 -602 135 -609 0 -5 -44 -9 -99 -9 l-98 0 -6 29
c-8 36 -177 189 -187 169 -4 -7 -13 -42 -19 -78 -6 -36 -14 -77 -17 -92 l-6
-28 -99 0 c-54 0 -99 1 -99 3 0 1 32 141 70 311 39 171 70 313 70 318 0 4 79
8 175 8 173 0 175 0 180 -22z m2220 12 c124 -20 145 -44 145 -163 0 -86 -23
-131 -77 -157 -18 -8 -33 -18 -33 -21 0 -3 17 -11 39 -17 57 -18 65 -33 72
-141 3 -53 9 -104 14 -113 6 -16 -1 -18 -89 -18 -112 0 -114 2 -122 107 -2 36
-8 73 -13 81 -4 8 -41 43 -82 77 l-74 63 -3 -164 -2 -164 -95 0 -95 0 0 320 0
320 178 0 c97 0 204 -5 237 -10z m1457 -290 c37 -162 67 -305 68 -317 0 -22
-3 -23 -93 -23 l-93 0 -12 33 c-7 20 -44 60 -97 106 -47 40 -87 72 -89 70 -2
-2 -11 -42 -21 -89 -9 -47 -19 -93 -21 -102 -5 -16 -18 -18 -100 -18 -73 0
-94 3 -94 14 0 13 126 586 135 614 4 10 44 12 177 10 l172 -3 68 -295z m515
82 l123 -217 0 218 0 217 70 0 70 0 -2 -317 -3 -318 -119 0 -119 0 -138 260
c-77 143 -139 255 -139 248 0 -7 9 -51 20 -98 16 -67 20 -121 20 -250 l0 -165
-70 0 -70 0 0 320 0 320 118 0 117 -1 122 -217z m553 -102 l0 -321 -97 3 -98
3 -3 305 c-1 168 0 310 3 317 3 9 32 13 100 13 l95 0 0 -320z m570 270 c0 -46
-10 -67 -130 -269 -71 -121 -130 -222 -130 -225 0 -3 59 -6 130 -6 l130 0 0
-45 0 -45 -235 0 -235 0 0 48 c0 42 13 68 123 254 l122 206 65 20 65 20 -172
1 -173 1 0 45 0 45 220 0 220 0 0 -50z m480 5 l0 -45 -172 0 -173 -1 67 -62
c41 -39 68 -71 70 -87 3 -25 5 -25 101 -28 l97 -3 0 -39 0 -40 -100 0 -100 0
0 -100 0 -100 115 0 115 0 0 -45 0 -45 -210 0 -210 0 0 320 0 320 200 0 200 0
0 -45z m574 25 c21 -6 49 -22 61 -34 26 -27 40 -104 30 -167 -8 -46 -55 -106
-91 -115 -26 -7 -33 -24 -9 -24 8 0 30 -8 49 -17 44 -21 53 -48 58 -170 l4
-93 -92 0 -92 0 -11 31 c-6 18 -11 57 -11 88 l0 56 -77 73 c-43 39 -81 72 -85
72 -4 0 -9 -71 -10 -157 l-3 -158 -97 -3 -98 -3 0 322 0 321 218 -5 c127 -3
233 -10 256 -17z"/>
<path d="M7817 8823 c2 -148 3 -273 3 -279 0 -19 57 -37 95 -30 19 4 39 15 45
26 11 21 14 419 2 436 -9 13 -134 114 -141 114 -4 0 -5 -120 -4 -267z"/>
<path d="M3860 8799 l0 -281 59 4 c94 7 91 0 91 230 l0 201 -67 63 c-38 35
-71 64 -75 64 -5 0 -8 -127 -8 -281z"/>
<path d="M5552 8897 c-18 -90 -32 -168 -32 -175 0 -8 22 -12 71 -12 69 0 71 1
66 23 -3 12 -18 91 -33 175 -15 83 -30 152 -34 152 -3 0 -20 -73 -38 -163z"/>
<path d="M6262 8898 c-18 -90 -32 -169 -32 -175 0 -9 21 -13 71 -13 63 0 71 2
67 18 -3 9 -18 88 -34 175 -16 86 -31 157 -34 157 -3 0 -20 -73 -38 -162z"/>
<path d="M8470 8947 c0 -107 3 -146 13 -150 13 -4 88 0 124 8 26 6 41 46 37
100 -3 34 -11 47 -61 93 -32 29 -70 62 -85 73 l-28 20 0 -144z"/>
<path d="M9911 9070 c-1 -3 -17 -82 -36 -174 -19 -93 -35 -173 -35 -177 0 -5
32 -9 70 -9 60 0 70 2 70 18 0 32 -66 360 -69 342z"/>
<path d="M12570 8941 l0 -151 68 6 c83 6 102 23 102 96 0 54 2 50 -112 150
l-58 50 0 -151z"/>
<path d="M7226 8130 c5 -5 63 -41 129 -81 261 -157 532 -351 739 -529 l116
-100 133 106 c236 188 516 377 785 531 72 41 132 77 132 79 0 2 -460 4 -1022
4 -621 0 -1018 -4 -1012 -10z"/>
<path d="M6205 8120 c11 -5 92 -39 180 -76 495 -207 1002 -510 1385 -829 52
-44 173 -156 268 -250 96 -93 178 -170 182 -170 4 0 91 75 192 167 202 184
289 255 483 393 397 283 904 558 1350 731 l99 39 -302 3 -302 2 -157 -79
c-463 -232 -942 -552 -1262 -844 l-95 -86 -106 103 c-308 297 -767 616 -1210
842 l-126 64 -300 -1 c-180 0 -291 -4 -279 -9z"/>
</g>
</svg>
