<?xml version="1.0" standalone="no"?>
<!DOCTYPE svg PUBLIC "-//W3C//DTD SVG 20010904//EN"
 "http://www.w3.org/TR/2001/REC-SVG-20010904/DTD/svg10.dtd">
<svg version="1.0" xmlns="http://www.w3.org/2000/svg"
 width="1816.000000pt" height="1816.000000pt" viewBox="0 0 1816.000000 1816.000000"
 preserveAspectRatio="xMidYMid meet">
<metadata>
Created by potrace 1.16, written by Peter Selinger 2001-2019
</metadata>
<g transform="translate(0.000000,1816.000000) scale(0.100000,-0.100000)"
fill="#000000" stroke="none">
<path d="M8646 18025 c-26 -9 -106 -16 -230 -20 -105 -4 -205 -11 -223 -17
-18 -5 -90 -13 -160 -18 -70 -4 -146 -13 -168 -19 -22 -6 -67 -11 -100 -11
-33 0 -79 -7 -103 -15 -23 -8 -70 -17 -105 -19 -34 -2 -74 -8 -89 -14 -14 -6
-55 -14 -90 -18 -34 -4 -80 -13 -102 -20 -21 -8 -53 -14 -71 -14 -18 0 -52 -7
-75 -15 -23 -8 -55 -15 -70 -15 -15 0 -44 -7 -63 -15 -20 -8 -48 -15 -63 -15
-14 0 -47 -7 -73 -15 -52 -16 -156 -46 -246 -70 -33 -8 -73 -20 -90 -26 -16
-6 -46 -15 -65 -19 -19 -4 -51 -14 -70 -20 -89 -32 -117 -40 -136 -40 -11 0
-29 -7 -40 -15 -10 -8 -30 -15 -42 -15 -13 0 -36 -6 -50 -14 -41 -21 -135 -56
-152 -56 -8 0 -24 -7 -34 -15 -11 -8 -29 -15 -40 -15 -12 0 -30 -7 -40 -15
-11 -8 -32 -15 -47 -15 -14 0 -32 -7 -39 -15 -7 -8 -21 -15 -32 -15 -10 0 -36
-9 -56 -19 -20 -11 -48 -24 -62 -29 -112 -46 -227 -97 -235 -104 -5 -4 -19 -8
-31 -8 -13 0 -25 -4 -28 -9 -4 -5 -27 -19 -54 -31 -77 -36 -444 -221 -487
-246 -22 -12 -65 -36 -95 -52 -30 -16 -77 -41 -104 -56 -27 -14 -55 -31 -63
-37 -19 -17 -93 -58 -125 -70 -16 -6 -28 -15 -28 -20 0 -5 -23 -21 -51 -36
-67 -36 -77 -43 -120 -75 -20 -16 -42 -28 -49 -28 -7 0 -27 -12 -45 -27 -17
-16 -45 -36 -61 -46 -26 -15 -83 -54 -109 -74 -5 -5 -37 -26 -70 -48 -33 -22
-64 -45 -70 -51 -5 -7 -29 -24 -53 -38 -23 -15 -51 -35 -61 -45 -10 -10 -40
-33 -67 -51 -27 -18 -68 -51 -91 -72 -24 -21 -47 -38 -51 -38 -5 0 -45 -31
-88 -70 -43 -38 -82 -70 -87 -70 -5 0 -46 -35 -92 -77 -45 -43 -102 -94 -126
-113 -57 -45 -692 -680 -744 -743 -22 -27 -71 -83 -108 -124 -38 -42 -79 -92
-92 -112 -12 -20 -37 -49 -55 -66 -18 -16 -47 -53 -65 -81 -18 -27 -45 -61
-59 -75 -15 -13 -42 -50 -62 -81 -19 -32 -39 -58 -43 -58 -5 0 -27 -28 -50
-62 -74 -110 -89 -132 -121 -173 -46 -59 -217 -321 -225 -344 -3 -10 -12 -22
-20 -25 -8 -3 -15 -12 -15 -19 0 -8 -14 -33 -30 -55 -17 -23 -30 -45 -30 -49
0 -3 -6 -14 -14 -22 -7 -9 -31 -49 -51 -89 -21 -39 -44 -77 -52 -83 -7 -6 -13
-17 -13 -25 0 -7 -10 -29 -22 -47 -33 -50 -56 -91 -105 -187 -45 -89 -52 -102
-71 -135 -7 -11 -15 -27 -18 -35 -4 -8 -33 -69 -64 -135 -32 -66 -70 -148 -85
-183 -14 -35 -44 -102 -65 -148 -22 -46 -40 -88 -40 -93 0 -5 -12 -35 -26 -67
-26 -59 -29 -68 -82 -210 -17 -45 -35 -90 -40 -100 -11 -22 -24 -59 -58 -169
-14 -44 -29 -87 -33 -95 -5 -9 -12 -31 -16 -50 -4 -19 -11 -40 -16 -46 -5 -6
-13 -31 -18 -55 -5 -24 -14 -57 -19 -74 -10 -28 -28 -91 -57 -195 -7 -25 -20
-67 -28 -95 -8 -27 -18 -66 -21 -85 -4 -19 -13 -57 -21 -85 -17 -60 -33 -133
-44 -195 -5 -25 -13 -65 -19 -90 -26 -110 -68 -342 -78 -435 -4 -33 -13 -80
-21 -104 -8 -24 -13 -51 -10 -61 2 -10 -2 -53 -10 -96 -8 -44 -18 -140 -24
-214 -5 -74 -13 -145 -19 -158 -6 -13 -10 -118 -11 -246 0 -202 -2 -227 -20
-260 -17 -33 -19 -57 -19 -268 0 -208 2 -238 20 -275 17 -38 19 -68 19 -268 1
-132 5 -234 11 -245 6 -10 13 -74 16 -142 3 -68 10 -134 15 -148 4 -14 15 -79
24 -145 24 -185 44 -314 55 -354 5 -20 10 -52 10 -72 0 -20 7 -56 15 -79 8
-23 15 -60 15 -82 0 -22 5 -49 11 -60 6 -11 15 -44 19 -72 10 -65 69 -302 115
-461 8 -27 22 -77 31 -110 9 -33 22 -75 30 -93 8 -18 14 -40 14 -50 0 -9 28
-96 61 -192 33 -96 64 -190 69 -209 5 -18 13 -38 19 -44 6 -6 11 -20 11 -32 0
-12 7 -30 15 -41 8 -10 15 -26 15 -34 0 -8 7 -28 15 -44 8 -15 15 -33 15 -39
0 -5 9 -28 19 -51 36 -76 51 -114 51 -124 0 -6 7 -23 15 -39 24 -45 105 -223
105 -230 0 -7 36 -82 136 -283 93 -188 134 -265 204 -385 16 -27 34 -61 40
-74 6 -12 25 -46 44 -75 18 -28 48 -78 66 -111 19 -33 44 -74 57 -91 13 -17
23 -34 23 -39 0 -4 10 -20 23 -35 12 -15 30 -40 39 -56 10 -16 30 -47 45 -70
16 -22 42 -62 58 -88 17 -27 41 -63 55 -81 14 -18 33 -46 43 -62 30 -50 144
-202 222 -298 23 -27 54 -69 69 -92 16 -24 32 -43 35 -43 4 0 24 -26 46 -57
22 -31 68 -86 102 -122 34 -36 79 -89 99 -118 51 -68 784 -799 854 -851 30
-23 89 -73 130 -111 41 -39 78 -71 82 -71 4 0 38 -26 75 -58 38 -32 84 -67
103 -79 19 -12 49 -36 65 -53 17 -18 46 -40 65 -50 19 -10 49 -32 65 -49 17
-17 36 -31 42 -31 7 0 30 -15 50 -34 21 -18 52 -42 70 -52 17 -11 64 -41 103
-69 40 -27 80 -54 89 -60 9 -5 32 -22 52 -38 20 -15 40 -27 43 -27 4 0 40 -22
82 -50 41 -27 77 -50 80 -50 2 0 23 -12 47 -27 66 -43 71 -46 123 -76 27 -15
67 -39 89 -52 46 -28 50 -30 170 -94 124 -67 295 -153 387 -195 42 -19 79 -40
83 -45 3 -6 13 -11 21 -11 13 0 148 -59 184 -81 8 -5 22 -12 30 -15 8 -3 29
-12 45 -19 17 -7 50 -21 75 -30 25 -9 59 -23 75 -30 17 -7 55 -23 85 -34 30
-12 64 -26 75 -31 11 -5 37 -14 57 -20 21 -6 40 -16 43 -21 4 -5 16 -9 29 -9
12 0 26 -4 32 -9 5 -6 27 -14 49 -20 22 -5 56 -15 75 -22 19 -6 51 -17 70 -24
19 -7 51 -18 70 -24 19 -7 53 -17 75 -22 21 -6 44 -14 50 -19 5 -4 28 -11 50
-15 22 -4 50 -13 62 -21 12 -8 35 -14 51 -14 15 0 37 -7 48 -15 10 -8 35 -15
54 -15 19 0 46 -7 60 -15 14 -8 39 -14 56 -15 17 0 52 -9 77 -20 25 -11 52
-17 60 -14 9 3 37 -4 63 -15 25 -12 63 -21 83 -21 20 -1 47 -7 61 -15 14 -8
44 -14 68 -15 23 0 59 -7 79 -15 19 -8 54 -15 77 -15 22 -1 59 -7 81 -15 22
-8 61 -15 86 -15 26 0 66 -7 89 -15 23 -8 61 -15 84 -15 22 0 79 -7 126 -16
47 -8 112 -17 145 -20 119 -9 151 -13 176 -22 13 -6 61 -10 104 -11 140 -2
201 -8 225 -21 32 -17 1194 -18 1215 0 14 12 117 21 239 22 38 0 81 4 95 10
25 10 44 12 176 22 33 3 96 12 140 20 44 9 100 16 125 16 25 0 63 7 85 15 22
8 65 14 96 15 30 0 60 5 66 11 6 6 39 13 74 16 35 2 81 11 102 19 20 8 56 14
80 14 23 0 51 7 61 15 11 8 36 15 55 15 20 0 60 9 89 20 29 11 57 18 62 15 5
-3 33 4 62 15 29 11 62 20 73 20 11 0 40 7 65 15 25 8 72 21 105 30 33 9 74
21 90 26 17 6 46 15 65 19 19 5 67 20 105 34 39 15 86 30 105 35 19 5 60 19
90 31 30 12 71 25 90 29 19 4 44 12 55 18 26 14 83 34 115 40 14 3 32 11 40
18 8 7 26 16 40 19 25 7 78 27 135 51 70 30 131 57 147 66 10 5 26 9 37 9 10
0 24 7 31 15 7 8 18 15 25 15 7 0 44 15 81 34 38 18 101 48 139 65 39 18 97
46 130 62 33 16 65 29 71 29 6 0 17 7 24 15 7 8 56 37 109 64 138 70 173 89
185 101 5 5 18 10 27 10 9 0 23 7 30 16 7 9 22 20 34 25 11 5 47 25 80 44 33
19 67 38 75 41 8 4 22 13 31 20 8 8 33 24 56 36 22 13 66 40 98 61 32 22 66
42 74 45 9 3 32 18 51 34 19 15 40 28 46 28 6 0 19 10 30 21 10 12 43 35 72
51 28 17 55 36 60 43 4 7 26 22 49 33 22 12 43 25 45 30 1 4 28 25 58 46 80
54 152 109 290 221 30 25 87 69 126 99 39 30 93 75 119 101 26 25 66 59 89 74
23 16 70 57 106 92 136 133 277 265 319 302 24 21 54 51 66 68 13 16 90 99
171 183 82 84 160 168 174 185 14 18 57 69 95 113 39 45 87 104 109 132 21 28
53 67 71 86 17 19 41 51 53 71 12 19 31 44 43 55 12 10 34 37 48 60 15 22 41
58 58 80 35 43 45 56 160 222 85 123 123 181 151 226 9 16 26 40 38 55 36 47
252 415 356 606 37 70 194 385 228 460 55 122 85 189 125 280 7 17 21 50 30
75 9 25 23 59 31 75 7 17 16 42 20 58 3 15 10 30 15 33 5 3 9 12 9 21 0 8 6
29 14 46 8 18 20 48 26 67 7 19 28 78 47 130 18 52 43 124 54 160 12 36 29 90
39 120 10 30 30 96 45 145 14 50 35 117 46 151 10 33 19 72 19 85 0 14 4 29 9
35 9 8 23 60 56 214 7 36 19 85 25 110 25 101 33 137 40 185 4 28 12 73 18
100 18 84 34 177 41 245 4 36 13 88 19 115 13 59 29 190 42 365 6 69 16 136
23 150 21 44 46 1047 27 1112 -6 22 -11 126 -11 249 0 172 -3 217 -15 241 -11
22 -16 61 -16 137 -1 58 -5 117 -11 131 -6 14 -16 72 -24 130 -31 246 -35 278
-49 331 -8 30 -14 71 -14 90 0 19 -7 56 -15 83 -8 27 -15 65 -15 83 0 19 -5
43 -11 54 -5 11 -17 52 -24 92 -27 135 -38 182 -51 220 -8 20 -14 52 -14 70
-1 17 -7 43 -15 57 -8 14 -14 36 -15 50 0 13 -6 42 -14 65 -8 22 -28 87 -46
145 -17 58 -45 146 -61 195 -17 50 -33 101 -36 115 -2 14 -9 34 -13 45 -10 21
-26 66 -62 170 -37 109 -148 391 -168 427 -6 10 -10 23 -10 29 0 6 -18 48 -39
92 -21 45 -51 109 -66 142 -15 33 -54 116 -87 185 -33 69 -69 145 -81 170 -12
25 -27 52 -33 60 -7 8 -28 44 -47 80 -56 108 -99 184 -108 196 -8 10 -44 74
-76 136 -8 15 -18 30 -23 33 -4 3 -17 23 -28 44 -35 66 -46 85 -69 114 -13 16
-23 34 -23 41 0 7 -13 28 -30 46 -16 18 -30 38 -30 43 0 6 -11 25 -25 43 -14
18 -25 36 -25 41 0 5 -17 29 -37 55 -40 50 -72 94 -100 142 -10 16 -34 47 -53
69 -19 22 -44 55 -55 73 -30 48 -157 214 -165 214 -4 0 -12 11 -18 24 -6 14
-42 60 -79 103 -38 43 -76 91 -86 106 -10 15 -55 68 -100 116 -45 49 -113 126
-152 171 -94 110 -618 626 -655 645 -16 8 -33 21 -37 28 -11 18 -181 167 -190
167 -5 0 -28 20 -53 44 -45 44 -169 142 -258 203 -26 18 -51 39 -57 46 -5 8
-30 26 -55 42 -25 15 -55 37 -68 48 -12 11 -37 30 -56 41 -19 12 -61 40 -95
64 -127 88 -184 127 -200 137 -9 5 -32 21 -51 35 -43 31 -64 43 -116 68 -23
11 -45 25 -48 31 -4 6 -22 18 -39 26 -18 8 -41 20 -52 27 -17 12 -35 23 -120
75 -11 7 -29 16 -41 22 -11 5 -50 27 -86 49 -35 22 -74 42 -85 46 -12 4 -27
13 -33 21 -7 8 -20 15 -30 15 -10 0 -23 7 -30 15 -7 8 -20 15 -30 15 -10 0
-23 7 -30 15 -7 8 -20 15 -30 15 -10 0 -23 7 -30 15 -7 8 -20 15 -30 15 -10 0
-23 7 -30 15 -7 8 -21 15 -31 15 -9 0 -24 7 -32 15 -8 7 -26 17 -40 20 -15 4
-31 13 -38 21 -6 8 -19 14 -28 14 -9 0 -25 7 -35 15 -11 8 -27 15 -37 15 -9 0
-22 7 -29 15 -7 8 -19 15 -26 15 -12 0 -50 16 -179 75 -16 7 -70 30 -120 50
-49 20 -104 43 -122 51 -17 8 -37 14 -45 14 -7 0 -22 6 -33 14 -11 7 -31 16
-45 19 -14 3 -50 15 -80 27 -30 11 -91 33 -135 47 -44 14 -94 31 -112 39 -17
8 -38 14 -46 14 -8 0 -28 7 -43 15 -16 8 -41 15 -55 15 -14 0 -34 7 -45 15
-10 8 -30 15 -44 15 -14 0 -36 7 -50 15 -14 8 -36 14 -50 15 -14 0 -42 9 -63
20 -21 12 -46 18 -56 15 -9 -3 -34 4 -56 15 -22 11 -55 20 -75 20 -19 1 -46 7
-60 15 -14 8 -43 14 -65 15 -22 0 -53 7 -69 15 -15 8 -43 15 -61 15 -18 0 -49
7 -68 15 -20 8 -52 15 -71 15 -20 0 -56 7 -82 16 -25 8 -73 18 -106 20 -33 2
-70 10 -82 16 -11 6 -51 13 -88 14 -37 2 -84 10 -104 19 -21 8 -66 15 -105 15
-38 0 -88 6 -111 14 -24 8 -101 16 -171 20 -70 3 -135 10 -145 15 -9 4 -109
12 -222 16 -132 4 -210 11 -219 18 -23 19 -764 21 -815 2z m954 -320 c30 -11
84 -15 184 -15 81 0 156 -5 176 -12 19 -6 80 -14 135 -18 93 -7 150 -14 315
-41 36 -6 95 -14 131 -19 36 -5 82 -15 102 -23 20 -9 44 -13 54 -11 10 3 43
-3 73 -11 30 -9 76 -18 103 -20 26 -3 61 -11 77 -20 16 -8 46 -15 67 -15 21 0
51 -7 67 -15 15 -8 40 -15 54 -15 25 0 90 -16 184 -47 26 -8 57 -16 70 -17 13
-2 39 -8 58 -14 19 -6 63 -21 98 -32 34 -11 71 -20 81 -20 11 0 22 -4 26 -9 3
-5 20 -13 38 -17 17 -3 45 -12 62 -19 39 -16 92 -35 130 -45 35 -10 112 -37
140 -49 11 -5 49 -19 85 -32 36 -12 94 -35 128 -51 35 -15 72 -28 82 -28 10 0
23 -7 30 -15 7 -8 21 -15 30 -15 10 0 31 -7 47 -15 15 -8 46 -22 68 -31 22 -9
72 -31 111 -50 39 -19 75 -34 81 -34 6 0 16 -7 23 -15 7 -8 19 -15 26 -15 18
0 394 -187 415 -206 8 -8 23 -14 32 -14 9 0 19 -5 22 -11 4 -5 17 -15 28 -20
46 -20 176 -95 194 -111 11 -10 27 -18 36 -18 9 0 19 -5 22 -10 4 -6 29 -22
56 -35 27 -14 49 -30 49 -35 0 -6 5 -10 11 -10 13 0 133 -72 137 -83 2 -4 26
-19 53 -32 27 -14 49 -29 49 -34 0 -5 12 -13 28 -19 15 -5 44 -24 66 -41 21
-17 42 -31 45 -31 3 0 44 -29 91 -65 47 -36 109 -81 137 -101 29 -19 60 -42
70 -52 10 -10 34 -28 54 -40 19 -12 48 -33 64 -48 16 -14 58 -49 94 -76 36
-28 86 -70 111 -93 25 -23 57 -49 72 -58 25 -16 75 -61 377 -345 118 -112 247
-242 323 -327 20 -22 87 -94 148 -160 62 -66 123 -136 135 -155 13 -19 44 -56
69 -82 25 -27 60 -69 78 -95 18 -27 40 -55 49 -63 10 -8 54 -64 98 -125 45
-60 93 -125 108 -144 26 -32 39 -50 114 -162 20 -30 46 -63 58 -73 11 -11 21
-24 21 -31 0 -7 14 -31 30 -53 17 -23 30 -44 30 -46 0 -2 24 -40 53 -84 99
-154 144 -227 183 -296 97 -172 126 -223 139 -251 9 -16 19 -37 24 -45 5 -8
19 -35 31 -60 13 -25 29 -52 36 -61 8 -8 14 -23 14 -31 0 -9 7 -21 15 -28 8
-7 15 -20 15 -30 0 -10 7 -23 15 -30 8 -7 15 -18 15 -25 0 -8 7 -26 15 -42 7
-15 23 -48 35 -73 12 -25 25 -52 29 -60 4 -8 15 -31 24 -50 9 -19 32 -70 51
-113 20 -42 36 -81 36 -86 0 -5 6 -22 14 -38 8 -15 22 -48 31 -73 17 -45 28
-72 57 -140 9 -19 19 -50 22 -67 4 -18 12 -35 17 -38 5 -4 9 -14 9 -23 0 -10
9 -34 20 -55 11 -20 20 -45 20 -56 0 -10 7 -32 15 -47 8 -16 15 -37 15 -47 0
-11 6 -31 14 -45 20 -40 39 -100 96 -297 12 -38 26 -83 31 -100 6 -16 15 -48
19 -70 12 -57 30 -125 42 -160 6 -16 13 -52 17 -80 4 -27 10 -55 14 -62 9 -14
35 -136 47 -220 5 -35 14 -72 20 -82 5 -11 10 -43 10 -71 0 -28 5 -61 12 -73
12 -21 24 -94 48 -277 6 -47 15 -105 21 -130 6 -25 15 -110 20 -190 5 -80 12
-152 16 -160 4 -8 10 -80 14 -160 4 -80 13 -226 19 -325 10 -174 9 -426 -3
-645 -3 -58 -9 -172 -14 -255 -4 -82 -11 -155 -15 -161 -4 -5 -11 -80 -17
-166 -6 -85 -16 -168 -22 -184 -6 -16 -11 -47 -10 -69 0 -22 -4 -65 -9 -95 -6
-30 -17 -95 -25 -145 -21 -137 -42 -247 -54 -278 -6 -16 -11 -42 -11 -59 0
-17 -6 -54 -14 -82 -8 -28 -20 -78 -26 -111 -18 -93 -28 -134 -51 -210 -11
-38 -24 -88 -29 -110 -4 -22 -13 -53 -19 -70 -6 -16 -18 -57 -27 -90 -8 -33
-43 -141 -75 -240 -33 -99 -64 -193 -69 -210 -9 -30 -22 -67 -59 -160 -10 -27
-25 -66 -32 -85 -18 -53 -25 -71 -47 -120 -11 -25 -36 -85 -57 -135 -69 -168
-132 -302 -145 -310 -5 -3 -10 -14 -10 -23 0 -16 -124 -267 -184 -372 -14 -25
-32 -58 -40 -75 -22 -44 -85 -156 -104 -185 -26 -39 -35 -54 -65 -106 -36 -65
-46 -81 -79 -131 -15 -23 -28 -44 -28 -48 0 -4 -10 -20 -22 -35 -13 -15 -32
-42 -43 -60 -21 -36 -59 -95 -113 -179 -19 -28 -37 -51 -41 -51 -4 0 -14 -12
-22 -27 -15 -30 -91 -137 -136 -192 -15 -18 -39 -52 -54 -75 -15 -22 -46 -61
-68 -86 -22 -25 -41 -50 -41 -55 0 -6 -28 -39 -61 -73 -34 -35 -74 -81 -88
-102 -14 -21 -56 -72 -93 -112 -37 -40 -102 -113 -146 -163 -98 -112 -501
-511 -601 -597 -41 -35 -108 -94 -149 -131 -41 -37 -86 -75 -101 -85 -14 -9
-51 -39 -82 -66 -59 -54 -151 -128 -201 -161 -16 -11 -48 -36 -72 -55 -23 -19
-59 -44 -79 -55 -20 -11 -37 -23 -37 -27 0 -5 -32 -29 -72 -56 -126 -84 -145
-97 -164 -116 -10 -10 -32 -25 -49 -32 -18 -7 -37 -20 -45 -28 -7 -9 -18 -16
-24 -16 -6 0 -29 -14 -50 -30 -22 -17 -44 -30 -50 -30 -6 -1 -27 -14 -46 -30
-19 -17 -40 -30 -47 -30 -7 0 -22 -9 -33 -20 -11 -11 -27 -20 -35 -20 -8 0
-15 -4 -15 -8 0 -5 -24 -21 -52 -36 -29 -15 -66 -36 -83 -47 -16 -10 -52 -31
-80 -46 -27 -15 -62 -35 -76 -43 -15 -8 -67 -35 -115 -59 -49 -24 -96 -47
-104 -52 -8 -4 -35 -18 -60 -29 -25 -12 -52 -25 -60 -30 -19 -12 -170 -86
-190 -94 -8 -3 -22 -10 -30 -14 -18 -11 -67 -33 -135 -62 -63 -27 -112 -49
-147 -67 -14 -7 -33 -13 -41 -13 -15 0 -29 -6 -105 -44 -19 -9 -40 -16 -49
-16 -8 0 -27 -6 -41 -14 -32 -16 -49 -22 -262 -93 -91 -31 -174 -60 -185 -66
-11 -6 -36 -14 -55 -18 -19 -4 -50 -12 -67 -18 -18 -6 -48 -16 -65 -22 -18 -6
-51 -15 -73 -19 -22 -4 -57 -15 -78 -24 -21 -9 -42 -14 -48 -10 -6 3 -33 -4
-61 -16 -27 -12 -57 -19 -65 -16 -8 3 -28 -1 -45 -10 -16 -8 -51 -20 -76 -25
-26 -4 -81 -15 -122 -23 -41 -8 -88 -19 -103 -25 -16 -6 -45 -11 -66 -11 -21
0 -58 -7 -81 -15 -23 -8 -61 -15 -84 -15 -22 0 -59 -7 -81 -15 -22 -8 -65 -14
-95 -15 -30 0 -74 -7 -98 -15 -23 -8 -87 -17 -141 -19 -54 -2 -108 -9 -120
-15 -11 -6 -85 -16 -163 -21 -79 -5 -179 -14 -223 -19 -104 -12 -1146 -12
-1250 0 -44 5 -143 14 -220 19 -77 5 -153 14 -170 20 -16 7 -68 14 -115 15
-47 2 -105 9 -130 15 -25 7 -82 16 -128 20 -45 4 -88 12 -95 18 -6 6 -39 12
-72 14 -33 2 -80 9 -105 16 -62 15 -145 31 -212 41 -31 5 -61 11 -66 15 -6 4
-37 11 -69 17 -32 6 -63 15 -69 20 -7 5 -27 11 -45 13 -47 5 -124 24 -184 47
-28 10 -59 19 -70 19 -11 0 -37 6 -60 14 -22 8 -67 22 -100 31 -33 10 -76 23
-95 30 -19 7 -51 18 -70 24 -19 7 -48 17 -65 21 -52 15 -129 42 -162 56 -17 8
-35 14 -41 14 -5 0 -23 7 -38 15 -16 8 -36 15 -45 15 -8 0 -24 7 -35 15 -10 8
-28 15 -40 15 -11 0 -29 7 -40 15 -10 8 -27 15 -36 15 -9 0 -29 6 -45 14 -15
8 -53 24 -83 36 -60 23 -83 33 -180 78 -36 17 -75 33 -87 37 -13 3 -23 11 -23
16 0 5 -11 9 -24 9 -13 0 -29 7 -36 15 -7 8 -20 15 -30 15 -10 0 -23 7 -30 15
-7 8 -17 15 -22 15 -9 0 -95 40 -128 60 -8 5 -22 11 -30 14 -8 3 -22 10 -30
15 -8 5 -22 12 -30 15 -8 3 -24 11 -35 18 -31 18 -48 26 -80 43 -16 8 -37 18
-45 23 -42 24 -58 33 -95 50 -22 10 -46 26 -54 35 -7 10 -22 17 -33 17 -10 0
-21 7 -24 15 -4 8 -12 15 -20 15 -7 0 -29 10 -47 23 -39 25 -82 51 -141 85
-22 12 -47 29 -56 37 -9 8 -21 15 -27 15 -6 0 -16 7 -23 15 -7 8 -32 24 -56
35 -24 10 -44 24 -44 29 0 6 -20 20 -45 31 -24 11 -48 26 -52 33 -4 7 -24 20
-43 29 -19 9 -48 30 -64 47 -17 17 -35 31 -41 31 -6 0 -29 15 -51 34 -21 18
-52 40 -69 49 -16 8 -45 29 -63 46 -19 17 -46 38 -60 45 -15 8 -43 30 -62 49
-19 19 -53 46 -75 60 -22 14 -62 47 -90 72 -27 26 -66 58 -86 70 -20 13 -70
55 -111 94 -42 39 -95 86 -119 103 -59 42 -537 516 -619 613 -36 42 -101 116
-144 163 -43 48 -87 100 -96 115 -10 16 -38 50 -62 75 -25 26 -102 124 -171
217 -70 94 -140 188 -156 210 -77 104 -102 138 -174 246 -42 64 -77 120 -77
125 0 4 -9 17 -19 28 -20 22 -52 73 -73 116 -7 14 -23 38 -36 54 -13 17 -28
39 -33 50 -5 12 -19 38 -32 58 -24 41 -103 177 -127 220 -157 282 -365 728
-479 1028 -18 47 -39 102 -47 123 -19 50 -39 105 -53 147 -40 119 -115 344
-131 396 -11 33 -20 72 -20 85 0 14 -4 29 -9 35 -9 9 -27 72 -63 224 -11 47
-26 106 -34 132 -8 26 -14 58 -14 72 0 13 -5 37 -11 53 -12 31 -33 132 -54
262 -8 47 -17 91 -20 98 -8 23 -37 213 -45 303 -5 47 -13 105 -19 130 -5 25
-10 82 -11 128 0 46 -5 92 -11 103 -10 20 -15 101 -39 620 -11 223 -9 296 19
876 5 105 14 201 20 212 6 11 11 55 12 98 0 43 5 101 10 128 5 28 14 91 19
140 5 50 14 113 19 140 6 28 17 95 26 150 9 55 23 129 30 165 15 69 28 133 49
241 7 36 17 72 22 80 4 8 11 34 15 59 9 59 37 170 48 195 5 11 12 34 14 50 3
17 9 44 15 60 6 17 17 55 26 85 22 78 50 168 91 290 74 223 97 285 106 295 5
5 9 16 9 25 0 8 7 28 15 44 8 15 15 33 15 38 0 5 8 28 18 51 10 23 26 62 36
87 17 43 25 62 62 148 9 20 22 51 29 67 13 32 271 560 286 585 5 8 19 35 32
60 39 76 88 160 98 166 5 3 9 13 9 23 0 10 7 24 15 31 8 7 21 24 28 39 45 86
63 117 79 133 10 10 18 23 18 28 0 6 28 52 62 103 34 50 71 108 83 127 35 57
46 73 130 189 44 61 99 139 122 173 23 33 53 73 66 87 13 14 34 43 46 63 12
21 28 41 35 45 8 5 38 40 67 79 30 40 80 101 112 136 31 36 57 68 57 72 0 4
52 63 116 131 64 68 125 137 134 152 38 61 583 578 722 686 34 26 88 71 119
100 31 29 80 70 109 92 30 22 96 73 149 113 53 41 106 78 119 83 12 5 22 13
22 18 0 5 28 27 63 50 79 53 125 85 159 112 14 12 42 31 61 43 19 11 48 30 63
40 77 52 133 86 142 86 5 0 17 9 27 20 10 11 22 20 26 20 5 0 25 12 46 26 21
14 47 30 58 35 26 13 54 29 90 55 17 11 55 33 85 49 66 35 106 56 185 101 33
18 141 74 240 123 158 78 222 109 350 166 17 8 60 28 98 44 37 17 73 31 80 31
6 0 21 7 31 15 11 8 26 15 33 15 14 0 90 31 125 50 10 6 23 10 29 10 6 0 25 7
42 15 42 19 116 45 147 52 14 3 34 12 45 19 11 8 31 14 45 14 14 0 34 7 44 15
11 8 32 15 47 15 15 0 30 4 33 9 7 10 192 68 446 138 30 9 75 22 99 29 25 8
61 14 80 14 20 0 45 7 55 15 11 8 37 15 58 15 22 0 52 7 68 15 16 8 52 17 82
19 29 3 78 12 108 20 30 9 62 14 72 10 9 -3 30 2 47 10 16 9 56 19 88 22 32 4
83 13 113 20 30 8 77 14 105 14 27 0 77 7 110 15 33 8 94 14 135 15 41 0 97 7
124 15 34 10 96 15 195 15 102 1 155 5 176 15 47 21 1045 21 1105 0z"/>
<path d="M4717 16024 c-9 -9 3 -54 19 -79 8 -11 14 -26 14 -33 0 -8 52 -67
116 -131 64 -64 676 -676 1360 -1361 1059 -1059 1244 -1249 1242 -1270 -2 -20
-9 -26 -37 -28 -19 -2 -44 -10 -55 -18 -11 -8 -32 -14 -46 -14 -14 0 -43 -9
-65 -20 -22 -11 -47 -20 -57 -20 -9 0 -20 -4 -23 -10 -3 -5 -14 -10 -23 -10
-9 -1 -35 -9 -57 -20 -22 -11 -43 -19 -47 -20 -10 0 -136 -57 -210 -95 -38
-19 -73 -35 -79 -35 -6 0 -25 -11 -43 -25 -18 -14 -39 -25 -45 -25 -7 0 -24
-9 -38 -20 -14 -11 -32 -20 -39 -20 -8 0 -14 -4 -14 -10 0 -5 -21 -21 -47 -35
-54 -29 -103 -62 -148 -98 -16 -13 -41 -30 -55 -37 -13 -7 -57 -42 -97 -76
-40 -35 -77 -64 -81 -64 -5 0 -39 -30 -78 -68 -38 -37 -98 -93 -134 -125 -150
-132 -198 -178 -307 -287 -62 -63 -135 -137 -162 -165 -98 -103 -391 -379
-443 -417 -29 -22 -61 -48 -70 -58 -18 -19 -158 -128 -186 -145 -10 -5 -30
-19 -47 -31 -16 -11 -50 -30 -75 -42 -66 -30 -193 -92 -210 -102 -8 -5 -22
-11 -30 -14 -8 -3 -24 -11 -35 -18 -40 -23 -50 -28 -65 -34 -26 -9 -71 -31
-178 -83 -57 -28 -112 -51 -122 -51 -10 0 -21 -4 -24 -9 -4 -5 -27 -19 -54
-31 -26 -12 -74 -34 -107 -50 -66 -31 -132 -59 -185 -80 -34 -12 -174 -31
-235 -31 -71 0 -252 20 -279 30 -59 24 -176 83 -181 92 -4 5 -15 9 -25 9 -11
0 -24 9 -30 20 -6 11 -19 20 -30 20 -10 0 -25 7 -34 15 -8 8 -21 15 -28 15 -7
0 -22 6 -33 14 -11 7 -65 37 -120 65 -55 28 -107 55 -115 60 -8 5 -33 17 -55
27 -22 10 -47 25 -56 32 -9 7 -45 27 -81 45 l-65 33 -25 -28 c-51 -56 -122
-22 -116 55 3 42 3 42 -62 79 -36 21 -72 38 -80 38 -21 0 -40 -20 -40 -41 0
-10 -13 -44 -29 -76 -54 -108 -71 -150 -71 -171 0 -17 23 -33 113 -77 61 -32
144 -74 182 -95 39 -21 77 -42 85 -45 8 -4 22 -11 30 -16 8 -5 22 -12 30 -15
8 -3 22 -10 30 -15 8 -5 22 -12 30 -15 8 -3 22 -9 30 -14 8 -5 87 -45 175 -90
175 -90 243 -126 303 -160 9 -6 23 -12 30 -15 30 -12 39 -17 77 -40 22 -13 56
-33 76 -44 19 -11 41 -27 48 -35 12 -14 233 -16 2301 -16 1259 0 2295 -3 2304
-6 9 -3 16 -13 16 -22 0 -9 -268 -285 -596 -613 -452 -453 -609 -603 -648
-624 -62 -32 -81 -42 -103 -55 -10 -6 -25 -13 -33 -16 -8 -3 -22 -10 -30 -15
-8 -5 -22 -12 -30 -15 -8 -3 -22 -10 -30 -15 -8 -5 -31 -17 -50 -27 -117 -63
-191 -105 -196 -113 -3 -5 -14 -9 -24 -9 -10 0 -23 -6 -27 -14 -4 -7 -39 -29
-76 -49 -37 -20 -80 -46 -96 -59 -16 -13 -44 -32 -62 -43 -18 -11 -45 -27 -59
-36 -28 -18 -157 -112 -180 -131 -8 -7 -44 -37 -80 -65 -87 -70 -180 -162
-216 -214 -16 -24 -38 -52 -49 -63 -27 -27 -87 -145 -114 -221 -27 -75 -28
-190 -4 -258 l18 -49 -56 -51 c-84 -80 -151 -137 -160 -137 -10 0 -103 -119
-122 -157 -9 -16 -23 -35 -31 -42 -23 -19 -20 -45 8 -77 l23 -28 30 20 c126
81 179 124 258 210 146 159 128 147 215 139 95 -9 121 -9 195 0 58 7 77 13
140 48 17 9 49 26 72 37 23 11 43 24 45 28 2 4 42 38 90 75 84 66 113 94 173
173 17 21 47 58 69 81 21 24 50 61 65 82 14 21 51 74 81 117 59 84 136 205
169 266 11 21 33 57 48 80 31 50 75 132 185 349 l79 155 682 682 682 682 1210
0 1210 0 667 -667 666 -668 96 -188 c53 -103 107 -204 120 -225 12 -20 40 -70
60 -110 21 -39 42 -74 46 -77 4 -3 18 -23 29 -46 38 -73 113 -186 186 -284 25
-33 57 -78 71 -99 15 -21 58 -72 98 -113 39 -41 77 -85 84 -99 7 -13 17 -24
22 -24 5 0 40 -28 77 -63 73 -68 155 -127 177 -127 8 0 19 -7 26 -15 7 -8 20
-15 29 -15 9 0 25 -6 36 -14 11 -7 49 -17 85 -21 75 -9 77 -9 191 1 l86 7 31
-34 c17 -19 58 -68 91 -110 57 -71 139 -149 158 -149 5 0 24 -13 43 -30 19
-16 40 -29 46 -30 6 0 17 -7 24 -16 12 -13 16 -12 36 13 25 30 31 68 13 79 -6
3 -27 32 -46 63 -35 53 -184 208 -271 280 -50 41 -59 63 -38 93 12 17 16 47
16 117 0 101 -23 191 -65 261 -12 19 -24 42 -28 51 -18 51 -254 319 -280 319
-5 0 -43 28 -86 63 -95 78 -125 100 -181 137 -25 17 -52 35 -60 40 -8 6 -46
30 -85 54 -38 25 -82 54 -97 65 -14 12 -33 21 -41 21 -9 0 -19 5 -22 10 -4 6
-27 22 -53 35 -26 14 -67 37 -92 51 -46 27 -215 116 -350 185 -70 36 -113 76
-679 643 -518 519 -602 607 -591 620 11 14 257 16 2303 16 l2291 0 56 40 c30
22 93 59 140 83 47 23 103 54 125 68 22 13 105 58 185 98 157 79 171 86 198
101 9 6 24 13 32 16 8 3 22 10 30 15 8 5 22 12 30 15 8 3 22 10 30 15 8 5 22
12 30 15 8 3 22 10 30 15 8 5 42 23 75 39 61 31 81 42 113 60 9 6 24 13 32 16
8 3 22 10 30 15 8 5 25 13 38 19 38 16 82 53 82 68 0 8 -15 46 -33 86 -18 39
-44 97 -57 128 -13 31 -30 60 -38 63 -9 3 -41 -7 -73 -22 l-57 -28 2 -59 c1
-55 -1 -61 -26 -75 -35 -20 -78 -6 -96 32 -16 32 -26 33 -59 7 -14 -11 -31
-20 -38 -20 -7 0 -18 -7 -25 -15 -7 -8 -20 -15 -30 -15 -10 0 -23 -7 -30 -15
-7 -8 -20 -15 -30 -15 -10 0 -23 -6 -29 -14 -7 -8 -58 -38 -114 -67 -56 -29
-131 -68 -167 -86 -36 -19 -72 -38 -80 -43 -8 -5 -22 -11 -30 -14 -8 -4 -33
-17 -55 -30 -43 -25 -160 -85 -210 -106 -16 -8 -79 -17 -140 -22 -142 -11
-154 -11 -255 0 -97 11 -127 21 -265 83 -22 9 -61 27 -87 38 -25 11 -49 25
-53 31 -3 5 -13 10 -22 10 -15 0 -59 20 -373 172 -370 179 -424 208 -509 276
-29 23 -56 42 -59 42 -4 0 -30 22 -59 50 -28 27 -69 60 -90 73 -21 13 -208
192 -417 398 -208 206 -386 379 -396 384 -11 6 -65 55 -122 110 -57 55 -139
129 -183 164 -44 36 -89 73 -100 83 -24 21 -153 116 -192 140 -15 10 -50 32
-78 49 -27 17 -52 34 -55 38 -3 3 -16 12 -30 19 -14 7 -61 32 -105 57 -88 49
-105 57 -185 93 -30 13 -73 32 -95 42 -85 37 -144 60 -158 60 -8 0 -20 7 -27
15 -7 8 -27 15 -45 15 -18 0 -38 7 -45 15 -7 8 -22 15 -34 15 -12 0 -46 9 -76
19 -42 15 -56 25 -58 42 -3 18 228 254 1232 1258 679 680 1248 1254 1264 1277
17 22 66 76 111 120 79 77 131 158 131 205 0 22 -32 26 -48 7 -6 -7 -34 -22
-62 -33 -29 -11 -57 -29 -62 -40 -15 -29 -138 -153 -168 -170 -14 -7 -605
-594 -1314 -1303 -709 -710 -1299 -1295 -1311 -1302 -18 -10 -42 -10 -112 0
-48 6 -153 16 -232 20 -79 4 -162 13 -185 18 -22 6 -99 13 -171 16 -100 4
-143 10 -185 26 -30 12 -71 26 -90 30 -19 4 -48 13 -65 19 -64 22 -152 43
-201 47 -28 2 -68 11 -87 19 -52 21 -293 21 -345 -1 -20 -8 -62 -17 -92 -19
-30 -2 -72 -11 -92 -19 -21 -9 -50 -16 -65 -16 -15 -1 -39 -7 -53 -15 -14 -8
-36 -14 -48 -15 -13 0 -36 -6 -50 -14 -53 -29 -99 -37 -227 -42 -71 -3 -146
-9 -165 -15 -19 -5 -102 -14 -185 -19 -82 -5 -192 -14 -244 -20 l-95 -11
-1305 1305 c-718 718 -1332 1326 -1364 1350 -32 25 -78 69 -102 98 -24 29 -61
61 -82 71 -21 10 -51 25 -66 33 -32 16 -41 17 -50 8z m1660 -1626 c662 -662
1203 -1209 1203 -1215 0 -54 -73 15 -1244 1186 -1174 1174 -1228 1231 -1174
1231 7 0 554 -541 1215 -1202z m6841 1182 c1 -9 -508 -525 -1201 -1218 -1187
-1187 -1237 -1234 -1237 -1179 0 20 2404 2418 2420 2415 8 -2 16 -10 18 -18z
m-4454 -2630 c39 -14 786 -13 821 0 17 6 180 10 423 11 409 0 411 0 412 -40 0
-15 -1184 -1203 -1217 -1220 -14 -7 -30 -8 -45 -2 -24 10 -1228 1210 -1228
1224 0 5 4 16 9 25 8 16 42 17 403 15 231 -2 405 -7 422 -13z m-382 -687 c588
-588 668 -672 668 -698 0 -26 -76 -106 -630 -660 l-630 -630 -468 3 c-257 1
-1223 4 -2146 7 -1440 4 -1682 6 -1694 19 -8 8 -11 19 -8 24 9 16 66 42 90 42
12 1 39 9 61 20 22 11 50 19 61 20 12 0 27 6 33 14 6 8 24 16 39 19 15 2 43
10 62 17 114 42 146 55 155 62 5 4 20 8 33 8 12 0 40 9 60 19 61 31 111 51
131 51 10 0 24 7 31 15 7 8 20 15 30 15 10 0 23 7 30 15 7 8 20 15 30 15 10 0
23 7 30 15 7 8 20 15 30 15 10 0 23 7 30 15 7 8 20 15 30 15 10 0 23 7 31 16
7 8 33 26 58 40 52 27 69 38 124 77 22 15 46 27 53 27 7 0 17 6 21 14 4 7 35
31 67 52 33 21 69 48 80 59 12 12 40 32 64 45 23 13 42 27 42 31 0 4 35 33 78
65 42 32 115 95 162 141 47 46 101 93 120 104 19 12 219 204 444 428 225 223
416 413 425 422 9 8 39 31 66 51 28 20 61 48 75 63 27 29 153 115 168 115 5 0
15 7 22 15 7 8 21 15 31 15 10 0 22 6 26 14 4 7 42 30 83 50 41 21 82 41 90
46 50 28 230 110 243 110 8 0 20 7 27 15 7 8 20 15 29 15 9 0 34 9 56 19 62
30 112 51 123 51 5 0 23 7 38 15 16 8 38 15 50 15 11 0 24 4 30 9 13 13 119
41 184 50 30 3 64 12 75 19 11 7 36 10 55 7 30 -4 120 -90 702 -672z m1410
-1280 c1077 -1077 1958 -1964 1958 -1971 0 -7 -7 -15 -16 -19 -12 -4 -544 522
-1975 1953 -1077 1077 -1959 1964 -1959 1971 0 10 13 20 30 22 3 1 886 -880
1962 -1956z m935 1942 c19 -8 53 -15 74 -15 21 0 50 -5 66 -11 15 -6 44 -15
63 -19 19 -5 60 -18 90 -30 30 -12 68 -26 85 -31 34 -10 87 -33 128 -54 16 -8
34 -15 40 -15 15 0 96 -40 103 -51 3 -5 13 -9 22 -9 23 0 336 -156 352 -175 7
-8 20 -15 30 -15 10 0 23 -7 30 -15 7 -8 18 -15 25 -15 8 0 34 -16 59 -35 26
-19 49 -35 52 -35 3 0 38 -28 78 -63 39 -35 82 -71 96 -80 14 -10 219 -210
457 -446 237 -236 444 -437 460 -447 15 -10 71 -57 123 -104 52 -48 102 -91
112 -96 9 -5 40 -31 70 -57 30 -26 75 -62 101 -80 137 -95 173 -122 180 -134
4 -7 14 -13 21 -13 7 0 31 -12 53 -27 52 -37 69 -48 123 -78 25 -14 63 -36 85
-49 73 -43 211 -109 295 -141 25 -9 62 -25 82 -36 20 -10 48 -19 60 -19 13 0
28 -4 33 -8 9 -7 50 -23 155 -61 19 -7 46 -15 60 -18 14 -3 33 -12 42 -21 10
-8 30 -14 45 -14 15 0 44 -8 63 -18 41 -21 99 -40 123 -40 9 0 24 -12 34 -26
37 -57 171 -54 -2171 -54 l-2150 0 -630 628 c-347 345 -634 633 -639 640 -5 7
-7 20 -5 30 4 21 1359 1372 1376 1372 7 0 29 -7 49 -15z m-167 -8 c0 -20
-1296 -1310 -1309 -1303 -6 4 -11 15 -11 24 0 9 287 304 637 654 467 467 644
638 660 638 13 0 23 -6 23 -13z m-1442 -1433 c2 -14 -342 -363 -1238 -1259
-682 -682 -1246 -1240 -1252 -1240 -55 0 4 62 1223 1281 684 684 1248 1243
1254 1241 5 -2 11 -12 13 -23z m639 -596 c310 -310 563 -570 563 -578 0 -41
17 -40 -1136 -40 -984 0 -1113 2 -1124 15 -9 10 -10 22 -4 35 11 25 1115 1130
1129 1130 5 0 263 -253 572 -562z m2125 -1995 c18 -20 333 -337 701 -704 367
-368 667 -675 667 -684 0 -8 -8 -15 -18 -15 -27 0 -1426 1404 -1419 1424 10
26 34 19 69 -21z m-5337 17 c7 -12 -1399 -1420 -1419 -1420 -8 0 -18 5 -22 11
-8 14 1395 1419 1418 1419 9 0 20 -4 23 -10z m-810 -548 c75 -20 92 -39 52
-61 -19 -10 -41 -9 -128 9 -131 26 -139 28 -139 45 0 39 79 41 215 7z m7086 9
c16 -13 21 -23 14 -29 -5 -5 -63 -19 -129 -32 l-118 -22 -21 21 c-14 13 -18
24 -12 30 10 10 183 49 221 50 12 1 32 -8 45 -18z m-6849 -236 c5 -28 15 -80
24 -118 15 -62 15 -69 0 -92 -24 -37 -44 -32 -51 13 -3 20 -12 67 -20 103 -18
81 -19 121 -3 137 24 24 42 8 50 -43z m6467 32 c8 -21 5 -47 -27 -221 -9 -48
-25 -56 -48 -21 -16 25 -16 31 1 123 10 53 22 107 26 120 11 29 37 28 48 -1z
m-6974 -31 c64 -14 110 -28 109 -35 -2 -25 -5 -29 -29 -45 -22 -15 -31 -14
-122 5 -54 11 -113 23 -131 26 -42 8 -46 15 -21 47 25 32 48 33 194 2z m7617
7 c29 -26 23 -50 -14 -56 -18 -3 -77 -15 -132 -27 l-98 -22 -24 23 c-42 40
-29 51 86 75 129 27 158 29 182 7z m-7345 -254 c7 -35 20 -93 28 -127 13 -56
13 -67 0 -93 -16 -30 -49 -39 -58 -15 -3 7 -8 35 -12 62 -4 27 -13 71 -21 98
-8 27 -14 61 -14 75 0 26 37 74 54 68 5 -2 16 -32 23 -68z m6930 49 c29 -27
29 -54 1 -190 -24 -115 -36 -129 -72 -89 -22 24 -22 35 3 166 30 154 28 151
68 113z m-7456 -58 c57 -11 105 -22 107 -24 11 -12 -12 -47 -34 -52 -29 -7
-183 21 -198 36 -9 9 6 60 18 60 3 0 51 -9 107 -20z m8056 -6 c16 -25 16 -27
-1 -39 -9 -7 -56 -19 -103 -26 -85 -13 -86 -12 -105 10 -24 31 -9 51 41 52 20
0 59 7 86 14 28 7 53 13 57 14 4 0 15 -11 25 -25z m-327 -230 c0 -34 -30 -168
-39 -177 -17 -17 -51 12 -51 43 0 27 25 160 35 189 8 21 55 -27 55 -55z"/>
<path d="M3760 6479 c-124 -5 -271 -15 -327 -24 -56 -8 -120 -15 -143 -15 -22
0 -57 -7 -77 -15 -19 -8 -53 -15 -75 -15 -21 0 -51 -6 -66 -14 -15 -8 -49 -17
-75 -21 -26 -4 -50 -11 -53 -16 -3 -5 -19 -9 -35 -9 -17 0 -47 -8 -67 -19 -73
-37 -114 -55 -129 -57 -9 -2 -20 -7 -26 -13 -6 -6 -19 -11 -28 -11 -9 0 -23
-7 -30 -17 -8 -9 -33 -25 -56 -35 -24 -10 -43 -23 -43 -27 0 -5 -29 -27 -64
-50 -58 -37 -176 -156 -176 -176 0 -5 -9 -18 -20 -30 -80 -85 -196 -389 -215
-565 -4 -36 -13 -93 -21 -128 -8 -35 -14 -92 -14 -128 0 -76 12 -87 65 -55 20
12 42 21 50 21 7 0 26 6 42 14 15 8 48 22 73 31 25 10 56 23 70 30 14 7 40 16
57 20 18 3 35 11 38 16 4 5 17 9 29 9 13 0 29 7 36 15 7 8 19 15 27 15 14 0
103 38 103 44 0 2 -12 25 -27 52 -109 193 -122 411 -34 569 26 46 110 135 127
135 6 0 17 6 23 14 6 7 33 21 59 30 26 10 59 24 74 32 14 8 37 14 50 14 12 1
34 7 48 15 14 8 41 14 61 15 19 0 60 7 89 16 30 9 82 16 115 15 33 0 92 6 131
15 38 8 95 14 125 12 l54 -3 3 -43 c2 -24 -4 -65 -12 -90 -9 -25 -16 -59 -16
-76 0 -17 -6 -62 -14 -101 -30 -142 -38 -192 -46 -257 -5 -38 -11 -72 -14 -77
-3 -5 -13 -53 -21 -107 -31 -200 -36 -230 -51 -275 -7 -26 -14 -66 -14 -89 0
-23 -6 -69 -14 -103 -16 -68 -33 -166 -46 -267 -5 -36 -15 -81 -23 -100 -9
-19 -13 -46 -10 -61 2 -14 -2 -52 -10 -85 -9 -32 -18 -84 -22 -114 -4 -30 -13
-80 -21 -111 -8 -31 -14 -74 -14 -95 -1 -22 -7 -50 -15 -64 -8 -14 -14 -48
-15 -76 0 -28 -7 -73 -15 -100 -8 -27 -15 -68 -15 -91 0 -23 -5 -54 -11 -70
-6 -15 -15 -57 -19 -93 -4 -36 -11 -72 -15 -81 -10 -26 20 -29 265 -28 287 0
293 1 325 59 14 25 30 57 36 73 6 15 15 27 20 27 5 0 16 15 24 33 20 43 62
116 76 133 15 19 46 71 64 110 7 17 21 36 29 44 9 7 16 16 16 20 0 7 57 106
80 140 17 24 38 61 60 106 11 23 27 47 35 54 8 7 15 16 15 20 0 7 57 106 80
140 11 16 17 26 63 106 15 27 36 63 47 79 11 17 31 50 45 75 15 25 37 63 50
85 13 22 36 60 50 85 14 25 34 59 45 75 27 41 55 92 80 141 11 23 27 47 35 54
8 7 15 17 15 22 0 5 11 24 25 42 14 18 25 36 25 41 0 4 15 31 34 59 18 28 44
71 57 96 13 25 26 47 29 50 4 3 13 17 21 31 40 75 61 111 88 151 16 24 39 61
50 83 12 22 40 69 62 104 21 34 39 65 39 68 0 3 15 29 34 57 18 28 44 70 57
92 13 23 46 79 73 125 27 46 54 93 60 104 13 24 40 67 73 116 12 19 23 40 23
47 0 9 -44 12 -169 12 l-169 0 -24 -32 c-14 -18 -35 -51 -47 -73 -12 -22 -30
-53 -41 -70 -11 -16 -31 -50 -45 -75 -14 -25 -37 -63 -50 -85 -13 -22 -28 -47
-32 -55 -13 -24 -70 -119 -113 -187 -21 -35 -41 -72 -45 -83 -3 -11 -10 -20
-16 -20 -5 0 -16 -15 -24 -32 -15 -34 -41 -78 -107 -188 -21 -34 -38 -65 -38
-69 0 -5 -7 -14 -16 -21 -8 -8 -22 -27 -30 -44 -19 -42 -54 -102 -87 -154 -15
-23 -37 -60 -48 -82 -11 -21 -27 -44 -35 -51 -8 -6 -14 -15 -14 -19 0 -7 -60
-113 -77 -135 -8 -11 -18 -28 -68 -115 -14 -25 -34 -58 -45 -75 -11 -16 -31
-50 -45 -75 -15 -25 -37 -63 -50 -85 -13 -22 -32 -53 -41 -70 -9 -16 -30 -45
-47 -62 -23 -25 -34 -30 -44 -22 -18 16 -16 60 7 154 11 44 20 94 20 110 0 17
12 84 26 150 14 66 30 155 35 198 5 44 14 87 19 97 6 10 10 36 10 56 0 21 6
63 14 93 8 31 20 90 26 131 6 41 18 113 26 160 9 47 21 121 29 165 7 44 18 96
24 115 6 19 11 50 11 68 0 19 7 61 15 95 14 62 27 137 45 252 5 33 12 77 16
98 l7 37 -69 -2 c-38 0 -170 -5 -294 -9z"/>
<path d="M11870 6328 c-36 -12 -83 -29 -105 -39 -48 -23 -134 -105 -156 -151
-64 -132 -69 -165 -35 -238 29 -64 63 -99 124 -130 37 -20 54 -22 142 -18 60
2 105 9 112 16 7 7 19 12 28 12 9 0 30 11 46 25 16 14 32 25 36 25 22 0 84 72
114 133 38 77 46 161 19 207 -8 14 -19 35 -24 47 -16 36 -86 84 -158 109 -37
13 -70 24 -73 23 -3 0 -34 -10 -70 -21z"/>
<path d="M7016 6238 c-10 -24 -24 -56 -32 -71 -8 -16 -14 -36 -14 -46 0 -9 -6
-25 -14 -36 -7 -11 -23 -48 -34 -81 -22 -65 -46 -122 -68 -166 -8 -14 -14 -34
-14 -43 0 -9 -6 -29 -14 -43 -8 -15 -22 -47 -31 -72 -16 -42 -47 -120 -66
-165 -5 -11 -20 -54 -34 -95 -14 -41 -30 -79 -35 -84 -6 -6 -10 -19 -10 -31 0
-11 -7 -29 -15 -39 -8 -11 -15 -30 -15 -42 0 -13 -4 -25 -9 -28 -4 -3 -21 -40
-36 -83 -16 -43 -35 -89 -42 -103 -7 -14 -13 -33 -13 -42 0 -9 -4 -19 -9 -22
-5 -3 -12 -18 -15 -33 -4 -16 -13 -41 -20 -58 -8 -16 -22 -50 -31 -75 -9 -25
-23 -58 -31 -73 -8 -16 -14 -35 -14 -43 0 -8 -9 -31 -20 -51 -11 -21 -20 -45
-20 -55 0 -9 -4 -19 -9 -22 -5 -3 -12 -18 -15 -33 -4 -16 -13 -41 -20 -58 -15
-32 -27 -62 -73 -185 -25 -67 -38 -84 -139 -186 -60 -61 -130 -124 -155 -139
-24 -15 -55 -38 -69 -50 -28 -26 -140 -85 -210 -110 -25 -9 -74 -21 -109 -26
-35 -5 -72 -11 -82 -14 -27 -9 -181 14 -206 31 -12 8 -28 14 -35 14 -17 0
-118 105 -141 147 -9 17 -17 40 -17 50 0 10 -6 25 -12 31 -17 17 -21 277 -5
290 10 8 72 15 257 28 57 4 176 32 212 50 14 8 35 14 45 14 11 0 28 7 39 15
10 8 26 15 35 15 9 0 22 7 29 15 7 8 20 15 30 15 10 0 23 7 31 16 7 8 31 25
53 36 52 26 255 229 289 288 87 154 109 225 110 354 0 96 -2 106 -33 169 -38
78 -74 113 -156 153 -58 28 -62 29 -219 28 -129 -1 -166 -4 -192 -17 -18 -10
-39 -17 -48 -17 -17 0 -90 -30 -137 -55 -14 -8 -33 -15 -42 -15 -9 0 -16 -4
-16 -9 0 -5 -12 -14 -27 -20 -39 -16 -124 -67 -132 -78 -3 -5 -33 -28 -66 -50
-69 -47 -201 -179 -238 -238 -14 -22 -37 -53 -52 -70 -15 -16 -33 -42 -41 -57
-8 -15 -27 -46 -43 -70 -16 -24 -51 -90 -78 -148 -70 -146 -83 -178 -83 -198
0 -10 -7 -27 -15 -38 -8 -10 -15 -31 -15 -45 0 -15 -7 -46 -16 -70 -13 -34
-17 -83 -18 -224 -1 -191 -2 -186 56 -310 10 -22 46 -68 81 -102 68 -67 144
-108 237 -129 30 -7 75 -17 100 -23 66 -15 197 -13 260 3 30 8 84 18 120 22
36 3 73 11 82 16 10 5 37 13 60 18 56 11 116 34 130 48 7 7 22 12 34 12 12 0
27 7 34 15 7 8 18 15 25 15 7 0 19 7 26 17 8 9 32 24 54 34 22 10 56 34 74 53
19 20 40 36 47 36 6 0 44 29 84 65 41 36 81 64 89 63 13 -3 17 -23 22 -103 5
-85 10 -109 36 -160 42 -81 66 -98 199 -144 72 -25 113 -26 180 -6 27 8 62 15
77 15 15 0 45 9 67 20 22 11 47 20 57 20 10 0 27 7 37 15 11 8 27 15 37 15 9
0 22 7 29 15 7 8 20 15 30 15 10 0 23 7 30 15 7 8 21 15 31 15 10 0 22 6 26
14 4 8 26 24 48 37 22 13 62 43 89 66 42 37 55 44 85 41 26 -2 39 -9 48 -28
19 -39 144 -161 183 -177 19 -8 41 -20 49 -26 35 -29 214 -78 307 -84 50 -3
95 2 156 16 47 12 94 21 103 21 19 0 101 25 155 48 53 22 123 54 140 63 8 5
33 18 55 29 77 40 95 51 127 81 18 17 49 39 68 49 46 24 217 200 264 273 21
31 41 57 46 57 4 0 13 14 20 30 7 17 22 42 33 56 25 32 117 214 117 232 0 8 6
26 14 40 7 15 22 49 32 76 11 27 26 53 34 57 8 4 62 31 120 60 58 28 112 57
120 64 19 15 88 27 95 15 3 -4 -2 -21 -10 -36 -8 -16 -15 -34 -15 -40 0 -5
-11 -34 -25 -62 -14 -29 -25 -58 -25 -65 0 -7 -6 -21 -13 -32 -14 -21 -44
-110 -70 -210 -9 -33 -21 -108 -27 -167 -37 -340 94 -567 360 -627 25 -5 63
-14 85 -20 51 -13 138 -13 190 0 22 5 76 16 120 24 92 16 157 32 200 50 17 7
50 21 75 30 25 9 52 21 60 26 8 5 22 12 30 15 8 3 22 10 30 15 8 5 25 14 38
19 13 6 38 21 55 34 18 13 42 27 55 31 12 3 22 10 22 15 0 4 23 23 52 41 29
19 68 48 87 66 50 47 75 41 78 -17 10 -182 71 -272 221 -329 95 -35 173 -40
246 -16 25 9 64 19 88 24 50 11 101 28 141 47 16 8 37 14 47 14 9 0 23 7 30
15 7 8 20 15 30 15 9 0 25 9 35 20 10 11 21 20 25 20 14 0 119 67 155 99 43
37 120 75 135 66 5 -3 10 -21 10 -40 0 -36 51 -158 78 -189 21 -23 87 -66 102
-66 6 0 32 -9 57 -21 37 -17 59 -20 127 -16 79 4 178 26 243 54 17 7 36 13 43
13 7 0 24 6 38 14 15 8 47 24 72 36 95 45 153 80 231 142 61 49 93 63 126 56
13 -2 20 -17 26 -58 4 -29 14 -61 22 -70 8 -9 15 -23 15 -30 0 -25 50 -78 92
-98 115 -55 145 -62 246 -59 54 2 108 9 120 16 12 6 41 15 64 20 98 20 295
114 397 189 80 59 109 33 71 -63 -4 -11 -15 -40 -25 -65 -9 -25 -26 -63 -36
-86 -10 -23 -19 -46 -19 -52 0 -6 -7 -28 -16 -49 -9 -21 -24 -54 -32 -73 -8
-19 -21 -48 -28 -63 -8 -16 -14 -36 -14 -46 0 -9 -7 -26 -15 -37 -8 -10 -15
-26 -15 -34 0 -8 -7 -28 -15 -44 -8 -15 -15 -33 -15 -39 0 -5 -9 -28 -19 -51
-11 -23 -25 -57 -32 -76 -7 -19 -31 -54 -52 -77 l-40 -43 -103 0 c-58 0 -112
4 -122 9 -9 4 -35 16 -57 26 -22 10 -63 34 -92 52 -28 18 -54 33 -58 33 -10 0
-76 -51 -112 -87 -18 -17 -54 -46 -80 -64 -26 -18 -66 -51 -88 -72 -22 -21
-59 -50 -82 -64 -25 -14 -43 -32 -43 -43 0 -21 41 -39 90 -39 19 0 55 -7 79
-15 62 -23 488 -23 530 -1 16 8 48 18 72 21 23 4 54 13 68 21 14 7 33 13 41
13 8 0 29 9 45 20 17 11 38 20 48 20 9 0 17 4 17 8 0 5 23 18 50 30 28 12 50
26 50 30 0 5 19 19 43 31 53 29 252 229 301 304 20 30 43 61 51 67 8 7 15 17
15 23 0 5 10 24 23 41 12 17 28 42 35 56 7 14 24 45 38 70 48 83 160 312 199
410 10 25 27 64 37 87 10 23 18 47 18 53 0 5 5 18 10 28 9 15 24 52 77 197 8
22 19 44 24 50 5 5 9 18 9 28 0 10 6 31 14 45 8 15 22 47 31 72 19 50 51 128
71 177 8 17 14 36 14 41 0 6 6 23 14 39 15 29 19 39 81 203 19 52 40 103 45
112 6 10 10 23 10 29 0 7 9 30 19 53 10 23 26 59 34 81 36 96 68 175 91 229 9
21 26 66 38 100 11 33 27 70 34 81 8 11 14 27 14 37 0 17 -18 18 -273 18
l-273 0 -22 -44 c-12 -24 -22 -48 -22 -54 0 -6 -6 -23 -14 -39 -8 -15 -22 -48
-31 -73 -9 -25 -23 -58 -31 -73 -8 -16 -14 -36 -14 -46 0 -9 -6 -25 -14 -36
-7 -11 -23 -49 -35 -85 -12 -36 -28 -78 -35 -95 -8 -16 -22 -50 -31 -75 -9
-25 -23 -58 -30 -75 -7 -16 -20 -50 -30 -75 -9 -25 -23 -58 -31 -73 -8 -16
-14 -35 -14 -43 0 -7 -9 -33 -19 -56 -39 -87 -51 -116 -51 -126 0 -6 -6 -23
-14 -39 -8 -15 -22 -48 -31 -73 -9 -25 -23 -58 -31 -73 -8 -16 -14 -33 -14
-39 0 -6 -15 -42 -34 -82 -25 -53 -50 -87 -98 -131 -73 -68 -200 -167 -228
-177 -10 -4 -21 -11 -24 -17 -6 -9 -67 -40 -121 -62 -31 -12 -86 -21 -137 -23
-115 -3 -138 116 -57 290 10 23 19 48 19 57 0 9 4 18 9 21 5 3 12 18 15 33 4
16 13 42 20 58 8 17 22 50 31 75 9 25 23 59 30 75 7 17 20 50 30 75 9 25 25
65 35 90 10 25 26 65 35 90 9 25 23 57 31 72 8 14 14 33 14 41 0 9 6 28 14 44
8 15 22 48 31 73 25 67 56 143 66 162 5 10 9 23 9 29 0 7 9 30 19 53 10 23 26
61 36 86 9 25 23 58 31 73 8 16 14 35 14 44 0 8 6 27 14 41 8 15 22 47 31 72
9 25 23 60 31 78 8 18 14 37 14 42 0 7 -101 9 -277 8 l-277 -3 -14 -30 c-8
-16 -21 -43 -28 -58 -8 -16 -14 -36 -14 -46 0 -9 -7 -26 -15 -37 -8 -10 -15
-26 -15 -34 0 -8 -7 -28 -15 -44 -8 -15 -15 -33 -15 -40 0 -6 -6 -22 -13 -36
-7 -14 -23 -54 -36 -90 -13 -36 -29 -78 -36 -95 -7 -16 -21 -50 -30 -75 -9
-25 -23 -58 -31 -73 -8 -16 -14 -35 -14 -42 0 -7 -7 -26 -15 -42 -8 -15 -31
-71 -51 -123 -19 -52 -42 -112 -50 -132 -8 -21 -21 -57 -30 -80 -8 -24 -22
-56 -30 -71 -8 -16 -14 -33 -14 -39 0 -5 -6 -24 -14 -41 -8 -18 -22 -57 -31
-87 -38 -121 -50 -146 -89 -188 -22 -24 -68 -64 -102 -88 -34 -24 -67 -51 -75
-60 -7 -8 -33 -26 -58 -40 -25 -13 -53 -28 -61 -33 -83 -48 -176 -68 -240 -51
-33 9 -44 18 -56 45 -8 19 -14 46 -14 60 0 25 23 109 41 150 4 11 24 63 44
115 20 52 42 109 50 125 7 17 21 50 30 75 9 25 23 58 31 73 8 16 14 34 14 40
0 7 9 29 20 50 11 20 20 46 20 56 0 11 4 22 9 25 5 3 12 18 15 33 4 16 13 42
20 58 13 28 26 61 63 160 8 22 24 58 34 81 10 23 19 48 19 56 0 8 4 18 8 24 7
8 18 35 69 169 8 22 21 54 28 70 8 17 16 40 20 52 11 41 30 46 162 47 113 1
126 4 138 21 8 11 25 36 40 55 74 100 95 131 95 135 0 2 -69 6 -152 7 l-153 3
-3 33 c-2 19 4 49 12 67 9 18 16 39 16 47 0 8 7 23 15 34 8 10 15 28 15 40 0
11 7 29 15 40 8 10 15 26 15 34 0 8 9 33 20 55 11 22 19 48 20 57 0 9 4 19 9
23 5 3 12 19 16 35 4 17 13 43 20 58 8 15 17 39 20 55 l7 27 -73 -6 c-41 -4
-91 -13 -113 -21 -21 -7 -55 -13 -76 -13 -20 0 -59 -7 -86 -15 -27 -8 -67 -15
-89 -15 -92 -1 -165 -46 -165 -103 0 -9 -4 -25 -9 -35 -23 -41 -51 -109 -51
-121 0 -7 -6 -25 -14 -39 -8 -15 -22 -47 -32 -72 -31 -79 -54 -135 -63 -150
-6 -11 -31 -16 -102 -18 -107 -3 -123 -12 -159 -88 -11 -24 -24 -44 -28 -44
-12 0 -45 -67 -38 -79 4 -6 39 -9 88 -7 45 2 90 1 100 -2 28 -7 32 -45 9 -95
-12 -25 -21 -53 -21 -61 0 -8 -4 -17 -9 -21 -5 -3 -13 -20 -17 -37 -3 -18 -10
-39 -14 -48 -4 -8 -18 -40 -30 -70 -12 -30 -28 -68 -36 -83 -8 -16 -14 -35
-14 -42 0 -13 -6 -28 -44 -103 -9 -19 -16 -40 -16 -48 0 -8 -9 -31 -20 -51
-11 -21 -20 -45 -20 -53 0 -9 -4 -20 -8 -26 -4 -5 -18 -36 -31 -69 -46 -121
-53 -141 -64 -165 -17 -41 -32 -80 -62 -165 -35 -101 -58 -131 -153 -202 -42
-31 -81 -62 -85 -70 -4 -7 -31 -26 -59 -41 -73 -39 -88 -48 -101 -61 -6 -6
-19 -11 -29 -11 -10 0 -30 -8 -44 -17 -20 -13 -45 -16 -108 -14 -91 2 -119 18
-130 73 -7 35 11 155 25 164 5 3 9 13 9 22 0 9 7 31 16 47 8 17 26 59 39 95
13 36 32 88 43 115 77 195 104 262 112 277 6 10 10 23 10 29 0 7 9 30 19 53
10 23 26 59 34 81 8 22 26 67 38 100 13 33 27 64 31 69 4 6 8 19 8 29 0 10 7
31 15 45 8 15 31 70 50 122 63 166 66 174 81 203 8 16 14 35 14 44 0 8 6 27
14 41 23 44 56 130 56 147 0 14 -29 15 -267 13 l-267 -3 -15 -30 c-8 -16 -20
-42 -28 -57 -7 -14 -13 -33 -13 -41 0 -9 -7 -30 -16 -49 -38 -75 -44 -90 -44
-104 0 -8 -6 -25 -14 -37 -8 -12 -25 -51 -37 -87 -12 -36 -27 -76 -34 -90 -7
-14 -20 -45 -30 -70 -9 -25 -23 -58 -30 -75 -7 -16 -20 -50 -30 -75 -9 -25
-26 -63 -36 -86 -10 -23 -19 -48 -19 -57 0 -9 -4 -18 -9 -21 -5 -3 -12 -18
-15 -33 -4 -16 -13 -41 -20 -58 -8 -16 -22 -50 -31 -75 -10 -25 -24 -60 -31
-77 -29 -68 -41 -99 -54 -133 -6 -19 -18 -50 -25 -69 -23 -63 -246 -248 -380
-316 -16 -8 -37 -19 -45 -24 -99 -54 -166 -71 -288 -71 -115 0 -148 8 -221 54
-20 13 -43 36 -51 52 -8 16 -20 36 -26 44 -7 8 -21 44 -32 80 -40 131 -13 362
65 565 8 22 19 49 23 60 13 34 121 248 144 283 11 18 38 54 59 78 20 25 44 58
51 73 19 35 162 171 181 171 7 0 18 6 22 14 12 21 113 78 158 89 22 6 64 10
93 10 77 0 98 -23 95 -106 -1 -63 -23 -123 -78 -212 -34 -56 -35 -51 33 -195
14 -30 31 -71 38 -90 6 -19 17 -36 22 -38 6 -2 23 16 38 40 15 24 30 45 34 48
16 10 78 158 99 232 26 96 26 105 0 192 -47 156 -83 206 -191 261 -61 32 -80
36 -166 41 -149 8 -254 -9 -357 -57 -22 -11 -48 -19 -57 -19 -9 0 -19 -4 -22
-9 -3 -5 -23 -18 -43 -29 -82 -43 -107 -58 -132 -81 -14 -13 -42 -34 -61 -46
-53 -34 -142 -117 -188 -178 -32 -41 -58 -61 -119 -91 -144 -71 -278 -117
-348 -120 l-40 -1 -1 128 c-2 132 -4 143 -56 256 -25 52 -136 168 -171 176
-14 4 -28 13 -31 21 -3 8 -16 14 -29 14 -13 0 -39 8 -58 17 -29 15 -63 17
-219 17 -157 -1 -198 -4 -270 -23 -47 -12 -94 -26 -105 -30 -66 -27 -131 -51
-138 -51 -5 0 -15 -7 -23 -15 -9 -8 -24 -15 -33 -15 -10 0 -24 -7 -31 -15 -7
-8 -20 -15 -30 -15 -10 0 -23 -7 -31 -16 -7 -9 -30 -22 -50 -31 -21 -8 -40
-21 -43 -28 -3 -8 -25 -23 -51 -35 -25 -11 -45 -24 -45 -28 0 -4 -23 -25 -52
-47 -100 -77 -275 -269 -333 -366 -11 -18 -30 -49 -43 -69 -25 -40 -101 -195
-124 -255 -50 -130 -74 -277 -65 -402 3 -46 4 -90 0 -98 -3 -8 -35 -39 -72
-67 -36 -29 -70 -58 -76 -65 -5 -6 -29 -21 -53 -33 -23 -12 -45 -26 -48 -31
-3 -5 -13 -9 -23 -9 -10 0 -24 -7 -31 -15 -7 -8 -24 -15 -39 -15 -14 -1 -37
-7 -51 -15 -43 -24 -91 -19 -133 16 -34 28 -37 35 -37 82 0 54 11 96 41 163
11 23 19 48 19 57 0 9 5 19 10 22 6 3 10 13 10 22 0 9 9 34 19 57 10 23 26 61
36 86 9 25 23 59 31 75 7 17 16 42 20 58 3 15 10 30 15 33 5 3 9 12 9 20 0 8
8 34 18 57 10 23 27 62 36 87 10 25 24 59 31 75 7 17 21 50 30 75 9 25 23 59
30 75 12 29 26 64 61 158 9 23 25 60 35 83 10 23 19 47 19 55 0 8 7 23 15 33
8 11 15 28 15 37 0 10 6 30 14 46 8 15 22 48 31 73 9 25 23 59 30 75 7 17 30
73 50 125 20 52 41 104 45 115 5 11 18 45 30 75 12 30 28 68 36 83 8 16 14 35
14 44 0 8 7 27 15 41 8 15 31 70 51 122 19 52 42 109 50 127 8 17 14 38 14 46
0 9 4 18 9 22 5 3 13 19 16 36 4 17 16 47 27 65 11 18 17 38 13 44 -4 6 -97
10 -264 10 l-258 0 -17 -42z m-1102 -942 c30 -27 36 -40 36 -73 0 -76 -68
-287 -107 -334 -7 -8 -13 -22 -13 -31 0 -8 -12 -25 -26 -39 -14 -13 -37 -43
-50 -65 -26 -44 -116 -134 -133 -134 -6 0 -25 -13 -43 -29 -44 -38 -177 -98
-243 -108 -16 -3 -66 -11 -109 -18 -43 -7 -85 -11 -91 -8 -34 13 -20 98 35
202 4 9 18 36 29 61 12 25 35 68 51 95 16 28 38 65 47 83 9 17 20 32 25 32 4
0 16 17 27 38 22 43 244 272 265 272 7 0 19 7 27 16 25 30 136 71 196 73 34 1
48 -5 77 -33z m2541 -6 c3 -5 15 -10 25 -10 31 0 93 -48 133 -103 20 -28 37
-57 37 -65 0 -7 4 -20 9 -30 20 -39 43 -130 39 -157 -2 -23 -9 -31 -26 -33
-30 -5 -91 25 -115 55 -10 12 -23 23 -30 23 -12 0 -247 -239 -247 -251 0 -4 8
-10 18 -13 10 -4 34 -20 52 -36 19 -17 39 -30 46 -30 6 0 17 -7 24 -15 7 -8
23 -15 35 -15 12 0 28 -7 35 -15 7 -8 22 -15 34 -15 22 0 82 -19 104 -33 16
-11 15 -39 -4 -84 -9 -21 -20 -47 -24 -58 -16 -39 -51 -120 -65 -148 -8 -16
-15 -33 -15 -37 0 -5 -13 -28 -29 -52 -16 -24 -39 -62 -51 -85 -12 -23 -28
-47 -36 -54 -9 -7 -22 -26 -31 -43 -22 -44 -143 -166 -170 -172 -13 -4 -23
-10 -23 -15 0 -5 -21 -19 -47 -31 -65 -31 -213 -33 -258 -4 -33 21 -94 88
-112 123 -39 75 -55 251 -33 360 5 26 14 71 19 98 14 73 30 137 40 160 5 11
23 61 41 110 40 112 149 334 182 372 9 10 23 32 31 49 22 42 189 214 208 214
9 0 22 7 29 15 7 8 22 15 34 15 11 0 28 5 36 10 20 13 97 13 105 0z"/>
</g>
</svg>
