<?xml version="1.0" standalone="no"?>
<!DOCTYPE svg PUBLIC "-//W3C//DTD SVG 20010904//EN"
 "http://www.w3.org/TR/2001/REC-SVG-20010904/DTD/svg10.dtd">
<svg version="1.0" xmlns="http://www.w3.org/2000/svg"
 width="1073.000000pt" height="1073.000000pt" viewBox="0 0 1073.000000 1073.000000"
 preserveAspectRatio="xMidYMid meet">
<metadata>
Created by potrace 1.16, written by Peter Selinger 2001-2019
</metadata>
<g transform="translate(0.000000,1073.000000) scale(0.100000,-0.100000)"
fill="#000000" stroke="none">
<path d="M5045 10301 c-145 -9 -308 -28 -430 -48 -49 -9 -115 -19 -145 -23
-30 -5 -98 -18 -150 -30 -52 -12 -122 -28 -155 -35 -270 -59 -853 -269 -825
-298 3 -3 76 -43 163 -90 l157 -85 158 55 c86 30 191 64 232 74 41 11 77 22
80 24 27 16 445 99 605 119 391 50 644 53 1075 16 317 -27 735 -121 1070 -241
63 -22 122 -43 131 -46 9 -3 43 10 75 28 32 17 101 54 153 81 62 32 96 56 96
66 0 18 -30 35 -105 63 -25 8 -101 37 -170 64 -369 140 -767 235 -1200 285
-196 23 -615 33 -815 21z"/>
<path d="M2715 9933 c4 -38 11 -87 16 -110 13 -60 26 -158 45 -325 8 -78 18
-147 22 -152 4 -6 10 -42 14 -81 4 -38 14 -117 22 -175 9 -58 20 -138 26 -178
14 -108 18 -111 77 -54 90 85 150 137 175 154 l27 17 34 -42 c18 -23 41 -53
50 -67 34 -50 66 -96 111 -160 26 -36 76 -108 112 -160 36 -52 79 -113 95
-135 16 -22 50 -71 76 -110 25 -38 50 -72 55 -73 5 -2 18 -21 28 -43 11 -21
25 -39 30 -39 6 0 10 -5 10 -10 0 -6 57 -90 127 -188 69 -97 128 -185 131
-194 2 -10 8 -18 12 -18 5 0 42 -51 84 -112 42 -62 108 -158 147 -213 39 -55
81 -116 95 -135 13 -19 35 -51 49 -70 14 -19 37 -53 52 -75 14 -22 32 -46 40
-53 7 -8 21 -28 30 -45 9 -18 19 -34 22 -37 4 -3 29 -36 56 -75 49 -68 65 -91
170 -246 54 -80 53 -80 90 -125 14 -18 25 -37 25 -42 0 -6 6 -15 13 -19 7 -4
40 -48 72 -98 33 -49 63 -91 68 -93 4 -2 7 -9 7 -16 0 -7 11 -23 25 -36 43
-40 34 -68 -64 -208 -50 -70 -96 -134 -104 -142 -8 -8 -27 -37 -43 -65 -15
-27 -31 -52 -34 -55 -15 -14 -70 -90 -70 -98 0 -4 -10 -19 -22 -32 -13 -13
-27 -32 -33 -41 -20 -34 -103 -156 -151 -221 -27 -37 -92 -128 -144 -203 -52
-75 -116 -165 -142 -201 -27 -36 -55 -77 -63 -92 -9 -15 -29 -45 -46 -67 -16
-22 -37 -51 -47 -65 -9 -14 -22 -31 -29 -38 -7 -7 -13 -17 -13 -21 0 -5 -12
-24 -27 -43 -16 -20 -34 -44 -41 -54 -51 -76 -135 -194 -154 -218 -13 -16 -29
-40 -37 -54 -7 -14 -39 -60 -70 -101 -61 -84 -68 -93 -162 -231 -35 -52 -68
-100 -74 -106 -5 -6 -35 -47 -65 -92 -30 -45 -62 -83 -70 -85 -8 -2 -46 5 -85
15 -38 10 -131 31 -205 48 -74 17 -167 38 -206 47 -39 9 -79 13 -87 10 -20 -8
-51 -67 -40 -77 4 -4 91 -26 193 -50 102 -23 203 -46 225 -51 22 -5 57 -12 78
-16 28 -4 39 -11 43 -29 8 -29 -11 -54 -40 -54 -11 0 -93 17 -181 39 -88 21
-187 44 -220 50 -33 7 -82 20 -109 28 l-49 14 -28 -33 c-27 -32 -34 -65 -12
-61 5 1 32 -5 59 -14 27 -8 69 -19 94 -23 25 -4 79 -16 120 -28 41 -11 104
-26 140 -32 90 -17 120 -31 120 -55 0 -46 -41 -56 -121 -31 -24 8 -107 29
-184 46 -77 18 -176 41 -220 52 l-80 19 -27 -31 c-51 -56 -48 -58 142 -100
195 -43 355 -83 368 -93 18 -14 15 -45 -7 -57 -21 -11 -45 -7 -226 36 -55 13
-147 34 -205 48 -98 23 -140 30 -166 27 -6 -1 -19 -17 -30 -36 -17 -31 -17
-37 -4 -45 8 -5 23 -10 33 -10 9 0 93 -18 185 -41 92 -23 176 -43 187 -45 111
-24 130 -31 133 -50 2 -11 -6 -28 -17 -38 -18 -16 -26 -17 -63 -8 -24 6 -126
30 -228 52 -102 23 -206 48 -232 56 -26 8 -54 14 -62 14 -17 0 -68 -69 -61
-81 4 -6 64 -23 122 -34 12 -2 62 -13 110 -25 48 -12 129 -31 178 -42 50 -11
100 -25 113 -29 32 -12 38 -37 15 -61 l-20 -20 -109 26 c-60 15 -125 31 -144
36 -19 5 -100 23 -180 41 l-144 32 -28 -34 c-16 -18 -27 -38 -25 -43 4 -12 64
-29 191 -56 92 -19 186 -42 305 -74 58 -15 73 -38 44 -67 -24 -24 -16 -25
-173 17 -30 8 -95 23 -145 34 -49 11 -128 29 -175 40 -47 10 -90 20 -97 20
-19 0 -53 -42 -53 -66 0 -25 5 -27 95 -44 33 -6 76 -15 95 -19 19 -5 53 -14
75 -20 22 -5 54 -13 70 -16 17 -3 71 -15 120 -28 89 -22 90 -22 93 -55 4 -40
-13 -48 -71 -34 -23 6 -85 21 -137 33 -52 12 -157 37 -234 55 -76 19 -149 34
-161 34 -16 0 -30 -11 -45 -36 -11 -21 -17 -40 -13 -44 4 -4 44 -15 88 -24 44
-10 96 -22 115 -28 43 -11 154 -37 320 -73 69 -15 133 -31 142 -36 9 -5 25 -9
35 -9 56 0 93 -21 120 -68 28 -49 106 -168 123 -189 5 -7 10 -15 10 -19 0 -3
16 -28 35 -54 19 -26 35 -51 35 -55 0 -3 10 -21 23 -38 12 -18 27 -39 32 -48
6 -9 26 -41 46 -70 20 -30 51 -78 69 -106 18 -29 37 -53 42 -53 4 0 19 18 34
39 l26 40 -58 88 c-31 48 -73 113 -92 143 -19 30 -68 105 -109 166 -40 61 -73
116 -73 122 0 14 49 44 60 37 10 -6 53 -70 216 -322 43 -67 84 -130 91 -140
11 -17 14 -15 41 16 20 24 27 41 23 55 -9 32 -62 116 -72 116 -5 0 -9 5 -9 10
0 10 -70 122 -172 274 -21 33 -42 72 -45 88 -6 30 10 58 33 58 13 0 89 -104
129 -178 21 -37 75 -123 85 -132 10 -10 62 -90 80 -122 23 -44 40 -45 69 -3
20 30 22 39 12 58 -23 44 -38 67 -53 84 -8 10 -39 57 -68 106 -29 48 -56 87
-59 87 -4 0 -12 12 -19 28 -6 15 -25 47 -42 72 -56 85 -65 107 -52 135 6 14
18 25 26 25 13 0 143 -184 182 -257 7 -12 27 -42 46 -67 18 -24 45 -67 60 -95
16 -28 34 -51 41 -51 7 0 24 14 36 31 23 31 23 31 5 71 -10 23 -23 46 -29 52
-6 6 -22 29 -35 51 -37 61 -168 265 -201 312 -16 23 -29 50 -29 60 0 28 25 57
42 50 14 -5 148 -198 148 -211 0 -3 20 -34 45 -69 25 -36 45 -69 45 -75 0 -6
3 -12 8 -14 10 -4 47 -59 55 -81 10 -28 40 -17 59 22 22 44 26 35 -161 321
-20 30 -40 62 -46 71 -14 22 -44 68 -66 101 -30 43 -23 83 15 90 14 2 33 -17
74 -77 30 -44 62 -93 71 -110 9 -16 35 -58 59 -93 23 -35 42 -67 42 -72 0 -5
6 -13 13 -17 7 -4 24 -28 38 -52 29 -53 46 -61 58 -28 6 14 15 28 20 32 22 13
8 45 -81 183 -198 305 -208 321 -208 349 0 61 41 70 70 16 22 -41 81 -135 144
-230 21 -32 61 -93 89 -136 27 -42 51 -77 53 -77 12 0 54 59 54 76 0 12 -30
66 -66 121 -36 54 -74 114 -85 133 -10 19 -28 46 -38 60 -36 47 -109 165 -115
186 -4 14 0 30 13 45 l19 24 22 -20 c12 -11 32 -37 44 -59 11 -21 26 -46 31
-55 6 -9 23 -36 39 -61 91 -145 183 -279 194 -284 7 -3 23 11 38 34 25 37 25
47 2 75 -15 19 -148 226 -148 231 0 3 -18 29 -40 59 -22 30 -40 58 -40 62 0 4
-14 26 -30 47 -30 40 -41 98 -20 111 5 3 30 36 55 73 24 37 76 112 115 167 39
55 87 125 108 155 48 71 368 527 427 607 25 34 45 66 45 72 0 5 6 14 13 18 13
8 49 58 60 83 4 8 27 42 52 75 24 33 79 111 121 173 43 62 83 117 91 123 7 6
13 17 13 25 0 7 6 17 13 21 6 4 35 42 62 83 28 41 55 82 62 90 17 21 71 99
149 212 36 53 72 102 80 109 8 6 14 16 14 21 0 5 17 31 38 58 20 27 49 67 64
89 31 46 61 53 79 19 7 -13 15 -25 18 -28 3 -3 19 -25 36 -50 16 -25 43 -64
60 -86 16 -23 37 -52 45 -64 8 -12 30 -42 48 -66 18 -24 60 -84 92 -132 33
-48 75 -109 94 -137 19 -27 41 -58 48 -69 7 -10 26 -37 43 -60 43 -59 128
-181 180 -256 25 -36 57 -82 73 -103 15 -21 54 -77 87 -125 32 -48 62 -89 65
-92 3 -3 17 -23 30 -45 26 -43 36 -56 63 -86 9 -10 17 -21 17 -24 0 -2 33 -51
73 -107 96 -137 130 -186 142 -205 6 -9 16 -23 23 -32 8 -9 31 -44 53 -78 22
-35 43 -63 48 -63 5 0 14 -12 19 -27 6 -16 22 -41 36 -58 31 -36 156 -213 156
-222 0 -3 14 -21 30 -40 39 -43 38 -81 -2 -127 -5 -6 -28 -40 -50 -76 -23 -36
-84 -129 -135 -207 -51 -78 -93 -147 -93 -154 0 -18 40 -69 55 -69 11 0 52 59
160 232 6 9 28 42 49 74 22 33 55 83 73 112 19 28 38 52 43 52 12 0 40 -41 40
-60 0 -15 -44 -86 -209 -335 -109 -165 -109 -165 -76 -210 15 -19 30 -35 34
-35 3 0 24 28 45 63 22 34 49 78 61 97 12 19 42 67 67 105 25 39 64 99 88 135
56 87 72 94 98 44 11 -22 3 -40 -82 -169 -239 -364 -229 -344 -210 -381 8 -16
21 -35 28 -42 16 -16 24 -7 100 115 28 43 82 128 121 188 40 61 77 120 84 133
18 34 65 27 69 -9 3 -28 -22 -76 -105 -197 -24 -35 -43 -65 -43 -67 0 -2 -17
-30 -38 -62 -21 -32 -57 -87 -80 -122 l-41 -64 20 -39 c11 -21 26 -38 34 -38
8 0 27 19 42 43 27 43 126 195 223 345 65 98 100 109 100 28 0 -18 -86 -164
-120 -203 -5 -7 -23 -34 -38 -60 -16 -26 -51 -82 -79 -123 -79 -118 -78 -116
-51 -156 13 -18 29 -34 36 -34 7 0 29 26 49 58 20 31 40 59 45 60 4 2 8 12 8
23 0 10 4 19 9 19 7 0 43 54 111 169 31 52 91 129 105 134 14 6 29 -7 37 -33
6 -17 -23 -74 -76 -149 -20 -28 -36 -53 -36 -57 0 -3 -13 -24 -29 -47 -94
-137 -161 -247 -161 -264 0 -10 12 -34 28 -52 l27 -33 45 71 c25 40 64 101 88
137 23 35 42 66 42 68 0 3 24 40 53 84 28 43 57 87 63 98 16 27 42 24 61 -7
17 -29 29 -7 -143 -269 -38 -58 -73 -114 -79 -125 -6 -11 -26 -40 -43 -64 -18
-24 -32 -53 -32 -63 0 -22 39 -78 54 -78 6 0 25 23 41 50 17 28 72 114 123
192 50 78 92 143 92 145 0 2 12 22 27 44 22 34 31 40 57 37 42 -4 45 -34 8
-89 -16 -24 -58 -89 -94 -144 -36 -55 -78 -120 -94 -144 -16 -24 -37 -58 -48
-75 -10 -17 -27 -41 -37 -55 -10 -13 -19 -32 -19 -43 0 -20 38 -78 52 -78 5 0
35 42 68 93 33 50 65 99 70 107 5 8 24 38 42 65 46 73 146 227 214 329 l59 90
60 13 c33 7 119 26 190 43 72 17 167 40 212 50 45 10 96 23 115 28 18 6 71 19
117 29 46 10 86 23 88 30 5 14 -25 59 -46 68 -13 5 -126 -15 -186 -34 -16 -5
-57 -14 -90 -21 -33 -6 -94 -20 -135 -30 -192 -47 -210 -47 -210 -5 0 40 7 42
280 104 202 45 260 60 270 66 17 11 11 30 -19 59 l-30 28 -78 -16 c-43 -10
-98 -23 -123 -31 -25 -7 -63 -16 -85 -20 -22 -3 -69 -14 -105 -24 -134 -37
-159 -41 -185 -31 -17 6 -25 17 -25 34 0 34 0 34 315 105 188 43 235 56 235
65 0 17 -45 76 -58 76 -7 0 -52 -9 -100 -21 -126 -29 -274 -65 -374 -89 -68
-17 -91 -19 -108 -10 -30 16 -24 62 10 72 48 13 143 35 400 93 63 15 117 28
119 31 7 7 -49 84 -62 84 -7 0 -28 -5 -47 -10 -19 -6 -73 -19 -120 -30 -47
-10 -112 -25 -145 -33 -100 -24 -249 -57 -257 -57 -4 0 -15 12 -24 26 -30 44
-32 44 376 135 80 18 151 38 159 45 12 11 10 17 -10 43 -30 38 -50 38 -188 6
-58 -14 -155 -37 -216 -51 -60 -14 -131 -30 -158 -37 -43 -10 -49 -9 -69 10
-11 12 -18 28 -15 36 6 15 78 41 157 56 25 5 81 18 125 29 44 11 113 27 153
36 109 25 125 32 113 53 -6 10 -19 28 -30 41 l-19 22 -149 -35 c-81 -19 -204
-49 -273 -65 -69 -17 -133 -30 -142 -30 -20 0 -48 26 -48 45 0 27 9 30 405
120 157 35 171 47 117 98 -24 23 -32 26 -58 18 -16 -5 -81 -21 -144 -36 -63
-14 -169 -39 -235 -55 -136 -34 -167 -36 -185 -15 -18 22 -4 65 21 65 12 0 87
16 168 35 80 20 191 46 246 58 110 25 122 37 84 81 -26 30 -40 31 -128 11 -36
-9 -86 -20 -111 -26 -25 -6 -79 -19 -120 -29 -262 -66 -254 -66 -302 8 -21 31
-50 75 -66 97 -136 190 -230 325 -420 602 -29 43 -64 90 -77 105 -14 15 -25
30 -25 33 0 3 -12 23 -27 44 -16 21 -35 49 -43 61 -8 12 -28 41 -45 63 -16 22
-38 54 -49 71 -10 17 -21 33 -25 36 -4 3 -29 39 -55 80 -27 41 -53 80 -60 85
-6 6 -32 42 -58 80 -26 39 -55 80 -65 91 -10 11 -25 32 -33 46 -15 26 -106
160 -169 248 -30 43 -133 189 -253 360 -32 45 -58 85 -58 89 0 4 -11 18 -25
31 -14 13 -25 29 -25 37 0 7 -4 13 -8 13 -13 0 -92 127 -92 147 0 11 24 51 53
89 28 39 57 77 62 86 16 26 125 183 226 326 52 74 108 155 126 180 18 26 36
52 40 57 5 6 35 48 67 95 91 131 101 145 107 150 5 5 55 76 201 290 44 63 102
147 129 185 28 39 66 93 84 120 19 28 54 77 78 110 24 33 74 105 111 159 37
55 81 118 97 140 68 94 145 203 154 218 20 31 105 154 155 223 28 39 69 97 91
130 22 32 43 62 47 65 4 3 29 38 56 78 31 47 55 72 67 72 18 0 79 -50 190
-156 25 -24 50 -44 55 -44 12 0 34 80 34 123 0 19 4 58 10 88 13 71 47 313 65
462 8 64 19 136 24 160 5 23 15 89 21 147 7 58 17 122 22 144 6 23 6 42 0 48
-7 7 -83 -22 -132 -52 -19 -12 -292 -156 -425 -225 -90 -47 -185 -97 -360
-192 -33 -18 -77 -40 -97 -49 -21 -9 -38 -22 -38 -29 0 -7 61 -46 135 -85 105
-57 135 -77 135 -93 0 -11 -18 -44 -40 -73 -22 -29 -40 -55 -40 -58 0 -3 -37
-58 -82 -122 -46 -64 -95 -134 -109 -156 -15 -22 -30 -43 -35 -47 -5 -3 -15
-18 -21 -33 -7 -16 -17 -28 -23 -28 -5 0 -10 -4 -10 -9 0 -5 -37 -62 -82 -126
-46 -64 -111 -158 -146 -208 -35 -51 -72 -102 -82 -113 -11 -12 -20 -26 -20
-30 0 -5 -20 -34 -43 -65 -23 -32 -48 -65 -55 -75 -7 -11 -39 -57 -72 -104
-33 -47 -74 -107 -92 -133 -18 -26 -49 -70 -68 -97 -19 -27 -51 -72 -70 -100
-19 -29 -52 -74 -72 -100 -21 -27 -38 -52 -38 -55 0 -5 -42 -66 -75 -110 -49
-64 -85 -115 -85 -120 0 -3 -5 -11 -10 -18 -11 -12 -117 -161 -135 -189 -19
-28 -63 -93 -110 -158 -25 -36 -58 -83 -73 -105 -100 -149 -146 -205 -169
-205 -15 0 -27 8 -32 23 -5 13 -16 29 -25 36 -9 7 -16 20 -16 27 0 8 -4 14
-10 14 -5 0 -16 16 -25 35 -9 19 -27 44 -39 57 -21 22 -31 36 -86 118 -14 20
-42 61 -63 91 -21 30 -49 70 -62 89 -13 19 -32 46 -43 60 -10 14 -46 66 -80
115 -35 50 -96 137 -137 195 -85 120 -135 192 -214 305 -30 44 -68 98 -83 120
-16 22 -36 51 -45 65 -10 14 -31 43 -48 65 -16 21 -34 47 -40 57 -5 9 -53 78
-105 153 -52 74 -119 170 -148 213 -29 42 -59 85 -67 94 -7 9 -22 29 -31 45
-10 15 -24 35 -32 43 -12 13 -40 53 -157 225 -19 28 -57 82 -84 120 -138 193
-180 260 -175 280 3 11 24 30 47 41 87 41 212 109 219 119 12 16 13 15 -227
140 -182 95 -276 144 -435 230 -80 43 -156 84 -170 92 -14 7 -30 13 -37 13 -6
0 -13 3 -15 8 -4 9 -145 82 -159 82 -7 0 -8 -23 -4 -67z"/>
<path d="M2555 9447 c-125 -92 -347 -265 -430 -336 -113 -97 -401 -381 -491
-485 -32 -37 -63 -73 -69 -80 -52 -59 -173 -215 -178 -228 -3 -10 -11 -18 -17
-18 -5 0 -10 -5 -10 -11 0 -10 -27 -48 -105 -151 -19 -25 -35 -49 -35 -52 0
-4 -9 -19 -19 -34 -37 -53 -108 -168 -137 -222 -16 -30 -33 -59 -37 -65 -21
-26 -126 -235 -197 -390 -99 -219 -233 -606 -278 -805 -6 -25 -17 -70 -25
-100 -14 -55 -52 -262 -82 -460 -20 -127 -44 -490 -45 -656 0 -326 54 -794
130 -1109 5 -22 12 -53 16 -70 7 -31 69 -245 109 -375 57 -183 173 -458 292
-690 84 -163 75 -147 143 -257 27 -46 50 -85 50 -88 0 -7 56 -91 115 -175 21
-30 52 -75 69 -100 52 -77 181 -243 265 -340 112 -131 290 -312 302 -308 6 2
21 22 33 43 12 22 40 72 62 110 65 111 73 88 -85 260 -100 110 -246 287 -291
354 -8 13 -26 37 -38 54 -147 198 -407 657 -484 852 -11 28 -26 66 -35 85 -8
19 -19 44 -24 55 -18 42 -98 274 -127 370 -64 208 -117 450 -147 675 -8 63
-21 151 -28 195 -8 53 -12 209 -12 465 1 340 3 405 23 555 28 208 66 422 97
535 13 47 26 101 30 120 4 19 17 67 30 105 12 39 32 102 44 140 20 63 68 197
90 250 5 11 21 49 36 85 15 36 34 83 43 105 24 59 202 408 218 426 8 8 14 20
14 25 0 6 9 19 19 31 11 11 29 40 41 64 57 112 308 451 472 638 151 171 481
485 578 549 14 9 34 25 45 36 11 10 53 43 94 74 l73 56 -7 46 c-14 95 -34 246
-35 258 0 19 -31 13 -65 -11z"/>
<path d="M8077 9453 c-3 -5 -12 -62 -21 -128 -9 -66 -18 -132 -21 -146 -5 -31
7 -50 51 -81 285 -205 741 -653 919 -904 11 -15 31 -42 45 -59 24 -29 57 -75
151 -215 24 -36 47 -66 52 -68 4 -2 7 -8 7 -13 0 -4 21 -43 46 -86 71 -119 83
-140 140 -250 70 -135 70 -134 82 -163 6 -14 26 -59 45 -100 19 -41 54 -124
77 -185 23 -60 48 -126 55 -145 8 -19 28 -82 45 -140 17 -58 35 -115 40 -127
14 -33 76 -297 89 -378 7 -38 16 -86 21 -105 6 -19 22 -129 36 -245 24 -187
27 -246 27 -540 1 -181 -2 -352 -5 -380 -4 -27 -14 -111 -22 -185 -28 -246
-91 -562 -147 -733 -11 -31 -19 -62 -19 -68 0 -6 -6 -25 -14 -42 -7 -18 -21
-54 -29 -82 -48 -151 -116 -324 -167 -430 -119 -247 -171 -347 -242 -463 -21
-34 -38 -64 -38 -67 0 -5 -62 -97 -71 -105 -3 -3 -16 -23 -29 -45 -13 -22 -26
-42 -30 -45 -3 -3 -18 -25 -34 -50 -58 -90 -269 -350 -378 -465 -31 -33 -66
-73 -79 -89 l-22 -28 27 -52 c53 -103 111 -200 122 -203 16 -5 176 157 273
277 25 30 48 57 51 60 13 12 77 89 100 120 14 18 43 56 65 84 66 85 225 321
307 456 79 132 278 521 278 544 0 3 14 34 30 69 17 36 30 71 30 79 0 8 4 18 8
23 5 6 14 24 20 40 6 17 26 73 45 125 19 52 42 122 52 155 9 33 20 67 23 75
12 32 87 321 98 380 3 14 14 70 24 125 18 99 26 148 56 375 31 236 28 939 -5
1107 -6 26 -15 93 -21 148 -6 55 -15 114 -20 130 -5 17 -17 71 -25 120 -48
275 -204 770 -322 1024 -119 256 -230 465 -326 612 -30 46 -59 94 -66 106 -6
13 -50 76 -96 140 -336 468 -681 814 -1171 1176 -90 65 -108 75 -117 60z"/>
<path d="M1760 7549 c-74 -3 -136 -7 -137 -8 -2 0 -3 -698 -3 -1550 0 -1227 3
-1551 13 -1558 20 -17 294 -21 902 -13 l580 8 100 27 c55 15 128 40 163 56 35
16 66 29 68 29 3 0 20 11 38 25 18 14 38 25 44 25 7 0 12 3 12 8 0 4 23 25 50
47 28 22 50 43 50 47 0 4 10 18 23 31 38 42 86 114 92 140 4 14 18 46 31 73
13 26 24 57 24 68 0 12 7 43 15 70 24 78 20 296 -6 399 -21 79 -66 192 -88
219 -6 7 -30 38 -53 68 -47 61 -63 75 -158 140 -56 39 -122 65 -257 106 -34
10 -7 33 70 58 280 94 446 304 463 588 16 260 -57 488 -204 642 -155 162 -377
242 -702 252 -259 7 -991 10 -1130 3z m1215 -480 c61 -11 165 -57 200 -87 82
-72 125 -174 125 -298 0 -179 -66 -311 -184 -369 -115 -56 -129 -58 -566 -61
-269 -1 -409 1 -417 8 -10 8 -13 102 -13 408 0 218 3 400 7 403 11 12 784 8
848 -4z m89 -1304 c28 -10 61 -24 74 -31 43 -22 121 -89 128 -109 3 -11 12
-27 20 -35 31 -36 49 -133 49 -265 l0 -130 -39 -75 c-54 -108 -131 -166 -273
-207 -87 -26 -94 -26 -468 -29 -209 -2 -394 0 -410 4 l-29 8 2 438 c2 242 5
443 8 448 4 6 185 8 447 6 401 -4 447 -6 491 -23z"/>
<path d="M7276 7552 c-68 -1 -125 -7 -133 -14 -11 -9 -13 -290 -13 -1559 l0
-1548 43 -6 c23 -3 134 -5 247 -3 l205 3 3 600 c1 329 6 603 11 608 4 4 197
10 429 13 231 2 452 8 491 14 73 10 177 41 223 66 14 8 32 14 38 14 7 0 44 21
82 48 38 26 79 52 90 58 22 13 188 204 188 217 0 5 8 21 18 35 59 86 122 336
122 487 0 165 -35 321 -106 471 -25 51 -48 94 -52 94 -4 0 -15 15 -25 33 -18
33 -104 123 -167 175 -139 114 -342 179 -585 187 -165 6 -951 11 -1109 7z
m1168 -482 c105 -16 184 -58 245 -132 61 -75 98 -163 113 -270 10 -67 8 -95
-6 -180 -10 -56 -27 -117 -39 -137 -11 -20 -27 -48 -34 -63 -32 -63 -141 -134
-253 -167 -34 -10 -788 -11 -814 -2 l-26 11 0 469 c0 366 3 470 13 474 23 10
732 7 801 -3z"/>
<path d="M2325 2006 c-41 -42 -327 -310 -346 -324 -32 -23 -22 -48 44 -103
158 -132 233 -156 320 -100 51 33 77 77 77 131 0 28 2 30 38 30 27 0 51 9 78
28 56 41 64 54 66 104 2 36 -4 53 -25 82 -40 52 -191 176 -213 175 -11 -1 -28
-11 -39 -23z m121 -150 c49 -49 56 -84 24 -116 -36 -36 -88 -24 -162 40 -10 8
-18 23 -18 34 0 23 68 85 94 86 10 0 38 -20 62 -44z m-173 -161 c55 -52 61
-88 23 -124 -36 -34 -85 -31 -136 10 -60 49 -62 72 -9 120 24 21 50 39 59 39
9 0 37 -20 63 -45z"/>
<path d="M8362 1885 c-105 -46 -142 -191 -76 -302 85 -146 209 -165 311 -49
65 74 67 151 4 144 -19 -2 -31 -14 -46 -45 -11 -23 -29 -49 -40 -57 -41 -31
-114 -10 -101 30 3 10 21 29 38 41 48 33 138 119 138 132 0 19 -69 88 -104
105 -41 19 -80 20 -124 1z"/>
<path d="M2702 1747 c-6 -6 -20 -70 -32 -142 -11 -71 -26 -135 -33 -142 -7 -7
-75 -36 -151 -65 -77 -30 -141 -59 -144 -66 -2 -6 11 -21 30 -32 39 -25 59
-22 164 20 42 16 80 30 85 30 13 0 11 -60 -3 -138 l-12 -65 34 -28 c53 -44 63
-31 84 109 9 65 23 129 29 141 8 15 38 33 92 53 44 17 99 39 122 49 24 11 49
19 57 19 7 0 19 6 25 14 10 11 7 19 -11 36 -38 35 -62 35 -152 -4 -88 -38
-111 -43 -121 -26 -3 6 1 48 10 95 18 96 13 115 -34 140 -23 11 -31 12 -39 2z"/>
<path d="M8058 1631 c-22 -23 -50 -41 -60 -41 -31 0 -57 -18 -88 -62 -54 -74
-36 -192 43 -300 59 -80 157 -76 233 10 20 23 25 25 34 12 24 -36 4 -91 -44
-122 -20 -13 -38 -30 -41 -38 -6 -13 23 -80 35 -80 15 0 107 81 133 117 24 33
30 53 30 95 1 46 -7 70 -65 183 -119 234 -134 260 -151 263 -10 2 -36 -15 -59
-37z m30 -131 c17 -11 32 -26 32 -34 0 -7 7 -19 15 -26 17 -14 30 -89 20 -120
-4 -11 -22 -28 -41 -37 -32 -16 -36 -16 -62 3 -37 28 -72 99 -72 150 0 35 5
46 28 63 34 25 39 26 80 1z"/>
<path d="M3085 1428 c-21 -29 -47 -66 -59 -83 -51 -75 -130 -185 -171 -243
-25 -34 -45 -69 -45 -76 0 -19 22 -35 57 -42 28 -6 33 -2 82 73 57 85 76 98
112 79 13 -7 44 -24 69 -37 78 -42 182 -28 236 33 40 43 57 88 51 137 -4 38
-12 52 -45 81 -42 38 -210 130 -235 130 -8 0 -32 -24 -52 -52z m138 -85 c58
-33 77 -57 79 -98 1 -31 -4 -42 -28 -62 -16 -12 -39 -23 -52 -23 -32 0 -128
45 -135 63 -9 24 69 137 95 137 5 0 24 -8 41 -17z"/>
<path d="M7662 1383 c-13 -2 -41 -22 -63 -44 -21 -21 -48 -39 -60 -39 -31 0
-79 -32 -79 -52 0 -17 107 -288 133 -338 16 -30 52 -30 81 0 19 19 19 20 -24
125 -58 144 -62 166 -39 204 15 25 25 31 53 31 18 0 39 -7 46 -15 7 -9 34 -68
60 -133 53 -130 66 -141 113 -98 27 25 27 26 12 63 -9 21 -34 84 -56 139 -54
135 -97 174 -177 157z"/>
<path d="M7322 1195 c-18 -8 -35 -21 -38 -30 -4 -10 -19 -15 -46 -15 -50 0
-106 -31 -135 -73 -58 -86 -26 -270 59 -342 51 -43 131 -31 186 28 16 17 34
25 57 25 18 0 43 5 55 12 26 14 24 41 -9 150 -12 36 -33 107 -48 159 -16 52
-33 96 -38 97 -6 2 -25 -3 -43 -11z m-25 -147 c38 -43 61 -136 44 -180 -6 -15
-21 -34 -35 -43 -60 -40 -125 37 -126 147 0 49 3 59 26 77 35 27 66 27 91 -1z"/>
<path d="M3786 1117 c-43 -44 -249 -265 -323 -346 -48 -52 -54 -76 -20 -84 12
-2 29 -8 38 -11 11 -5 29 3 52 23 42 37 54 38 142 7 79 -27 96 -45 88 -90 -3
-20 0 -36 9 -43 20 -17 85 -27 92 -14 4 6 15 70 26 143 11 73 26 169 34 213
21 113 28 188 19 201 -4 7 -32 19 -62 28 l-54 16 -41 -43z m33 -154 c-1 -76
-24 -186 -41 -196 -20 -13 -122 23 -126 46 -3 14 145 187 160 187 5 0 8 -17 7
-37z"/>
<path d="M6755 1140 c-11 -5 -59 -20 -107 -35 -60 -18 -89 -32 -93 -45 -3 -10
4 -67 15 -126 12 -60 32 -164 46 -232 13 -68 24 -134 24 -146 0 -35 22 -49 62
-38 l33 9 -4 74 c-9 185 -9 182 24 190 36 10 49 0 120 -102 30 -43 58 -80 63
-83 12 -7 80 12 88 25 6 10 2 18 -66 109 -66 90 -66 90 -32 141 54 81 49 174
-13 236 -29 29 -39 33 -86 32 -30 0 -63 -4 -74 -9z m89 -105 c23 -23 28 -52
17 -88 -9 -26 -22 -39 -59 -55 -60 -27 -109 -29 -116 -4 -2 9 -7 40 -11 68 -7
57 2 71 58 84 53 13 95 11 111 -5z"/>
<path d="M4856 912 c-2 -4 -21 -91 -41 -192 -20 -102 -42 -216 -50 -254 -23
-106 -23 -106 35 -106 28 0 50 2 50 4 0 16 34 182 46 226 18 62 36 79 81 80
24 0 37 -7 49 -25 16 -24 16 -33 -6 -155 -26 -142 -23 -160 30 -160 39 0 47
15 65 111 8 46 19 102 25 124 5 22 10 59 10 82 0 80 -74 129 -160 106 -64 -17
-71 -3 -46 92 9 34 10 54 4 63 -11 13 -84 17 -92 4z"/>
<path d="M4070 803 c-23 -60 -49 -121 -56 -138 -52 -119 -49 -158 13 -153 39
3 39 3 78 98 57 140 58 142 93 157 19 8 47 11 65 8 42 -8 66 11 74 58 l6 37
-65 0 c-52 0 -68 4 -83 20 -11 12 -31 20 -50 20 -32 0 -33 -2 -75 -107z"/>
<path d="M6273 830 c-25 -10 -25 -11 -54 -158 -13 -69 -26 -111 -33 -109 -11
3 -22 33 -62 160 -10 32 -21 63 -25 69 -9 15 -86 0 -93 -18 -3 -8 5 -43 19
-77 87 -225 115 -304 115 -330 0 -31 -26 -61 -64 -73 -27 -8 -36 -22 -36 -56
0 -34 14 -38 69 -22 42 12 101 57 101 77 0 5 6 23 14 40 14 31 52 177 80 307
8 36 22 90 30 120 9 30 16 61 16 68 0 14 -44 15 -77 2z"/>
<path d="M4476 809 c-72 -27 -113 -79 -145 -180 -22 -71 -7 -132 45 -181 34
-32 111 -51 162 -42 60 11 132 65 132 99 0 3 -15 12 -32 20 -30 12 -37 11 -78
-11 -52 -28 -68 -29 -97 -9 -32 22 -37 67 -17 131 22 69 53 96 108 92 33 -2
43 -8 56 -33 20 -40 29 -46 70 -43 33 3 35 6 38 40 2 27 -3 44 -17 60 -12 12
-21 25 -21 28 0 11 -73 38 -116 43 -25 3 -58 -2 -88 -14z"/>
<path d="M5865 772 c-20 -13 -37 -16 -50 -11 -27 10 -77 11 -94 0 -7 -5 -14
-30 -16 -57 -2 -47 -7 -300 -5 -336 0 -14 9 -18 39 -18 21 0 43 6 49 13 5 6
12 66 15 132 2 66 8 127 12 137 3 9 20 21 36 27 16 6 42 16 58 22 22 8 31 19
35 43 12 66 -19 84 -79 48z"/>
<path d="M5359 729 c-80 -43 -119 -109 -126 -217 -6 -76 21 -141 71 -172 74
-45 247 -11 254 51 2 15 -4 31 -13 39 -13 11 -22 11 -51 -3 -70 -34 -154 -13
-154 38 0 13 4 26 8 29 5 3 61 6 125 7 131 1 127 -2 127 87 -1 45 -6 65 -28
96 -44 64 -141 84 -213 45z"/>
</g>
</svg>
