<?xml version="1.0" standalone="no"?>
<!DOCTYPE svg PUBLIC "-//W3C//DTD SVG 20010904//EN"
 "http://www.w3.org/TR/2001/REC-SVG-20010904/DTD/svg10.dtd">
<svg version="1.0" xmlns="http://www.w3.org/2000/svg"
 width="1073.000000pt" height="1073.000000pt" viewBox="0 0 1073.000000 1073.000000"
 preserveAspectRatio="xMidYMid meet">
<metadata>
Created by potrace 1.16, written by Peter Selinger 2001-2019
</metadata>
<g transform="translate(0.000000,1073.000000) scale(0.100000,-0.100000)"
fill="#000000" stroke="none">
<path d="M6472 6124 c-23 -19 -42 -40 -42 -45 0 -6 -12 -34 -26 -62 -19 -38
-43 -65 -90 -100 -47 -35 -64 -54 -64 -71 0 -44 34 -56 112 -41 35 7 38 6 49
-21 18 -48 2 -88 -210 -514 -60 -120 -211 -391 -245 -438 -33 -47 -29 -46
-119 -26 -22 5 -34 0 -67 -34 -39 -38 -40 -42 -40 -105 0 -91 4 -97 57 -97 47
0 71 9 114 44 15 12 39 30 55 41 43 30 86 74 129 130 20 28 40 52 44 55 14 11
91 181 146 320 54 137 109 253 129 269 15 13 19 12 36 -5 14 -14 20 -40 24
-100 9 -128 3 -119 205 -332 180 -190 316 -302 367 -302 32 0 74 38 74 66 0
65 -78 155 -151 174 -61 17 -145 105 -193 203 -52 105 -59 134 -63 260 -6 142
0 150 128 187 99 29 194 64 296 111 34 16 65 29 70 29 10 0 86 53 100 70 17
21 16 91 -1 116 -8 11 -34 26 -58 34 -149 47 -315 127 -372 181 l-43 39 -155
0 -154 0 -42 -36z m529 -257 c79 -41 92 -53 81 -74 -26 -48 -514 -181 -536
-145 -4 8 84 162 129 226 l20 27 130 -5 c112 -4 136 -8 176 -29z"/>
<path d="M3714 6098 c-24 -11 -44 -48 -44 -79 0 -35 29 -79 53 -80 12 0 30 -2
41 -4 25 -5 66 12 82 33 14 18 18 70 8 97 -15 37 -94 56 -140 33z"/>
<path d="M5059 6099 c-14 -5 -31 -21 -38 -35 -31 -69 10 -132 84 -128 11 1 30
2 43 3 34 2 62 54 52 98 -5 20 -15 42 -23 50 -18 19 -84 25 -118 12z"/>
<path d="M5474 6100 c-27 -11 -54 -53 -54 -83 0 -14 9 -36 21 -51 18 -23 28
-26 79 -26 68 0 100 23 100 71 0 76 -71 120 -146 89z"/>
<path d="M3200 6007 c-82 -104 -88 -111 -130 -162 -62 -75 -70 -85 -98 -123
-55 -76 -145 -182 -153 -182 -5 0 -10 120 -11 266 l-3 266 -67 0 c-38 -1 -73
-1 -78 -1 -7 -1 -9 -212 -8 -628 l3 -628 78 -3 77 -3 0 321 c0 253 3 321 13
318 6 -3 17 -15 23 -27 6 -12 21 -32 33 -45 11 -12 21 -25 21 -29 0 -6 22 -37
150 -208 36 -48 83 -113 105 -144 22 -31 47 -65 55 -76 8 -10 28 -37 45 -59
34 -48 47 -52 140 -48 92 4 93 16 16 121 -33 45 -70 97 -83 115 -38 54 -76
106 -90 122 -22 27 -71 93 -107 145 -19 28 -54 76 -78 108 -23 31 -43 64 -43
73 0 14 49 79 143 188 57 66 149 180 196 241 21 28 48 59 60 69 14 13 21 31
21 58 l0 38 -82 0 -83 0 -65 -83z"/>
<path d="M4375 5773 c-22 -2 -44 -9 -49 -14 -6 -5 -17 -9 -24 -9 -27 0 -102
-71 -127 -121 -20 -39 -25 -63 -25 -126 1 -68 4 -83 28 -117 35 -51 115 -105
215 -146 92 -38 161 -81 184 -116 25 -38 12 -123 -24 -151 -56 -45 -215 -41
-321 9 -35 16 -70 27 -78 24 -9 -3 -14 -20 -14 -45 0 -22 -3 -46 -6 -54 -22
-58 195 -117 358 -96 118 15 191 57 229 132 25 48 36 176 19 236 -15 58 -89
131 -150 150 -25 8 -49 18 -55 23 -5 4 -17 8 -26 8 -29 0 -163 67 -188 94 -29
31 -31 69 -5 122 21 43 57 65 118 71 39 4 64 -3 193 -51 65 -24 74 -16 71 62
l-3 66 -47 23 c-37 18 -68 24 -140 27 -51 2 -111 2 -133 -1z"/>
<path d="M5201 5745 c-122 -43 -195 -113 -257 -250 -27 -57 -28 -67 -28 -220
-1 -163 1 -171 46 -275 22 -50 76 -111 126 -142 53 -33 169 -61 266 -66 96 -4
205 18 299 60 l47 21 0 65 c0 57 -2 64 -17 59 -293 -92 -433 -90 -523 9 -47
52 -56 71 -70 141 -21 103 -48 95 305 96 l310 2 -1 130 c0 154 -15 207 -78
273 -68 72 -155 108 -291 118 -47 4 -76 -1 -134 -21z m244 -145 c65 -32 106
-107 102 -185 l-2 -50 -224 -3 c-131 -1 -229 2 -234 7 -12 12 9 105 35 151 59
104 203 139 323 80z"/>
<path d="M7585 5751 c-59 -9 -148 -40 -207 -73 -41 -23 -43 -25 -43 -72 0 -71
17 -78 97 -38 96 48 144 62 218 62 106 0 160 -32 194 -114 22 -52 22 -162 0
-170 -9 -3 -89 -6 -179 -6 -117 0 -172 -4 -196 -14 -51 -21 -108 -82 -140
-150 -25 -52 -29 -73 -29 -144 0 -47 5 -92 13 -105 84 -151 328 -182 503 -63
48 33 54 33 54 -1 0 -48 11 -54 81 -51 l64 3 1 260 c2 463 -8 538 -83 606 -64
58 -217 89 -348 70z m273 -619 l3 -84 -38 -34 c-64 -59 -121 -86 -193 -91 -57
-4 -70 -2 -100 19 -43 29 -69 79 -70 136 0 37 6 48 48 92 l49 51 149 -3 149
-3 3 -83z"/>
<path d="M3705 5728 c-3 -7 -4 -215 -3 -463 l3 -450 75 0 75 0 0 460 0 460
-73 3 c-52 2 -74 -1 -77 -10z"/>
</g>
</svg>
