<?xml version="1.0" standalone="no"?>
<!DOCTYPE svg PUBLIC "-//W3C//DTD SVG 20010904//EN"
 "http://www.w3.org/TR/2001/REC-SVG-20010904/DTD/svg10.dtd">
<svg version="1.0" xmlns="http://www.w3.org/2000/svg"
 width="1073.000000pt" height="1073.000000pt" viewBox="0 0 1073.000000 1073.000000"
 preserveAspectRatio="xMidYMid meet">
<metadata>
Created by potrace 1.16, written by Peter Selinger 2001-2019
</metadata>
<g transform="translate(0.000000,1073.000000) scale(0.100000,-0.100000)"
fill="#000000" stroke="none">
<path d="M0 5365 l0 -5365 5365 0 5365 0 0 5365 0 5365 -5365 0 -5365 0 0
-5365z m6620 2963 c0 -23 -98 -206 -141 -265 -101 -137 -264 -280 -385 -339
-153 -73 -385 -111 -609 -100 -124 7 -371 39 -539 71 -186 35 -438 38 -581 5
-196 -44 -386 -138 -441 -219 -13 -20 -36 -71 -49 -114 -112 -353 148 -759
605 -942 301 -120 631 -123 1205 -10 208 41 413 67 495 64 103 -5 147 -33 188
-121 60 -127 64 -270 12 -380 -45 -97 -177 -230 -280 -283 -59 -30 -183 -72
-284 -97 -71 -17 -276 -47 -331 -48 -15 0 -10 -9 27 -47 69 -70 92 -129 92
-233 1 -79 -2 -90 -34 -149 -53 -97 -53 -97 -111 -163 -121 -139 -210 -202
-356 -253 -29 -11 -53 -23 -53 -28 0 -5 23 -53 51 -106 52 -98 170 -279 329
-501 90 -127 208 -318 275 -445 86 -165 135 -339 135 -480 0 -224 -109 -521
-334 -913 -42 -74 -87 -155 -99 -180 -21 -47 -107 -142 -127 -142 -5 0 -10 6
-10 13 0 14 47 106 95 187 178 297 271 514 315 731 43 210 12 379 -115 629
-93 185 -157 286 -324 518 -198 274 -329 499 -372 637 l-19 62 -76 27 c-182
65 -303 192 -368 388 -30 87 -37 220 -16 285 35 108 164 241 280 290 l65 28
418 -3 c254 -2 466 1 540 8 186 17 385 67 519 130 82 39 79 274 -5 406 -17 27
-42 49 -72 64 -43 21 -57 22 -149 17 -55 -3 -150 -15 -211 -26 -332 -60 -595
-101 -709 -112 -150 -14 -366 -7 -481 15 -426 83 -757 348 -855 685 -29 99
-25 272 9 369 60 172 246 374 441 479 138 74 274 115 440 134 144 16 280 4
685 -61 171 -28 225 -33 375 -33 173 0 254 9 380 40 87 21 135 43 219 98 78
51 110 94 185 242 54 108 156 219 156 171z m-952 -3224 c19 -13 21 -21 16 -57
l-7 -42 57 53 c44 42 62 53 84 50 23 -3 27 -8 30 -40 3 -37 14 -48 27 -27 13
19 88 69 105 69 29 0 30 -22 4 -145 -20 -92 -23 -120 -13 -131 6 -8 10 -15 8
-17 -37 -21 -74 -37 -85 -37 -19 0 -18 43 2 131 9 39 13 73 10 76 -9 9 -54
-49 -86 -111 -36 -72 -57 -96 -82 -96 -23 0 -23 24 2 119 24 89 24 91 6 91
-22 0 -75 -69 -94 -123 -11 -33 -26 -54 -44 -63 -56 -29 -57 -23 -23 126 10
43 14 93 11 117 -5 36 -2 45 16 58 28 19 28 19 56 -1z m602 -9 c10 -12 10 -24
1 -54 -6 -21 -14 -67 -18 -101 -5 -52 -3 -64 10 -72 27 -15 20 -36 -22 -64
-44 -28 -61 -25 -61 11 0 37 -14 37 -58 0 -22 -19 -45 -35 -51 -35 -14 0 -41
53 -41 81 0 13 7 49 16 81 14 48 26 67 66 103 29 26 60 45 73 45 13 0 27 5 30
10 9 15 41 12 55 -5z m124 0 c19 -19 35 -19 57 1 23 21 47 12 55 -21 8 -34
-19 -75 -50 -75 -35 0 -71 -76 -63 -134 7 -52 -5 -71 -50 -81 -24 -5 -33 -3
-34 7 -2 34 3 98 13 153 6 33 10 76 9 94 0 32 21 71 40 71 4 0 14 -7 23 -15z
m-2630 -3600 c3 -8 -7 -66 -23 -128 -25 -102 -40 -196 -57 -359 -5 -53 -8 -58
-29 -58 -24 0 -24 1 -27 113 l-3 112 -30 -2 c-49 -4 -52 -9 -60 -87 -8 -89
-25 -115 -59 -93 -16 11 -22 26 -24 70 -3 53 -4 56 -22 45 -15 -10 -22 -10
-32 1 -11 10 -7 18 21 41 29 25 38 43 58 121 13 50 22 94 19 96 -15 15 -73
-68 -78 -113 -4 -37 -41 -42 -46 -7 -8 56 101 193 154 193 53 0 64 -44 40
-155 -7 -33 -11 -63 -9 -67 2 -5 21 -8 42 -8 l38 0 6 64 c6 67 38 175 63 214
16 25 49 29 58 7z m231 -12 c28 -136 66 -162 189 -129 40 10 52 19 67 49 10
19 23 38 28 41 16 10 61 -16 61 -36 0 -16 10 -18 123 -18 117 0 147 -7 147
-32 0 -4 -48 -8 -107 -9 -60 0 -126 -3 -147 -7 -38 -7 -41 -10 -57 -64 -21
-72 -52 -238 -45 -245 5 -5 50 59 75 109 10 20 26 35 41 38 14 3 38 14 53 24
41 28 81 13 85 -32 4 -43 -30 -113 -74 -152 -39 -34 -53 -36 -94 -15 -28 14
-30 14 -41 -7 -19 -37 -51 -68 -70 -68 -31 0 -59 48 -59 102 l0 50 -29 -24
c-46 -38 -71 -79 -60 -99 15 -29 10 -48 -16 -65 -21 -14 -30 -15 -52 -5 -20 9
-24 17 -21 40 4 26 -1 31 -40 50 l-45 22 -27 -26 c-34 -33 -69 -30 -89 6 -13
23 -13 36 2 109 18 92 33 116 67 105 20 -6 22 -12 16 -46 -3 -21 -9 -58 -12
-81 l-7 -43 22 19 c11 11 21 23 21 29 0 19 75 110 113 138 48 35 69 36 97 7
29 -31 27 -62 -3 -54 -18 4 -32 -4 -63 -37 -22 -23 -48 -54 -57 -69 -16 -26
-16 -28 2 -38 32 -16 46 -12 75 23 15 17 46 47 69 65 37 29 44 42 59 105 24
100 25 96 -28 86 -84 -16 -139 13 -179 92 -28 55 -34 119 -10 119 8 0 17 -12
20 -27z m2126 -9 c12 -15 7 -87 -18 -231 -4 -25 -1 -32 16 -38 26 -8 28 -25 2
-25 -21 0 -31 -34 -31 -105 0 -85 -11 -135 -31 -135 -40 0 -49 26 -49 136 0
57 -3 104 -6 104 -3 0 -25 -5 -49 -11 -34 -9 -45 -16 -50 -37 -21 -87 -27
-102 -42 -102 -13 0 -15 9 -9 60 6 51 5 60 -9 60 -22 0 -65 48 -65 72 0 29 33
18 40 -12 4 -19 13 -26 38 -28 19 -2 32 1 32 8 0 19 110 212 147 258 36 44 62
52 84 26z m710 -74 c24 -14 24 -37 0 -58 -43 -37 -122 -225 -109 -261 1 -5 23
14 48 43 50 58 107 106 126 106 21 0 24 -30 9 -96 -26 -112 -15 -133 26 -52
25 49 113 136 146 144 29 8 70 -12 78 -37 12 -38 -48 -111 -100 -120 -11 -3
-21 -13 -23 -23 -4 -18 -1 -17 36 5 47 28 140 114 165 153 20 31 33 32 60 9
10 -10 31 -18 46 -18 20 0 30 -8 41 -32 10 -22 22 -33 36 -33 25 0 41 -30 22
-42 -20 -12 -28 -10 -59 22 l-30 29 -30 -42 c-17 -23 -41 -61 -52 -84 -23 -47
-44 -54 -72 -23 -13 15 -16 29 -12 57 4 21 3 33 -1 27 -4 -6 -33 -31 -65 -57
-73 -59 -117 -64 -146 -16 l-19 31 -18 -30 c-33 -56 -86 -60 -113 -8 -12 21
-12 33 -2 67 13 44 6 66 -13 35 -18 -31 -78 -96 -97 -107 -27 -14 -67 8 -74
42 -7 32 -17 36 -35 15 -21 -26 -106 -76 -128 -76 -31 0 -72 45 -72 79 0 21
-9 36 -34 55 -19 14 -37 26 -40 26 -3 0 -27 -36 -52 -80 -47 -80 -63 -92 -90
-65 -22 21 -19 71 6 150 29 86 42 102 76 87 13 -7 24 -16 24 -22 0 -5 15 -9
33 -8 27 3 34 -2 47 -29 19 -41 40 -42 69 -2 27 36 78 69 108 69 24 0 53 -34
53 -62 0 -12 -8 -18 -23 -18 -34 0 -129 -105 -111 -123 8 -8 54 14 112 53 46
31 54 42 68 90 15 51 67 155 96 190 12 15 58 50 66 50 2 0 12 -5 23 -10z
m-1287 -16 c21 -8 20 -28 -3 -73 -53 -99 -95 -351 -59 -351 7 0 35 25 63 55
54 57 75 68 75 37 0 -25 -99 -128 -129 -135 -13 -3 -37 1 -52 9 -27 14 -32 26
-42 104 -2 25 -5 25 -49 13 -9 -3 -25 4 -36 15 l-20 20 -60 -54 c-40 -36 -69
-54 -86 -54 -29 0 -50 31 -41 60 7 23 -7 26 -25 5 -18 -22 -96 -65 -119 -65
-11 0 -29 10 -40 21 l-20 22 -28 -32 c-29 -32 -51 -38 -84 -21 -15 9 -19 22
-19 70 0 33 -4 60 -10 60 -5 0 -20 10 -32 22 l-21 21 -24 -29 c-12 -16 -35
-53 -50 -81 -30 -57 -49 -65 -78 -33 -22 24 -16 84 17 167 29 70 49 85 79 58
11 -11 33 -20 48 -20 20 0 30 -8 41 -32 8 -18 22 -33 30 -33 8 0 22 15 30 33
16 34 36 43 59 28 13 -8 13 -19 -1 -83 -9 -40 -14 -75 -12 -77 8 -9 42 32 47
57 13 62 93 142 143 142 25 0 54 -34 54 -62 0 -12 -8 -18 -24 -18 -28 0 -106
-80 -106 -110 0 -18 3 -18 28 -8 36 16 113 73 190 142 65 58 89 66 135 45 29
-13 50 -68 41 -104 -6 -25 -5 -26 14 -14 22 14 36 42 48 94 11 51 55 149 77
173 22 24 27 25 51 16z"/>
<path d="M4665 5554 c-11 -2 -44 -9 -73 -15 -69 -14 -76 -28 -70 -148 6 -107
28 -182 80 -269 34 -56 120 -152 172 -190 49 -37 59 -30 86 56 28 88 41 114
119 231 68 101 185 225 264 276 32 21 54 42 50 46 -9 8 -596 21 -628 13z"/>
<path d="M5185 5381 c-22 -10 -54 -34 -72 -54 -43 -49 -98 -151 -117 -216 -17
-58 -22 -236 -7 -259 12 -20 76 -25 161 -13 104 14 225 74 267 133 66 93 64
236 -6 338 -60 87 -138 111 -226 71z"/>
</g>
</svg>
