<?xml version="1.0" standalone="no"?>
<!DOCTYPE svg PUBLIC "-//W3C//DTD SVG 20010904//EN"
 "http://www.w3.org/TR/2001/REC-SVG-20010904/DTD/svg10.dtd">
<svg version="1.0" xmlns="http://www.w3.org/2000/svg"
 width="1073.000000pt" height="1073.000000pt" viewBox="0 0 1073.000000 1073.000000"
 preserveAspectRatio="xMidYMid meet">

<g transform="translate(0.000000,1073.000000) scale(0.100000,-0.100000)"
fill="#000000" stroke="none">
<path d="M2642 7672 c-68 -22 -182 -108 -252 -190 -30 -35 -70 -74 -90 -87
-40 -25 -113 -45 -165 -45 -54 0 -69 -33 -88 -203 -21 -175 -21 -169 2 -193
17 -19 25 -20 87 -12 76 9 151 39 176 71 15 19 18 20 23 6 4 -10 -7 -39 -26
-70 -56 -93 -98 -125 -179 -132 -64 -7 -72 -15 -90 -94 -7 -32 -26 -112 -41
-178 -16 -66 -29 -131 -29 -146 0 -14 -4 -39 -10 -55 -22 -66 -50 -405 -50
-606 0 -550 127 -960 340 -1094 48 -30 62 -34 124 -34 72 0 120 17 195 67 30
20 46 23 141 23 153 0 142 -18 191 322 21 150 50 356 64 458 13 102 31 230 39
285 8 55 24 168 35 250 12 83 33 228 47 323 21 136 25 178 16 197 l-12 25
-229 0 c-126 0 -236 -3 -245 -6 -20 -8 -33 -58 -41 -164 -3 -47 -11 -110 -16
-141 -6 -37 -6 -66 1 -83 9 -25 12 -26 89 -26 107 0 107 0 87 -147 -9 -65 -21
-152 -26 -193 -6 -41 -15 -102 -20 -135 -6 -33 -22 -141 -36 -240 -28 -204
-31 -215 -48 -215 -6 0 -17 -5 -24 -12 -32 -32 -147 -41 -183 -15 -76 59 -121
292 -113 592 8 282 41 504 127 836 24 93 112 329 127 339 4 3 13 16 20 30 23
43 74 102 102 116 16 8 56 14 95 14 55 -1 73 -5 94 -23 22 -19 81 -100 125
-173 22 -36 34 1 60 177 29 197 27 262 -10 330 -76 145 -164 233 -246 249 -19
4 -46 10 -60 13 -14 3 -49 -2 -78 -11z"/>
<path d="M6581 7643 c-35 -33 -72 -86 -106 -153 -22 -44 -39 -97 -84 -267 -17
-64 -55 -114 -201 -263 -79 -81 -274 -290 -281 -302 -11 -18 -28 1 -39 45 -9
40 -20 75 -91 302 -17 55 -44 126 -60 157 -26 51 -29 68 -29 152 0 86 -2 97
-24 120 -31 34 -45 33 -57 -4 -6 -16 -13 -30 -16 -30 -3 0 -21 14 -40 31 -38
33 -68 35 -68 4 0 -33 -29 -28 -81 13 -72 58 -123 82 -171 82 -35 0 -49 -6
-83 -38 -27 -27 -40 -47 -40 -66 0 -32 24 -44 48 -23 29 25 61 30 87 13 36
-24 32 -46 -8 -46 -39 0 -55 -23 -59 -85 -3 -36 -6 -40 -31 -43 -16 -2 -35 2
-42 8 -8 7 -22 10 -30 6 -20 -7 -20 -60 0 -76 24 -20 18 -35 -20 -53 -20 -9
-41 -28 -47 -42 -10 -22 -8 -29 18 -56 28 -30 28 -31 10 -45 -26 -18 -28 -18
-77 8 -27 14 -66 23 -115 26 -81 5 -104 -4 -104 -44 0 -20 6 -25 40 -30 60
-10 83 -46 67 -106 -6 -21 -15 -29 -43 -34 -22 -4 -45 -2 -59 6 -29 16 -56 7
-125 -40 -72 -49 -109 -90 -160 -174 -101 -166 -159 -388 -181 -683 -18 -262
16 -670 77 -908 50 -194 110 -363 164 -457 16 -29 37 -66 46 -83 29 -52 102
-142 146 -179 23 -20 71 -50 106 -67 55 -27 71 -31 120 -26 32 2 78 15 105 28
39 19 47 28 47 50 0 32 -9 40 -89 80 -132 66 -282 291 -366 549 -62 192 -106
433 -126 700 -27 370 30 785 141 1016 l49 101 77 6 c135 12 165 9 229 -22 118
-57 222 -178 285 -332 31 -73 46 -99 60 -99 4 0 15 33 24 73 24 105 115 384
130 396 9 8 21 2 45 -19 18 -17 40 -30 49 -30 45 0 114 -97 127 -177 6 -41 5
-44 -47 -100 -29 -32 -74 -80 -99 -108 -117 -128 -184 -199 -298 -312 -67 -68
-124 -123 -127 -123 -3 0 -2 15 2 34 7 39 -25 108 -76 163 -36 38 -61 47 -106
38 -176 -33 -216 -606 -64 -905 31 -61 95 -120 135 -127 33 -5 40 -2 79 39 47
49 70 103 92 213 27 137 14 171 -55 141 -27 -13 -44 -30 -59 -62 -20 -41 -24
-44 -62 -44 -34 0 -42 4 -57 33 -39 71 -52 131 -52 237 0 96 2 109 27 155 15
27 35 51 46 53 17 4 86 -27 86 -38 0 -3 -18 -27 -40 -54 -43 -52 -54 -101 -24
-113 12 -4 37 15 87 68 38 41 137 145 221 231 83 86 162 169 176 185 14 15 77
82 139 148 62 66 122 135 133 153 11 17 25 32 30 32 13 0 3 -114 -23 -270 -11
-63 -22 -148 -26 -187 -6 -73 -6 -73 19 -73 23 0 51 11 185 71 24 10 45 19 49
19 4 0 171 78 264 123 37 19 50 55 65 185 21 176 20 208 -10 228 -33 21 -77
11 -139 -33 -49 -35 -65 -34 -66 7 0 31 -23 40 -102 40 -52 0 -78 4 -78 11 0
12 31 48 164 190 206 219 238 254 266 296 17 24 30 56 30 71 0 15 6 34 13 43
36 47 92 114 178 214 112 129 124 147 109 174 -5 11 -10 28 -10 39 0 26 -44
72 -69 72 -11 0 -33 -12 -50 -27z"/>
<path d="M6725 7484 c-16 -19 -50 -56 -75 -82 -54 -56 -80 -92 -80 -109 0 -23
14 -14 85 53 39 36 80 73 92 83 22 18 26 30 24 69 -1 30 -11 27 -46 -14z"/>
<path d="M3592 7434 c-15 -33 -42 -185 -42 -238 0 -22 -7 -77 -15 -121 -9 -44
-23 -129 -31 -190 -17 -127 -25 -185 -54 -385 -11 -80 -29 -212 -41 -295 -30
-224 -37 -271 -53 -380 -8 -55 -24 -165 -35 -245 -12 -80 -30 -208 -41 -285
-46 -314 -70 -502 -70 -532 0 -52 27 -63 151 -63 145 0 138 -9 169 228 11 87
27 201 35 253 9 52 20 128 25 169 67 498 77 545 136 634 71 106 118 130 151
79 23 -35 21 -136 -7 -299 -11 -66 -27 -173 -36 -239 -8 -66 -17 -133 -20
-150 -2 -16 -11 -84 -20 -150 -8 -66 -22 -163 -30 -215 -8 -52 -17 -120 -20
-150 -3 -30 -12 -87 -20 -127 -14 -75 -21 -403 -9 -458 10 -46 25 -84 62 -160
58 -117 138 -172 228 -158 118 18 245 136 245 228 0 54 -36 259 -50 284 -11
22 -35 28 -45 11 -3 -5 -24 -10 -45 -10 -52 0 -66 23 -78 120 -9 74 7 305 28
390 5 19 16 96 24 170 9 74 23 178 31 230 9 52 22 145 30 205 8 61 22 160 31
220 11 68 17 169 18 265 0 141 -2 163 -28 245 -26 88 -73 170 -122 216 -38 35
-117 38 -180 6 -28 -14 -56 -33 -63 -41 -8 -9 -20 -16 -29 -16 -12 0 -14 12
-8 78 3 42 10 104 15 137 5 33 16 110 25 170 16 115 39 277 58 405 13 92 11
172 -5 182 -7 4 -66 8 -133 8 -120 0 -121 0 -132 -26z"/>
<path d="M6665 7314 c-33 -30 -83 -73 -112 -94 -73 -56 -103 -88 -103 -110 0
-40 56 -48 150 -23 59 16 116 59 149 112 26 43 31 62 31 111 0 59 -1 60 -27
60 -20 -1 -46 -18 -88 -56z"/>
<path d="M7586 7331 c-19 -21 -27 -65 -56 -307 -10 -89 -23 -181 -29 -205 -15
-68 -31 -174 -31 -202 0 -38 -25 -57 -75 -57 -36 0 -47 -4 -57 -22 -20 -39
-63 -337 -53 -375 5 -20 12 -23 50 -23 58 0 70 -20 56 -93 -6 -29 -13 -79 -17
-112 -3 -33 -12 -103 -20 -155 -14 -88 -28 -189 -69 -490 -8 -63 -27 -191 -40
-285 -38 -260 -34 -296 31 -293 16 0 67 0 112 -2 109 -4 119 6 132 116 12 103
28 217 35 246 5 21 30 201 55 393 5 39 17 115 25 170 9 55 22 152 30 215 21
166 36 253 47 273 7 14 22 17 83 17 62 0 76 3 84 19 11 19 41 206 41 253 0 17
5 28 13 28 11 0 14 -27 15 -122 1 -67 6 -185 11 -263 6 -77 15 -248 21 -380 6
-132 15 -310 20 -395 5 -85 12 -249 16 -365 l6 -210 -45 -91 c-72 -146 -128
-195 -184 -159 -19 13 -27 14 -39 4 -17 -14 -48 -82 -68 -148 -8 -25 -23 -68
-35 -94 -29 -68 -27 -130 7 -192 56 -102 163 -121 270 -48 56 39 154 151 187
213 93 180 111 226 257 670 50 151 101 304 113 340 13 36 35 106 50 155 14 50
35 110 45 135 10 25 21 61 25 80 4 19 11 40 15 45 4 6 20 51 35 100 15 50 62
196 105 325 156 475 154 468 142 495 -11 25 -13 25 -130 25 -101 0 -121 -3
-135 -17 -8 -10 -36 -79 -61 -153 -25 -74 -50 -148 -56 -165 -5 -16 -55 -167
-111 -335 -55 -168 -104 -309 -109 -314 -5 -5 -11 1 -14 15 -5 23 -31 503 -43
784 -4 96 -10 147 -20 163 -15 24 -15 24 -288 14 -58 -3 -157 12 -161 23 -3 8
4 83 16 167 11 84 32 232 46 328 27 196 30 250 12 268 -8 8 -51 12 -128 12
-102 0 -119 -2 -134 -19z"/>
<path d="M4935 6596 c-22 -6 -55 -20 -73 -31 -99 -60 -199 -307 -231 -571 -16
-129 -14 -376 4 -548 14 -128 31 -210 87 -416 25 -95 120 -274 191 -360 28
-35 129 -89 166 -90 38 0 103 36 147 82 44 45 114 169 140 243 38 115 66 308
78 539 4 83 2 90 -20 113 -13 13 -24 28 -24 33 0 9 142 80 160 80 13 0 102 43
135 65 17 12 41 26 55 32 14 6 50 22 80 35 30 14 80 35 110 48 30 13 78 34
106 46 28 13 58 24 67 24 9 0 18 4 22 10 3 5 31 17 63 27 31 9 69 25 84 35 14
10 31 18 38 18 6 0 46 18 88 39 75 38 198 91 213 91 4 0 36 -17 70 -38 67 -41
154 -64 204 -55 53 10 103 67 115 133 6 29 8 32 15 16 5 -11 3 -39 -4 -65 -11
-44 -26 -63 -105 -126 -23 -19 -27 -36 -55 -245 -53 -391 -83 -510 -145 -572
-25 -25 -35 -29 -79 -26 -49 3 -50 4 -64 43 -11 31 -11 55 -3 110 6 38 23 158
40 265 43 283 62 457 54 483 -17 56 -56 49 -254 -51 -46 -24 -44 -13 -105
-467 -41 -305 -46 -377 -35 -490 20 -185 39 -240 108 -316 l50 -54 66 2 c66 2
121 24 185 74 28 22 34 18 51 -33 l12 -38 124 0 c146 0 146 0 163 120 14 95
39 274 51 365 5 39 14 104 20 145 5 41 17 131 25 199 8 68 19 140 24 160 6 20
17 99 26 176 9 77 25 196 35 265 10 69 23 166 30 215 7 50 16 106 20 125 7 38
-3 79 -23 92 -7 4 -56 8 -109 8 -93 0 -98 -1 -114 -25 -15 -23 -15 -27 4 -67
38 -78 44 -100 33 -127 -5 -14 -12 -47 -16 -73 -7 -55 -23 -64 -23 -14 0 47
-8 56 -46 56 -22 0 -38 -7 -47 -20 -9 -13 -34 -24 -73 -31 -77 -14 -93 1 -32
31 25 12 48 25 51 30 3 4 30 11 60 15 58 7 85 24 85 55 0 40 -52 179 -76 200
-22 22 -27 22 -66 11 -53 -16 -131 -93 -172 -171 -16 -30 -45 -86 -65 -124
-35 -67 -38 -70 -121 -112 -47 -24 -91 -44 -99 -44 -8 0 -70 -27 -138 -60 -67
-33 -125 -60 -127 -60 -5 0 -155 -69 -251 -115 -38 -19 -82 -37 -98 -40 -15
-4 -30 -11 -33 -16 -3 -5 -13 -9 -22 -9 -9 0 -61 -22 -116 -49 -199 -97 -217
-104 -227 -94 -8 8 -6 19 6 36 22 34 12 130 -17 159 -20 20 -20 20 -55 -14
-32 -31 -34 -36 -29 -85 6 -60 20 -93 41 -93 8 0 15 -9 15 -20 0 -13 -7 -20
-18 -20 -10 0 -50 -16 -90 -34 -39 -19 -74 -31 -77 -27 -2 5 7 21 20 37 28 33
31 52 11 79 -13 18 -15 18 -40 -11 -35 -40 -41 -62 -22 -83 23 -26 12 -43 -47
-71 -45 -22 -52 -29 -55 -58 -4 -43 19 -51 72 -24 22 12 77 36 121 53 44 18
84 36 89 40 15 13 36 11 36 -3 0 -7 -7 -26 -15 -42 -10 -18 -15 -57 -15 -111
0 -46 -5 -107 -11 -137 -52 -256 -99 -367 -174 -416 -76 -48 -121 -39 -200 42
-33 34 -68 81 -79 106 -10 25 -29 68 -41 95 -54 122 -92 312 -101 505 -14 311
42 566 153 689 37 42 43 45 102 49 l62 4 50 -51 c64 -66 105 -131 126 -199 23
-73 47 -85 85 -43 36 40 37 91 4 163 -13 29 -34 75 -46 103 -50 111 -137 219
-205 253 -58 28 -75 31 -120 18z"/>
<path d="M6454 6538 c-10 -16 -43 -232 -44 -285 0 -23 5 -45 11 -49 6 -3 29 3
52 14 23 11 56 25 72 31 25 10 41 34 95 137 82 160 83 158 -68 162 -79 2 -113
-1 -118 -10z"/>
<path d="M5914 5791 c-39 -20 -98 -49 -131 -63 l-61 -26 -15 -89 c-8 -48 -23
-149 -32 -223 -9 -74 -20 -160 -26 -190 -19 -103 -49 -315 -55 -390 -8 -98 -3
-103 120 -108 71 -3 100 -1 123 12 46 23 45 18 98 406 17 127 25 184 61 405
31 200 32 306 0 304 -6 0 -43 -17 -82 -38z"/>
<path d="M5266 4408 c-13 -65 -46 -324 -46 -360 0 -35 38 -20 61 24 l21 42 14
-25 c7 -13 13 -34 14 -46 0 -18 6 -23 24 -23 14 0 28 5 32 11 3 6 -1 72 -11
147 -9 75 -20 162 -23 192 -7 55 -7 55 -44 58 -32 3 -38 0 -42 -20z m41 -195
c-3 -10 -5 -4 -5 12 0 17 2 24 5 18 2 -7 2 -21 0 -30z"/>
<path d="M6345 4398 c-3 -8 -4 -95 -3 -193 l3 -180 50 0 50 0 0 45 c0 39 -3
45 -22 48 -15 2 -25 13 -29 28 -7 28 -4 34 22 38 43 6 44 82 1 88 -34 5 -30
42 6 46 24 3 27 7 27 43 0 21 -3 39 -7 40 -5 0 -27 2 -51 5 -30 4 -44 1 -47
-8z"/>
<path d="M5405 4358 c-3 -13 -4 -93 -3 -178 3 -147 4 -155 23 -155 18 0 20 8
23 63 2 46 7 62 17 62 11 0 15 -12 15 -46 0 -49 14 -84 33 -84 16 0 13 326 -4
346 -7 8 -30 14 -55 14 -37 0 -44 -3 -49 -22z m70 -98 c-3 -6 -10 -10 -16 -10
-10 0 -12 33 -2 44 9 9 26 -22 18 -34z"/>
<path d="M5569 4363 c-10 -11 -15 -55 -17 -145 -5 -173 7 -199 86 -195 43 2
41 77 -3 77 -27 0 -31 12 -34 102 -2 76 9 105 41 110 18 2 24 11 26 36 3 32 3
32 -41 32 -29 0 -49 -6 -58 -17z"/>
<path d="M5702 4347 c-18 -51 -16 -291 3 -307 24 -20 35 -2 35 56 0 47 2 54
20 54 18 0 20 -7 20 -61 0 -57 1 -60 23 -57 22 3 22 5 23 176 l2 172 -24 0
c-22 0 -23 -4 -26 -72 -2 -60 -6 -73 -20 -76 -16 -3 -18 6 -18 72 0 84 -16
102 -38 43z"/>
<path d="M5842 4203 l3 -178 50 0 50 0 0 45 c0 39 -3 45 -25 50 -33 8 -34 44
-2 48 19 3 22 9 22 48 0 41 -2 44 -26 44 -20 0 -25 4 -20 16 3 9 6 20 6 25 0
5 11 9 25 9 22 0 25 4 25 35 l0 35 -55 0 -55 0 2 -177z"/>
<path d="M5965 4358 c-3 -13 -4 -93 -3 -178 3 -147 4 -155 23 -155 18 0 20 8
23 63 2 46 7 62 17 62 11 0 15 -13 15 -49 0 -62 7 -81 31 -81 17 0 18 11 18
158 -1 188 -6 202 -74 202 -38 0 -45 -3 -50 -22z m75 -89 c0 -10 -7 -19 -15
-19 -15 0 -21 31 -9 43 11 10 24 -3 24 -24z"/>
<path d="M6113 4358 c3 -13 13 -54 22 -93 9 -38 19 -108 23 -155 6 -77 9 -85
28 -88 20 -3 22 2 27 70 3 40 14 115 26 167 27 121 27 123 -6 119 -24 -3 -28
-8 -31 -40 -2 -21 -7 -38 -12 -38 -4 0 -12 17 -17 38 -7 31 -13 38 -37 40 -25
3 -28 1 -23 -20z"/>
<path d="M6497 4353 c-33 -64 -28 -283 7 -322 9 -10 16 -30 16 -45 0 -18 7
-30 24 -38 47 -21 78 18 39 48 -17 12 -17 14 -2 41 9 15 19 41 23 57 8 34 17
27 31 -22 11 -37 39 -54 78 -44 30 8 37 45 37 203 0 149 0 150 -22 147 -20 -3
-21 -8 -22 -125 -1 -83 -5 -126 -13 -135 -10 -10 -13 15 -13 125 l0 137 -30 0
c-28 0 -30 -3 -30 -37 l-1 -38 -17 35 c-14 29 -23 35 -54 38 -32 3 -39 -1 -51
-25z m61 -133 c-2 -40 -8 -65 -15 -68 -10 -3 -13 15 -13 66 0 38 3 72 7 76 15
15 24 -15 21 -74z"/>
<path d="M6770 4206 c0 -146 2 -176 14 -176 20 0 28 76 24 225 -3 105 -5 120
-20 123 -17 3 -18 -10 -18 -172z"/>
<path d="M6838 4230 c-1 -82 -2 -162 -2 -177 -1 -23 3 -28 24 -28 24 0 25 3
28 62 2 51 6 63 22 68 58 19 81 126 40 193 -18 28 -25 32 -65 32 l-45 0 -2
-150z m72 40 c0 -11 -4 -20 -9 -20 -14 0 -23 18 -16 30 10 17 25 11 25 -10z"/>
<path d="M6980 4201 c0 -174 1 -181 20 -181 25 0 34 35 27 103 -5 48 1 46 17
-5 9 -29 23 -20 40 25 l16 42 -1 -55 c-2 -99 0 -110 19 -110 10 0 23 5 30 12
9 9 12 9 12 -1 0 -8 14 -11 47 -9 l47 3 3 42 c2 38 0 42 -27 52 -37 12 -39 38
-4 51 22 9 25 15 22 47 -2 31 -7 39 -26 41 -32 5 -26 44 8 52 20 5 25 12 25
35 0 29 -1 30 -50 30 -43 0 -50 -3 -51 -20 -2 -41 -4 -48 -11 -41 -5 4 -8 18
-8 29 0 15 -6 22 -20 22 -16 0 -23 -12 -35 -57 -15 -61 -27 -73 -34 -35 -21
100 -22 102 -44 105 l-22 3 0 -180z"/>
<path d="M7277 4373 c-2 -4 -4 -84 -3 -178 1 -163 2 -170 21 -170 17 0 20 8
23 58 2 31 6 57 10 57 5 0 16 -25 27 -56 18 -53 37 -75 53 -60 4 4 6 64 4 134
-3 133 4 166 28 137 9 -11 14 -51 14 -128 1 -111 8 -141 29 -134 13 4 16 25
23 151 4 73 10 103 21 111 9 7 13 23 11 40 -3 26 -7 30 -34 31 -17 1 -37 5
-44 9 -8 5 -18 2 -25 -9 -11 -14 -13 -15 -19 -1 -3 8 -14 15 -25 15 -24 0 -35
-42 -26 -93 12 -62 -12 -49 -36 20 -22 62 -41 85 -52 66z m93 -153 c0 -5 -5
-10 -11 -10 -5 0 -7 5 -4 10 3 6 8 10 11 10 2 0 4 -4 4 -10z"/>
</g>
</svg>
