<?xml version="1.0" standalone="no"?>
<!DOCTYPE svg PUBLIC "-//W3C//DTD SVG 20010904//EN"
 "http://www.w3.org/TR/2001/REC-SVG-20010904/DTD/svg10.dtd">
<svg version="1.0" xmlns="http://www.w3.org/2000/svg"
 width="1073.000000pt" height="1073.000000pt" viewBox="0 0 1073.000000 1073.000000"
 preserveAspectRatio="xMidYMid meet">
<metadata>
Created by potrace 1.16, written by Peter Selinger 2001-2019
</metadata>
<g transform="translate(0.000000,1073.000000) scale(0.100000,-0.100000)"
fill="#000000" stroke="none">
<path d="M0 5365 l0 -5365 5365 0 5365 0 0 5365 0 5365 -5365 0 -5365 0 0
-5365z m5430 4645 c28 -80 62 -176 75 -215 13 -38 38 -108 55 -155 17 -47 39
-110 49 -140 11 -30 41 -119 69 -197 27 -78 47 -144 44 -147 -3 -3 -56 -6
-119 -6 l-113 0 0 -151 0 -152 125 -121 125 -121 0 -1010 -1 -1010 -37 40
c-39 43 -62 70 -149 171 l-53 62 0 804 0 805 -67 67 -68 67 -62 -64 -63 -65 0
-868 0 -869 250 -250 250 -249 0 -1004 0 -1004 -28 -26 c-27 -26 -246 -230
-306 -285 -16 -15 -33 -27 -39 -27 -5 0 -68 57 -139 128 -72 70 -152 148 -179
175 l-49 47 0 1005 c0 553 3 1005 8 1005 4 -1 24 -22 44 -48 21 -26 55 -65 75
-87 21 -22 55 -61 76 -86 l37 -46 0 -804 0 -803 57 -58 c32 -32 62 -58 68 -58
5 0 37 26 70 58 l60 57 3 864 2 865 -250 251 -250 251 0 1009 0 1010 43 38
c23 22 77 73 120 114 l78 74 0 147 0 147 -115 3 c-124 3 -127 5 -106 54 5 13
52 147 105 298 52 151 106 304 119 340 13 36 40 112 61 170 53 153 57 162 66
153 4 -4 31 -73 59 -153z m-607 -3964 c1 -949 -1 -1726 -5 -1726 -10 0 -184
180 -221 230 -47 63 -84 132 -118 220 -60 154 -59 122 -59 1514 l0 1271 -331
338 c-182 185 -335 337 -340 337 -5 0 -136 -125 -291 -277 -906 -892 -846
-835 -928 -890 -70 -47 -208 -109 -285 -128 -71 -18 -337 -35 -388 -25 -26 5
32 65 935 968 l963 962 533 -533 533 -534 2 -1727z m3945 866 c-163 -3 -270
13 -382 58 -66 26 -155 71 -180 91 -93 73 -190 165 -511 480 -665 654 -696
684 -707 688 -6 2 -78 -66 -160 -150 -82 -85 -230 -236 -329 -336 l-179 -182
0 -1253 c0 -1042 -3 -1269 -15 -1348 -22 -144 -70 -268 -148 -384 -40 -60
-223 -256 -238 -256 -5 0 -9 775 -9 1722 l0 1723 537 537 538 538 963 -962
962 -963 -142 -3z m-4726 891 l288 -288 0 -1352 c0 -744 -3 -1353 -6 -1353
-12 0 -167 167 -219 235 -89 119 -146 252 -170 399 -12 75 -15 245 -15 974 l0
884 -72 83 c-40 46 -81 86 -90 90 -13 4 -92 -70 -320 -298 -326 -327 -384
-374 -541 -440 -133 -55 -250 -77 -422 -77 -80 0 -145 3 -145 6 0 8 1412 1424
1420 1424 3 0 134 -129 292 -287z m4219 -1141 c-207 -4 -327 24 -506 115 -103
52 -170 112 -480 422 -154 155 -285 280 -292 279 -6 -2 -45 -40 -87 -86 -67
-72 -76 -87 -76 -120 2 -658 -9 -1799 -19 -1846 -25 -123 -75 -244 -150 -356
-37 -56 -230 -264 -238 -256 -3 2 -4 612 -4 1354 l1 1351 287 286 286 287 714
-714 713 -713 -149 -3z m-4487 -3515 c82 -161 188 -368 236 -462 48 -93 156
-305 240 -470 84 -165 168 -328 187 -363 50 -94 52 -92 -81 -92 -93 0 -116 3
-127 16 -8 9 -60 105 -116 213 l-101 196 -469 3 -468 2 -105 -201 c-58 -111
-111 -208 -118 -215 -15 -16 -227 -21 -236 -6 -3 5 10 37 28 73 127 249 341
667 401 784 40 77 130 253 200 390 202 395 215 419 224 425 5 3 42 4 83 2 l74
-3 148 -292z m2254 273 c62 -28 75 -65 76 -215 l1 -120 -60 -12 c-32 -6 -82
-13 -110 -15 l-50 -3 -3 93 -3 92 -507 -2 -507 -3 0 -245 0 -245 575 -5 c554
-5 576 -6 610 -25 21 -12 44 -39 58 -65 21 -43 22 -52 22 -373 0 -354 -5 -403
-49 -450 -59 -65 -27 -62 -689 -65 -390 -2 -623 1 -660 8 -113 20 -133 58
-140 263 -2 75 -3 137 -1 137 2 0 42 7 89 15 47 8 97 15 113 15 l27 0 0 -115
0 -115 540 0 540 0 -2 283 -3 282 -570 5 c-559 5 -571 5 -610 27 -75 39 -78
57 -83 388 -4 316 3 393 41 433 47 51 39 50 697 51 589 1 617 0 658 -19z
m1353 -188 c59 -114 170 -331 247 -482 77 -151 169 -331 204 -400 138 -265
288 -567 288 -578 0 -9 -33 -12 -114 -12 -131 0 -120 -7 -186 120 -18 36 -45
88 -60 115 -15 28 -44 83 -64 123 l-37 72 -467 0 -467 0 -51 -98 c-128 -246
-167 -318 -178 -324 -6 -4 -59 -8 -118 -8 -105 0 -130 7 -110 33 5 7 87 165
182 352 168 331 282 554 420 820 37 72 106 208 154 303 l87 172 82 0 82 0 106
-208z m-3921 -1977 c37 -19 90 -84 90 -109 0 -3 -23 -6 -51 -6 -40 0 -58 5
-81 25 -39 33 -80 32 -119 -3 -27 -24 -31 -34 -31 -79 1 -63 13 -88 52 -108
41 -21 64 -19 98 10 22 19 41 25 75 25 25 0 48 -4 51 -9 9 -13 -35 -73 -71
-97 -97 -65 -252 -16 -294 93 -14 37 -11 140 5 171 49 93 181 134 276 87z
m2308 -4 c67 -34 102 -95 102 -175 0 -44 -25 -126 -39 -126 -3 0 -12 -9 -19
-20 -11 -18 -8 -26 23 -64 19 -24 35 -46 35 -50 0 -3 -24 -6 -54 -6 -49 0 -57
3 -76 30 -18 25 -28 30 -63 30 -63 0 -140 40 -173 90 -42 63 -46 153 -10 214
57 98 170 130 274 77z m-3122 -17 c22 -53 124 -337 124 -346 0 -5 -22 -8 -48
-8 -45 0 -49 2 -63 33 -14 31 -16 32 -82 35 l-68 3 -14 -36 c-14 -33 -18 -35
-60 -35 -24 0 -46 3 -48 8 -3 4 5 34 18 67 13 33 35 94 50 135 15 41 36 99 47
128 l20 52 55 0 c53 0 54 -1 69 -36z m409 22 c80 -34 87 -160 10 -210 l-25
-17 26 -47 c15 -26 33 -56 40 -67 22 -31 17 -36 -38 -33 l-52 3 -41 69 c-22
38 -45 69 -50 70 -6 1 -11 -31 -13 -71 l-3 -73 -44 0 -45 0 0 195 0 195 100 0
c64 0 113 -5 135 -14z m653 -63 l3 -73 69 0 69 0 3 73 3 72 48 3 47 3 0 -196
0 -196 -47 3 -48 3 -3 78 -3 77 -69 0 -69 0 -3 -77 -3 -78 -47 -3 -48 -3 0
196 0 196 48 -3 47 -3 3 -72z m550 40 c4 -37 -5 -41 -93 -45 -44 -3 -50 -6
-53 -26 -6 -38 14 -52 72 -49 l51 2 3 -37 3 -37 -63 -3 -63 -3 -3 -37 -3 -37
73 -3 73 -3 0 -35 0 -35 -117 -3 -118 -3 0 196 0 196 118 -3 117 -3 3 -32z
m302 19 c22 -10 42 -32 54 -55 16 -33 17 -45 7 -78 -7 -22 -24 -48 -41 -61
-17 -12 -30 -27 -30 -33 0 -6 16 -37 35 -69 19 -32 35 -63 35 -68 0 -5 -23 -8
-51 -6 l-52 3 -40 72 c-22 40 -44 70 -49 67 -4 -3 -8 -36 -8 -75 l0 -69 -50 0
-50 0 0 195 0 195 103 0 c77 0 111 -4 137 -18z m238 -53 c17 -39 36 -69 42
-67 6 2 26 33 43 68 l32 65 53 3 c28 2 52 1 52 -2 0 -2 -28 -58 -62 -123 -56
-104 -64 -126 -68 -188 l-5 -70 -47 -3 -48 -3 0 66 c0 62 -4 74 -65 190 -36
68 -65 126 -65 129 0 3 24 6 53 6 l53 0 32 -71z m620 34 c-3 -41 3 -39 -111
-42 -26 -1 -28 -3 -25 -38 3 -38 3 -38 48 -39 70 -2 70 -1 70 -39 l0 -35 -60
0 -60 0 0 -40 0 -39 68 -3 67 -3 3 -37 3 -38 -120 0 -121 0 0 195 0 195 121 0
120 0 -3 -37z m602 -106 c4 -122 7 -140 24 -153 27 -19 49 -18 79 7 26 20 26
23 29 152 l3 132 48 3 49 3 -4 -148 c-3 -137 -5 -150 -27 -182 -27 -37 -90
-70 -136 -71 -41 0 -114 38 -139 73 -19 25 -21 46 -24 178 l-3 150 48 -3 48
-3 5 -138z m392 133 c2 -5 2 -93 0 -195 l-3 -185 -44 0 -45 0 0 195 0 195 44
0 c24 0 46 -4 48 -10z m303 -4 c80 -34 88 -168 11 -216 -11 -7 -48 -16 -81
-19 l-60 -6 -3 -67 -3 -68 -49 0 -50 0 0 188 c0 104 3 192 7 195 13 13 193 7
228 -7z m273 -85 c23 -55 44 -111 48 -125 3 -14 11 -26 18 -26 6 0 33 56 60
125 l48 125 59 0 59 0 0 -195 0 -195 -50 0 -50 0 0 102 c0 59 -4 98 -9 92 -5
-5 -23 -51 -41 -102 l-33 -93 -41 3 -41 3 -35 92 c-19 50 -38 95 -43 99 -4 4
-7 -39 -7 -95 l0 -102 -47 3 -48 3 -3 193 -2 192 58 0 59 0 41 -99z m597 59
l0 -35 -57 -1 c-73 -2 -88 -8 -88 -37 0 -32 17 -44 60 -41 58 5 72 -3 68 -39
-3 -31 -4 -32 -63 -37 l-59 -5 -4 -37 -3 -37 73 -3 73 -3 0 -35 0 -35 -117 -3
-118 -3 0 196 0 196 118 -3 117 -3 0 -35z m167 26 c7 -8 40 -57 73 -109 33
-53 63 -96 67 -96 4 -1 9 47 10 107 l3 107 48 3 47 3 0 -195 0 -196 -50 0 -51
0 -71 110 c-39 60 -75 107 -80 104 -4 -3 -8 -52 -8 -110 l0 -105 -47 3 -48 3
-3 180 c-1 98 0 185 2 192 7 18 91 17 108 -1z m596 -23 c-3 -38 -3 -38 -50
-41 l-47 -3 -3 -152 -3 -152 -45 0 -45 0 -3 153 c-2 136 -4 152 -20 153 -9 0
-30 2 -47 2 -27 2 -30 6 -33 40 l-3 37 151 0 151 0 -3 -37z"/>
<path d="M3533 3098 c-22 -27 -352 -696 -346 -702 10 -9 701 -7 707 2 4 7
-334 694 -349 710 -1 1 -7 -3 -12 -10z"/>
<path d="M7008 2756 c-97 -195 -174 -357 -171 -360 11 -11 713 -7 713 4 0 14
-353 710 -360 710 -3 0 -85 -159 -182 -354z"/>
<path d="M5599 1161 c-24 -24 -29 -38 -29 -76 0 -112 94 -163 166 -91 27 27
34 42 34 74 0 57 -14 89 -49 107 -47 24 -88 19 -122 -14z"/>
</g>
</svg>
