<?xml version="1.0" standalone="no"?>
<!DOCTYPE svg PUBLIC "-//W3C//DTD SVG 20010904//EN"
 "http://www.w3.org/TR/2001/REC-SVG-20010904/DTD/svg10.dtd">
<svg version="1.0" xmlns="http://www.w3.org/2000/svg"
 width="2778.000000pt" height="2778.000000pt" viewBox="0 0 2778.000000 2778.000000"
 preserveAspectRatio="xMidYMid meet">
<metadata>
Created by potrace 1.16, written by Peter Selinger 2001-2019
</metadata>
<g transform="translate(0.000000,2778.000000) scale(0.100000,-0.100000)"
fill="#000000" stroke="none">
<path d="M6593 17878 c-13 -6 -23 -14 -23 -18 0 -4 -16 -25 -35 -46 -22 -24
-35 -47 -34 -63 l1 -26 8 26 c10 34 88 115 120 124 21 6 20 4 -7 -14 -18 -11
-44 -38 -57 -60 -14 -22 -30 -42 -36 -46 -5 -3 -10 -14 -11 -23 0 -9 -18 -42
-39 -72 -22 -30 -51 -71 -65 -91 -14 -20 -35 -74 -47 -122 -20 -83 -20 -88 -4
-129 l17 -43 -50 -45 c-28 -25 -64 -69 -80 -98 -39 -66 -39 -76 -2 -26 38 51
139 149 146 142 3 -3 -13 -54 -35 -114 -45 -118 -52 -166 -29 -189 12 -12 14
-8 11 33 -3 34 5 71 29 137 18 50 35 82 37 72 4 -20 -13 -77 -40 -131 -15 -30
-18 -49 -13 -83 7 -51 20 -49 17 2 -2 19 5 49 15 67 28 53 43 101 43 140 0 20
5 40 10 43 7 5 10 -19 9 -71 -1 -48 2 -79 9 -82 7 -2 7 -14 1 -35 -16 -58 -7
-63 11 -7 11 30 19 48 19 40 1 -22 -16 -122 -25 -144 -5 -14 -4 -17 4 -12 20
12 36 -37 22 -65 l-13 -24 25 23 c13 12 26 20 29 18 2 -3 3 14 1 37 l-3 42 37
-40 c33 -35 34 -36 10 -5 -57 75 -59 80 -64 163 -10 165 -6 230 17 305 21 71
23 74 68 93 41 17 53 18 102 8 31 -6 66 -20 79 -32 22 -21 32 -11 10 11 -6 6
-9 15 -5 19 12 11 31 -14 49 -65 l18 -47 -6 45 -5 45 20 -25 c10 -13 25 -41
32 -62 7 -21 15 -34 19 -29 3 6 14 -45 23 -112 16 -111 16 -127 2 -174 -18
-60 -13 -80 39 -142 47 -56 59 -79 53 -101 -3 -13 0 -17 10 -13 11 4 13 14 9
36 -3 16 -6 36 -6 43 0 8 -16 32 -36 54 -39 43 -40 50 -36 164 l2 59 23 -24
c13 -13 36 -33 51 -44 24 -17 27 -25 21 -45 -4 -14 -20 -36 -35 -50 -23 -21
-24 -26 -9 -26 9 0 16 4 13 7 -2 4 1 11 7 14 6 4 19 21 30 39 11 18 19 24 19
15 0 -9 -9 -29 -21 -45 l-21 -29 26 28 c40 43 33 72 -36 141 -26 27 -38 47
-38 67 0 37 20 38 21 2 2 -27 2 -27 6 -4 3 15 -1 29 -10 36 -13 9 -15 36 -14
151 2 123 0 144 -19 184 -12 25 -31 53 -42 64 -15 13 -20 26 -16 46 4 15 1 31
-5 34 -6 4 -8 18 -5 31 4 18 -5 33 -43 73 -26 27 -62 57 -80 66 -37 19 -165
21 -200 4z"/>
<path d="M6438 16563 c-22 -4 -28 -12 -42 -61 -9 -31 -14 -45 -12 -29 3 23 0
27 -20 27 -13 0 -23 -3 -22 -7 1 -5 -8 -34 -20 -66 -12 -32 -20 -62 -17 -67 3
-5 -18 -45 -46 -90 -38 -60 -49 -84 -40 -90 9 -5 7 -9 -6 -12 -22 -6 -43 -66
-43 -122 0 -52 23 -91 70 -119 22 -13 38 -26 35 -29 -3 -3 1 -8 10 -11 8 -4
15 -1 15 5 0 7 13 8 38 5 20 -3 102 0 181 6 l143 12 24 -28 c29 -34 24 -47
-19 -47 -39 -1 -165 -25 -174 -33 -10 -11 19 -38 34 -33 8 3 11 1 8 -4 -8 -13
-3 -13 32 1 15 6 65 13 110 15 l81 5 25 -33 26 -32 -69 -17 c-69 -18 -174 -59
-167 -65 2 -2 30 5 62 16 60 21 122 28 80 10 -13 -6 -4 -7 25 -2 25 3 64 6 87
7 24 0 39 4 35 10 -3 6 2 3 12 -5 10 -8 24 -15 32 -16 21 -3 67 -39 108 -85
78 -86 125 -238 112 -363 -4 -41 -3 -56 4 -46 7 10 10 -12 10 -73 0 -49 5 -98
11 -110 10 -21 10 -21 -5 -3 -14 17 -16 17 -16 4 0 -9 4 -28 10 -43 5 -14 28
-115 50 -223 33 -163 39 -210 33 -265 -5 -55 -8 -65 -19 -56 -8 6 -12 14 -10
18 2 3 0 15 -5 26 -7 19 -8 19 -8 -2 -2 -43 -20 -23 -31 35 -35 169 -105 436
-132 499 -37 91 -80 150 -121 169 l-32 14 30 -1 c57 -2 60 -1 40 21 -10 11
-21 17 -24 12 -8 -12 -61 -24 -61 -15 1 20 18 33 36 28 12 -4 9 -1 -6 9 -23
14 -29 12 -87 -20 -62 -35 -63 -35 -63 -12 0 19 -2 20 -10 8 -5 -8 -10 -31
-10 -50 l0 -34 43 41 c40 38 76 63 93 63 5 0 3 -5 -3 -11 -6 -6 -9 -17 -7 -24
3 -7 -8 -37 -25 -66 -39 -72 -49 -111 -61 -259 -6 -69 -17 -163 -25 -210 -8
-50 -11 -99 -6 -120 6 -30 8 -24 14 45 9 118 81 454 94 441 3 -3 0 -20 -7 -38
-17 -48 -20 -323 -4 -463 7 -66 13 -163 13 -215 l1 -95 -35 -28 c-19 -15 -40
-38 -46 -50 -8 -14 2 -8 25 16 20 20 40 37 45 37 13 0 49 -43 60 -72 7 -19 7
-37 0 -57 -6 -17 -9 -38 -6 -48 3 -13 5 -11 6 7 1 14 8 36 15 49 13 23 14 23
20 5 3 -11 2 -44 -4 -74 -12 -65 -12 -63 0 -55 6 3 10 -1 10 -10 0 -62 99
-261 146 -291 22 -15 26 -15 51 2 l28 18 -16 -24 c-27 -41 -45 -47 -81 -26
l-33 19 24 -26 c27 -30 47 -34 70 -13 14 13 16 10 12 -30 -3 -42 -1 -45 28
-55 27 -9 30 -15 25 -37 -4 -21 -3 -24 5 -12 6 8 11 22 11 30 0 8 5 22 10 30
9 13 13 11 31 -10 11 -14 17 -18 13 -10 -17 35 -36 49 -54 40 -30 -16 -52 10
-48 55 3 36 6 40 30 40 14 -1 24 3 22 7 -3 4 -12 8 -20 8 -8 0 -14 5 -14 10 0
15 26 12 40 -5 13 -16 42 -65 58 -100 5 -11 18 -47 28 -80 9 -33 29 -79 42
-102 13 -24 22 -43 19 -43 -3 0 -20 25 -37 55 -46 81 -46 67 0 -25 22 -45 44
-78 49 -76 5 3 11 -8 15 -26 15 -74 17 -6 5 181 -9 142 -16 200 -24 197 -7 -2
-18 29 -29 87 -24 128 -95 409 -106 422 -6 7 -7 14 -4 17 5 6 -10 77 -23 108
-4 8 -7 22 -8 30 -4 50 -19 110 -25 100 -5 -8 -9 -5 -13 9 -4 16 0 21 13 21
11 0 23 -6 27 -13 8 -12 27 -27 83 -63 16 -10 13 -6 -8 12 -26 23 -32 37 -32
67 0 21 5 37 11 37 8 0 10 20 6 68 -3 37 -2 90 2 117 l7 50 7 -45 c4 -25 19
-124 33 -220 14 -96 25 -197 24 -225 -3 -60 -3 -62 7 -190 6 -78 9 -91 13 -60
l6 40 15 -65 c10 -41 12 -69 6 -75 -6 -7 -11 -6 -14 2 -6 16 -33 -8 -33 -29 0
-10 3 -9 11 2 8 12 9 8 5 -16 -2 -16 1 -64 8 -105 l14 -74 3 50 4 50 55 7 c30
4 124 14 207 22 104 10 167 21 198 35 47 21 57 36 28 44 -10 3 -5 5 11 4 26
-2 31 2 36 28 3 17 3 44 -1 60 -4 17 -7 24 -8 18 -2 -20 -14 -16 -62 19 -24
18 -48 33 -54 33 -5 0 -10 7 -10 15 -1 16 -67 131 -73 126 -9 -10 75 -154 115
-197 45 -48 45 -49 19 -49 -30 0 -71 40 -112 108 -15 24 -29 41 -31 38 -8 -7
41 -87 66 -110 31 -28 26 -35 -22 -34 -24 0 -53 -2 -64 -6 -16 -5 -24 2 -44
38 -13 25 -25 43 -27 41 -2 -1 6 -21 18 -44 l20 -41 -25 0 c-22 0 -30 9 -51
56 -76 173 -174 623 -204 944 -6 63 -18 135 -27 158 -13 35 -14 45 -3 52 10 6
11 29 4 106 -4 55 -7 133 -7 174 1 72 1 71 -9 -28 -6 -57 -13 -100 -17 -95 -4
4 -13 44 -20 88 -16 99 -59 219 -99 277 -58 83 -220 218 -262 218 -10 0 -6 9
13 27 21 21 29 25 39 15 8 -8 8 -12 1 -12 -6 0 -14 -8 -17 -17 -6 -15 -4 -15
14 2 18 16 23 17 46 4 48 -25 115 -91 165 -162 57 -82 63 -82 15 1 -19 32 -67
89 -106 125 -39 37 -67 67 -62 67 23 0 252 -260 252 -287 0 -21 18 -14 26 10
7 21 8 21 20 -8 18 -42 3 -135 -17 -104 -6 10 -9 8 -9 -9 l0 -24 29 24 c27 21
53 60 56 83 0 6 6 9 13 8 7 -2 11 1 9 6 -1 6 23 42 53 82 42 56 56 68 59 53 5
-29 22 -46 40 -39 8 3 12 3 8 -1 -4 -4 0 -15 9 -25 15 -17 15 -21 -14 -53 -35
-40 -50 -78 -33 -84 7 -2 8 -10 2 -20 -5 -9 -17 -53 -26 -97 -21 -96 -24 -103
-41 -81 -10 15 -13 5 -18 -61 -3 -43 -10 -106 -14 -140 -5 -39 -4 -64 2 -66 6
-2 5 -16 -2 -37 -7 -19 -8 -38 -3 -44 4 -6 14 -40 20 -76 14 -71 80 -284 87
-278 2 3 -1 19 -6 38 -5 19 -8 36 -5 38 6 6 25 -44 32 -83 4 -23 2 -27 -6 -15
-17 24 -13 6 14 -55 14 -32 37 -94 50 -139 13 -44 24 -76 25 -71 0 6 20 -32
45 -82 49 -103 118 -200 168 -235 17 -12 38 -29 45 -38 10 -13 11 -13 7 0 -2
8 -20 128 -40 265 -52 365 -79 538 -83 525 -2 -6 5 -71 17 -143 27 -171 61
-409 61 -424 0 -36 -67 45 -76 92 -4 20 -52 104 -57 99 -3 -3 -5 1 -4 8 1 31
-4 49 -12 44 -5 -4 -7 4 -3 16 3 13 1 19 -5 15 -7 -5 -9 1 -5 15 3 13 1 19 -5
15 -6 -4 -8 4 -5 20 4 19 2 24 -8 18 -9 -5 -11 -4 -6 3 10 17 -4 83 -16 76 -6
-4 -8 1 -4 12 3 11 -3 71 -13 134 -14 82 -19 156 -18 260 2 137 4 149 31 208
16 34 35 62 42 62 19 0 19 -4 -22 251 -26 165 -38 278 -44 429 -7 150 -15 226
-30 284 -11 44 -21 80 -23 81 -1 2 -11 5 -22 9 -16 5 -25 -3 -47 -42 -25 -44
-47 -122 -35 -122 3 0 17 4 31 10 21 8 29 6 46 -12 26 -28 18 -37 -30 -31 -48
7 -49 0 -21 -94 12 -40 17 -78 14 -108 -5 -41 -11 -49 -51 -77 -25 -17 -51
-31 -58 -31 -7 0 -11 -4 -9 -8 3 -4 -2 -10 -11 -13 -15 -6 -16 0 -10 51 3 32
8 85 11 118 2 33 10 122 16 198 7 76 10 140 7 142 -2 3 -15 -111 -27 -253 -13
-141 -27 -264 -32 -273 -20 -40 -111 -29 -198 23 l-36 21 43 -44 c73 -77 46
-66 -37 14 -72 71 -90 82 -115 78 -5 -1 -12 3 -16 10 -9 13 -87 43 -142 53
-29 5 -36 11 -32 24 2 9 -2 4 -9 -12 -14 -28 -14 -28 -28 -9 -12 18 -21 19
-69 13 l-55 -8 -90 93 c-49 50 -79 78 -65 61 13 -17 47 -55 74 -83 28 -29 46
-56 42 -60 -4 -4 -64 -8 -134 -8 -153 0 -182 12 -222 90 -16 31 -32 49 -40 47
-12 -3 -13 -1 -2 9 6 7 12 17 12 22 0 4 -6 5 -12 2 -7 -4 3 8 22 26 19 18 43
49 54 68 10 20 32 53 48 74 24 30 37 37 66 39 36 1 36 1 6 5 -27 4 -31 7 -26
26 3 12 11 27 18 32 19 16 67 105 56 105 -5 0 -13 -11 -16 -25 -4 -14 -14 -25
-22 -25 -11 0 -14 5 -10 16 3 9 6 23 6 32 0 9 11 22 24 28 21 10 23 9 18 -4
-4 -10 -1 -13 7 -8 7 5 10 14 7 21 -3 8 0 16 7 19 14 5 4 5 -35 -1z m422 -744
c0 -4 -6 -12 -14 -16 -12 -7 -12 -12 0 -38 13 -28 14 -28 9 -4 -7 38 20 59 62
47 46 -12 156 -98 164 -128 10 -39 80 -135 95 -132 9 2 12 -3 8 -12 -3 -8 1
-37 10 -63 31 -97 70 -417 47 -383 -14 20 -14 -48 0 -217 10 -115 6 -234 -7
-220 -3 2 -13 123 -24 268 -38 501 -55 568 -182 697 -49 50 -159 118 -171 106
-12 -13 -46 9 -71 44 -37 54 -34 62 24 61 28 -1 50 -5 50 -10z m79 -898 c24
-17 88 -127 79 -136 -2 -2 -16 21 -32 51 -36 69 -62 86 -87 55 -33 -41 -35
-132 -13 -618 4 -81 3 -143 -2 -143 -5 0 -16 11 -25 23 -13 18 -17 70 -23 318
-8 304 -1 398 30 447 18 27 38 28 73 3z m94 -631 c66 -73 139 -224 144 -297 7
-87 6 -113 0 -119 -3 -4 -23 2 -44 13 -71 36 -124 191 -70 201 22 4 62 -31 84
-71 8 -16 17 -27 19 -24 8 8 -65 125 -88 142 -13 8 -33 15 -45 15 -19 0 -25 9
-37 53 -20 73 -28 137 -17 137 5 0 29 -22 54 -50z"/>
<path d="M5993 16398 c-17 -18 -36 -51 -43 -73 -12 -39 -267 -782 -350 -1020
-23 -66 -64 -183 -90 -260 -26 -77 -159 -461 -294 -854 -135 -392 -246 -723
-246 -734 0 -33 79 -99 181 -149 52 -27 101 -48 109 -48 8 1 2 7 -15 15 l-30
13 55 3 c119 7 206 -9 182 -33 -8 -8 -18 -9 -36 0 -15 7 -35 8 -53 2 -26 -8
-25 -8 15 -9 25 -1 41 -5 37 -11 -6 -10 -48 -5 -99 11 -16 5 -31 7 -34 5 -2
-3 26 -14 63 -25 71 -22 99 -27 77 -12 -9 5 1 10 30 14 24 3 63 9 87 13 39 6
44 5 38 -10 -6 -15 -4 -15 24 -1 43 23 52 15 29 -22 -13 -23 -27 -33 -44 -33
-25 0 -43 -26 -23 -33 8 -3 6 -11 -7 -25 -19 -22 -143 -69 -153 -58 -3 3 0 26
7 51 l13 45 61 2 61 2 -55 3 c-30 3 -57 8 -60 14 -4 5 -39 -98 -80 -229 -40
-130 -86 -275 -102 -322 -15 -47 -28 -89 -27 -95 0 -5 9 15 20 45 10 30 23 58
28 63 15 15 147 -11 271 -54 273 -92 415 -70 668 105 60 42 113 76 116 76 3 0
6 -10 6 -22 1 -21 2 -21 13 4 7 15 37 45 68 67 60 43 94 82 128 148 11 23 30
47 41 53 17 9 20 7 26 -15 3 -14 4 -31 1 -39 -4 -10 2 -16 15 -18 12 -2 23
-10 24 -18 11 -49 33 -112 33 -94 1 35 -29 123 -45 132 -25 14 -9 45 55 109
31 32 71 76 89 98 l31 40 1 -35 c0 -19 -4 -62 -9 -95 -18 -118 -22 -181 -10
-165 13 18 4 -61 -18 -165 -8 -38 -16 -115 -18 -170 l-4 -100 9 95 c5 52 20
156 33 230 l24 135 12 -56 c12 -56 14 -113 15 -414 0 -203 13 -131 26 150 15
329 25 416 55 475 14 27 28 50 30 50 10 0 53 -108 64 -159 9 -45 8 -55 -9 -83
-11 -18 -20 -40 -19 -48 0 -8 5 -4 10 9 15 37 29 50 45 44 17 -6 59 -83 45
-83 -5 0 0 -24 12 -52 17 -46 20 -76 21 -215 1 -124 4 -163 13 -163 17 0 17
-17 1 -23 -10 -4 -10 -6 -1 -6 19 -1 58 74 91 174 39 115 52 181 52 256 0 53
-3 61 -22 68 -14 5 -28 5 -36 -2 -21 -17 -46 18 -87 118 -21 50 -55 128 -77
175 -22 47 -49 105 -60 130 -10 24 -34 65 -53 91 -22 30 -30 51 -24 58 6 7 5
8 -2 2 -8 -6 -30 3 -65 26 -44 29 -62 35 -114 37 -50 1 -68 -3 -95 -21 -43
-29 -45 -29 -45 7 0 23 8 35 33 51 17 12 24 19 15 15 -10 -3 -52 -29 -95 -57
-53 -36 -74 -46 -69 -33 4 11 14 56 23 100 l16 82 43 6 c44 6 94 -6 94 -22 0
-4 -6 -14 -12 -21 -11 -10 -9 -11 5 -5 23 9 50 56 30 53 -20 -3 -34 2 -28 11
10 16 87 11 132 -9 82 -38 203 -175 279 -316 67 -125 99 -144 134 -76 35 71
51 66 103 -28 20 -38 37 -72 37 -75 0 -4 -12 -4 -27 -1 l-28 5 25 -11 c14 -7
29 -11 33 -10 20 4 47 -22 48 -47 1 -19 3 -21 6 -8 10 38 -7 103 -30 115 -25
13 -67 73 -67 95 0 8 -10 26 -22 39 -42 44 -63 72 -60 82 4 19 -30 -30 -44
-62 -16 -38 -29 -47 -49 -36 -19 11 -157 203 -160 223 -1 8 -6 15 -11 14 -11
0 -50 48 -47 58 3 9 -17 36 -62 83 -16 17 -22 22 -12 10 28 -35 20 -36 -39 -4
-38 19 -71 29 -101 29 -38 0 -44 3 -39 18 3 9 8 34 12 55 5 29 10 37 23 33 23
-8 -30 35 -68 56 -24 14 -31 24 -32 50 -1 18 -3 25 -6 16 -2 -10 -8 -18 -13
-18 -10 0 -30 88 -30 131 0 17 -4 28 -9 25 -10 -7 12 -135 29 -166 8 -16 6
-43 -10 -117 -12 -54 -22 -99 -24 -100 -1 -2 -45 -8 -97 -14 -52 -6 -111 -13
-132 -16 -70 -10 -84 28 -42 114 38 76 190 223 215 208 4 -3 10 2 14 10 3 8 1
15 -5 15 -6 0 -7 5 -4 10 4 6 10 8 14 6 3 -3 7 4 7 15 0 15 -9 10 -39 -23 -22
-24 -33 -32 -25 -18 18 31 29 60 23 60 -2 0 -16 -21 -31 -47 -38 -67 -110
-140 -166 -169 -27 -13 -48 -27 -48 -29 0 -3 13 1 30 10 16 8 31 15 34 15 2 0
-11 -26 -30 -57 -40 -67 -53 -121 -33 -135 8 -5 42 -6 77 -3 55 5 62 4 62 -13
0 -10 5 -23 11 -29 8 -8 -5 -14 -47 -23 -33 -6 -84 -18 -115 -26 -73 -18 -69
-19 -69 14 -1 136 -96 -76 -136 -303 -14 -84 6 -24 30 86 26 123 52 199 67
199 12 0 11 -9 -6 -118 -17 -106 -69 -234 -91 -225 -10 3 -14 -2 -14 -18 0
-13 -9 -59 -19 -102 -14 -61 -26 -86 -52 -114 -62 -64 -127 -83 -208 -62 -45
11 -54 11 -85 -6 -52 -28 -54 -12 -2 19 76 45 127 107 151 186 5 15 -6 5 -26
-25 -52 -77 -128 -108 -311 -130 l-57 -7 8 28 c6 24 17 31 97 55 63 20 102 39
132 64 23 20 40 40 37 45 -3 4 9 13 27 19 17 6 40 19 50 28 22 20 23 11 3 -27
-11 -21 -23 -30 -43 -31 -25 -2 -25 -2 -4 -6 31 -6 60 21 68 62 3 18 19 46 36
62 32 30 71 99 82 146 9 38 2 34 -29 -19 -15 -25 -35 -54 -46 -65 -18 -18 -18
-18 -14 29 5 40 2 36 -18 -32 l-23 -78 -32 27 -32 27 -21 -24 c-21 -23 -21
-18 -3 28 3 6 -16 20 -41 30 l-46 19 32 30 32 30 -6 -35 c-5 -23 -4 -30 3 -19
5 8 12 40 15 70 l7 54 -20 -31 c-33 -51 -46 -53 -38 -8 l7 39 -25 -42 c-13
-23 -23 -50 -23 -60 2 -14 -4 -17 -27 -15 -16 2 -26 0 -22 -6 19 -31 -267 -92
-315 -67 -19 11 -15 13 42 24 35 7 92 24 127 38 45 17 74 23 100 20 l37 -6
-32 11 -31 10 24 48 c13 26 24 59 24 71 0 16 -9 3 -25 -35 -13 -32 -28 -63
-33 -68 -5 -5 -36 -4 -76 3 -37 6 -69 9 -72 6 -3 -3 17 -8 43 -12 72 -9 80
-19 36 -38 -46 -19 -88 -27 -170 -33 -56 -4 -68 -1 -110 26 -29 18 -41 30 -30
30 10 0 35 9 57 20 22 11 50 20 64 20 13 0 26 6 29 13 3 9 -18 11 -94 9 -78
-3 -99 -1 -99 10 1 18 131 400 345 1008 97 278 177 510 177 517 1 13 38 18
227 33 68 5 126 12 130 16 3 3 -21 4 -54 0 -33 -3 -113 -8 -177 -12 l-117 -6
33 93 c27 77 37 95 57 100 23 6 23 6 3 10 -18 3 -20 8 -13 27 7 20 15 22 71
21 63 0 167 -15 138 -18 -85 -12 -169 -29 -145 -30 24 -1 27 -3 15 -12 -11 -8
-6 -9 20 -4 19 4 45 7 58 6 14 0 20 3 17 9 -4 7 3 9 22 5 24 -4 25 -4 8 5 -16
8 -13 9 15 5 26 -4 31 -2 20 6 -11 8 -7 9 18 4 17 -4 32 -4 32 -1 0 3 -15 9
-32 14 l-33 9 50 7 c83 12 199 34 217 41 15 6 17 2 15 -30 -3 -36 -19 -55 -45
-55 -7 0 -10 5 -7 10 3 6 1 10 -5 10 -23 0 -3 -25 23 -28 22 -3 26 -8 25 -29
-2 -19 -12 -30 -36 -40 -19 -8 -37 -12 -40 -9 -3 3 -1 6 4 6 6 0 19 7 30 15
18 14 17 15 -8 5 -37 -13 -100 -53 -118 -75 -11 -14 -2 -11 31 8 25 15 52 27
60 27 24 0 -63 -65 -105 -78 l-41 -12 38 4 c35 5 38 3 35 -17 -2 -16 -14 -24
-48 -33 -25 -7 -38 -12 -30 -13 8 -1 29 3 46 8 28 8 33 6 43 -15 10 -23 66
-64 86 -64 6 0 2 5 -7 11 -26 15 -22 36 7 41 20 4 24 2 21 -11 -3 -9 -10 -45
-17 -81 -6 -36 -15 -68 -18 -72 -4 -4 -29 -1 -56 7 -27 9 -53 14 -58 12 -6 -2
18 -11 53 -20 57 -16 62 -20 57 -42 -2 -14 0 -25 5 -25 5 0 3 -6 -5 -14 -8 -8
-36 -17 -63 -19 l-49 -3 48 -2 c46 -2 48 -3 45 -29 -3 -26 -6 -28 -50 -27 -56
0 -54 -11 2 -21 22 -4 40 -8 40 -10 0 -1 -9 -47 -20 -101 -14 -66 -30 -113
-50 -144 -17 -26 -30 -51 -30 -57 0 -6 -10 -23 -22 -39 l-21 -29 27 26 c15 14
28 32 29 40 2 8 10 25 19 38 l16 23 4 -23 c3 -26 -17 -75 -62 -146 -34 -54
-64 -138 -55 -153 4 -6 19 9 36 35 16 25 34 43 39 40 6 -3 10 1 10 10 0 21 95
141 189 238 42 42 73 77 69 77 -3 0 -36 -31 -73 -70 -37 -38 -72 -67 -76 -64
-8 5 -13 -10 -10 -29 1 -5 -3 -6 -9 -2 -6 3 -7 12 -4 18 4 7 1 6 -7 -2 -11
-10 -11 -15 -1 -18 6 -3 10 -9 7 -13 -3 -5 -12 -7 -20 -4 -10 4 -19 -4 -27
-22 -11 -28 -12 -28 -16 -6 -5 29 53 132 123 217 30 37 70 95 89 130 49 86 81
95 88 25 3 -38 0 -46 46 90 3 8 2 12 -3 8 -4 -4 -13 -4 -20 2 -7 6 -24 5 -48
-2 -27 -8 -43 -8 -62 0 -14 6 -25 8 -25 3 0 -9 30 -25 42 -23 15 3 -46 -139
-75 -175 -7 -8 -22 -25 -33 -36 -12 -12 -40 -51 -64 -87 l-42 -65 6 39 c3 23
16 51 33 69 26 28 26 29 4 17 -27 -14 -23 -2 12 38 11 12 17 22 12 22 -4 0 13
22 39 50 43 46 58 69 37 55 -14 -8 -22 11 -23 55 0 32 5 44 31 66 20 16 30 32
26 43 -3 10 7 24 30 40 54 37 41 43 -20 9 l-55 -30 0 35 c0 19 7 54 15 78 l15
44 -20 -25 c-14 -18 -20 -41 -20 -77 0 -45 -3 -53 -19 -53 -17 0 -18 4 -9 48
6 26 14 51 19 57 5 5 9 17 9 27 0 10 13 32 30 50 25 29 29 30 30 13 0 -35 37
-81 85 -109 l47 -26 -7 47 c-13 89 -32 110 -95 104 l-25 -2 30 32 30 33 -35
-28 c-36 -30 -119 -70 -127 -62 -3 2 8 11 24 19 33 18 99 84 91 92 -3 3 -17
-7 -31 -21 l-27 -27 0 25 c0 13 6 30 13 37 15 15 16 33 2 44 -6 5 -3 12 8 21
18 14 18 14 0 18 -13 3 -4 11 30 28 35 16 45 25 35 31 -7 5 -9 9 -5 9 4 0 3 9
-3 19 -8 16 -6 21 11 26 11 4 18 9 16 11 -3 3 -22 -2 -42 -11 -48 -19 -58 -12
-13 11 43 22 41 19 29 42 -7 14 -17 18 -31 15 -23 -6 -23 -7 -10 72 14 91 18
124 24 200 2 39 2 59 -1 46 -2 -13 -13 -26 -24 -28 -16 -5 -19 -15 -19 -68 0
-35 4 -65 10 -67 9 -3 4 -50 -16 -155 -4 -22 -51 -41 -162 -63 -67 -14 -332
-25 -332 -14 0 14 52 168 59 174 3 3 7 12 7 20 1 8 37 116 79 240 43 124 109
320 147 435 56 169 75 215 99 238 16 15 26 27 21 27 -4 0 -22 -15 -39 -32z
m511 -2794 c-21 -113 -28 -126 -69 -139 -95 -28 -137 -60 -192 -147 -25 -39
-55 -70 -88 -91 -27 -17 -82 -62 -122 -100 l-72 -69 13 50 c8 27 30 87 51 133
35 79 62 161 85 256 6 25 19 47 31 53 18 10 327 87 357 89 9 1 11 -9 6 -35z
m323 -154 c18 -10 40 -32 50 -47 10 -15 26 -34 35 -41 22 -16 43 -56 52 -99
l7 -31 -40 20 c-68 33 -95 18 -210 -121 -46 -55 -58 -61 -42 -17 18 46 -5 28
-29 -24 -15 -32 -26 -46 -31 -38 -16 25 -55 -9 -93 -81 -20 -38 -41 -73 -46
-76 -12 -8 -12 -4 0 48 18 80 92 422 94 435 3 19 107 84 123 77 7 -2 13 0 13
5 0 18 84 11 117 -10z m-363 -11 c-3 -6 -8 -29 -10 -51 -2 -29 -11 -50 -32
-72 -34 -36 -64 -91 -83 -156 -16 -51 -90 -136 -110 -124 -7 4 -10 3 -5 -4 3
-6 -2 -16 -13 -21 -33 -18 -34 -12 -5 26 49 64 94 135 94 147 0 6 -9 -3 -19
-20 -16 -26 -26 -32 -56 -32 -67 0 -142 -47 -251 -159 -55 -56 -97 -103 -93
-103 4 0 33 28 65 63 32 34 62 62 68 62 6 0 11 6 11 13 0 17 85 73 98 65 5 -3
7 -1 4 4 -4 6 7 16 25 22 37 13 49 13 67 2 12 -7 9 -16 -15 -48 -17 -21 -37
-49 -46 -63 -29 -43 -161 -176 -204 -204 -48 -31 -169 -59 -228 -52 -22 2 -44
5 -48 5 -4 1 19 35 50 77 51 68 57 73 64 54 5 -15 13 -20 24 -16 9 3 23 6 32
6 11 0 13 3 6 8 -6 4 -13 15 -17 25 -3 9 -17 17 -29 17 -16 0 -8 7 27 24 37
17 77 52 145 125 54 58 124 121 162 147 46 30 79 62 107 103 44 64 89 107 136
127 38 17 89 18 79 3z m96 -68 c0 -4 -22 -22 -50 -39 -30 -19 -52 -40 -56 -56
-3 -15 -11 -23 -19 -20 -9 4 -15 -8 -20 -38 -4 -24 -20 -101 -35 -173 -16 -71
-31 -158 -35 -192 -7 -61 -8 -63 -53 -89 -26 -15 -74 -48 -107 -72 -192 -141
-370 -174 -572 -107 -78 26 -105 44 -65 46 9 0 35 2 57 4 22 2 74 6 115 9 158
12 241 54 381 195 59 58 135 132 171 163 46 40 70 70 80 100 9 24 23 65 33 92
19 51 75 118 135 160 40 29 40 29 40 17z"/>
<path d="M7690 16178 l0 -143 58 -24 c31 -14 93 -42 137 -64 103 -50 128 -60
120 -47 -3 6 -13 10 -21 10 -8 0 -12 5 -9 10 4 6 11 7 17 4 7 -5 8 -2 2 7 -5
8 -10 66 -11 129 -3 121 -7 145 -23 135 -5 -3 -10 -1 -10 4 0 6 -6 11 -14 11
-8 0 -16 4 -18 9 -2 7 -211 101 -224 101 -2 0 -4 -64 -4 -142z"/>
<path d="M4485 15836 c-11 -8 -16 -20 -12 -29 3 -9 1 -19 -5 -23 -6 -4 -8 -3
-4 4 3 6 1 14 -5 17 -20 13 -273 -216 -413 -375 -456 -517 -711 -1064 -818
-1750 -20 -128 -22 -182 -22 -465 0 -284 2 -337 22 -465 99 -632 341 -1174
740 -1659 83 -100 351 -375 359 -367 2 2 24 -16 49 -40 25 -25 50 -42 56 -38
7 4 8 3 4 -4 -4 -6 4 -16 16 -23 13 -6 36 -23 53 -38 19 -17 25 -19 15 -6 -8
11 -26 30 -40 43 l-25 23 33 -16 c17 -8 32 -20 32 -25 0 -6 4 -10 10 -10 6 0
5 10 -2 25 -6 14 -17 25 -25 25 -7 0 -13 8 -12 18 0 10 3 12 6 5 12 -31 18 -7
15 64 -2 45 -9 81 -15 85 -7 4 -12 23 -12 42 -1 19 3 32 8 29 5 -3 7 -13 4
-23 -3 -13 0 -17 9 -13 8 3 14 1 14 -5 0 -6 -6 -12 -12 -15 -7 -2 -1 -4 15 -4
15 0 30 3 33 8 3 5 -2 6 -11 3 -9 -4 -15 -3 -13 2 1 5 -3 19 -10 30 -6 12 -9
24 -6 26 2 3 -3 11 -13 19 -11 9 -14 10 -9 2 11 -19 -9 -16 -25 4 -12 15 -12
16 1 8 13 -8 13 -6 1 8 -7 9 -18 14 -24 10 -5 -3 -7 -2 -4 4 8 12 -117 135
-128 125 -5 -4 -5 -2 -2 5 4 6 -31 54 -81 110 -236 263 -451 623 -581 973
-338 914 -214 1952 333 2765 95 142 290 382 365 449 11 10 18 24 14 30 -3 6
-2 8 2 3 12 -10 76 53 68 67 -3 6 -2 8 2 3 5 -4 16 0 26 9 17 16 17 17 -4 35
-16 14 -17 17 -5 13 11 -4 20 0 24 10 6 15 8 15 20 -1 12 -17 13 -16 14 10 0
15 -5 27 -11 27 -6 0 -9 6 -6 14 3 8 3 17 -1 19 -4 2 -2 2 5 1 17 -4 23 20 23
96 0 45 4 70 13 74 6 3 0 3 -15 0 -17 -4 -28 -2 -28 5 0 6 9 11 20 11 11 0 20
5 20 11 0 6 -9 8 -22 4 -21 -6 -22 -5 -5 8 32 26 16 38 -18 13z"/>
<path d="M8780 15506 c3 -66 9 -129 14 -138 4 -9 3 -25 -4 -35 -9 -16 -10 -15
-4 6 5 21 4 22 -9 10 -14 -12 -12 -18 21 -48 20 -18 29 -28 20 -21 -10 7 -18
9 -18 5 0 -5 -9 0 -20 10 -11 10 -20 14 -20 9 0 -10 30 -39 43 -41 15 -2 21
-13 7 -13 -7 0 -11 -3 -8 -6 3 -3 38 5 77 16 55 17 90 21 155 19 74 -4 83 -2
73 11 -80 105 -297 332 -319 336 -10 1 -12 -25 -8 -120z"/>
<path d="M6648 15143 c-45 -48 -71 -101 -142 -289 -31 -84 -83 -209 -116 -279
-33 -71 -59 -130 -57 -131 5 -6 151 302 177 374 12 34 26 62 30 62 4 0 10 15
14 33 11 54 57 141 67 126 5 -8 9 -18 9 -24 0 -5 -5 -3 -10 5 -6 9 -10 10 -10
3 0 -6 4 -14 8 -17 9 -5 -9 -176 -28 -275 -36 -182 -150 -407 -231 -455 l-32
-19 6 24 c4 13 9 35 13 49 l5 25 -15 -25 c-20 -32 -20 -13 -1 33 19 45 19 73
1 32 -7 -16 -24 -40 -38 -52 -19 -18 -23 -30 -20 -63 4 -36 7 -40 31 -40 15 0
38 7 51 16 14 8 8 0 -14 -20 -36 -33 -90 -55 -104 -42 -3 4 -1 20 5 36 14 38
8 39 -12 0 -24 -46 -20 -63 13 -56 23 4 21 3 -8 -10 -23 -11 -36 -12 -38 -5
-4 13 -32 15 -32 2 0 -5 -3 -17 -6 -25 -5 -14 2 -13 52 5 124 46 175 96 263
257 89 164 120 267 145 491 8 71 16 105 24 104 7 -2 12 2 12 7 0 6 -4 10 -9
10 -5 0 -12 16 -15 35 -5 26 -1 43 17 72 48 78 48 80 -5 26z"/>
<path d="M8927 15076 c-133 -49 -185 -179 -141 -348 17 -66 63 -169 92 -207
19 -23 19 -22 18 105 -1 154 16 221 75 287 44 51 88 67 183 67 l66 0 -6 -40
c-6 -35 -3 -43 24 -70 49 -49 112 -38 112 20 0 54 -59 111 -170 163 -77 36
-190 46 -253 23z"/>
<path d="M8529 14972 c-54 -35 -142 -130 -172 -186 -17 -32 -22 -58 -22 -121
0 -69 4 -86 27 -126 50 -86 151 -129 301 -129 70 0 225 26 215 36 -3 2 -48 15
-101 28 -111 28 -182 63 -239 119 -68 66 -83 133 -53 233 22 73 30 82 53 61
27 -24 66 -21 101 9 33 27 41 70 19 92 -21 21 -81 14 -129 -16z"/>
<path d="M9268 14730 c-57 -14 -147 -63 -205 -110 -52 -43 -119 -118 -111
-125 2 -3 37 9 77 26 171 72 319 71 397 -2 23 -21 67 -113 78 -161 6 -26 4
-28 -28 -28 -47 0 -78 -39 -74 -93 4 -49 25 -65 65 -51 58 20 111 179 100 300
-16 169 -153 280 -299 244z"/>
<path d="M9026 14359 c104 -129 148 -249 125 -335 -14 -52 -123 -161 -162
-164 -4 0 -10 11 -13 25 -9 36 -49 59 -92 52 -68 -11 -85 -54 -39 -97 48 -45
209 -38 320 14 138 64 198 214 135 336 -34 66 -128 152 -217 198 -129 66 -132
64 -57 -29z"/>
<path d="M8857 14321 c-87 -135 -172 -204 -270 -217 -51 -7 -115 17 -179 68
l-40 32 26 19 c21 15 26 27 26 61 0 78 -52 115 -97 69 -23 -22 -25 -30 -20
-79 7 -67 57 -171 113 -233 51 -57 112 -88 187 -97 159 -19 283 144 312 409 4
31 5 57 3 57 -2 0 -30 -40 -61 -89z"/>
<path d="M22432 14264 c-115 -57 -155 -186 -94 -305 38 -75 99 -112 194 -117
89 -5 143 15 196 72 105 114 68 293 -73 357 -62 29 -158 25 -223 -7z"/>
<path d="M23140 13125 l0 -1045 195 0 195 0 2 332 3 333 265 -333 264 -332
254 0 254 0 -24 28 c-12 15 -113 128 -223 252 -397 445 -437 491 -432 503 3 7
157 184 342 395 l336 382 -257 -2 -258 -3 -225 -286 c-124 -157 -243 -305
-263 -330 l-38 -44 0 598 0 597 -195 0 -195 0 0 -1045z"/>
<path d="M9525 13065 l0 -985 198 0 197 0 0 643 0 642 136 -325 c74 -179 194
-468 267 -642 l132 -318 147 0 c130 0 148 2 157 18 5 9 34 78 64 152 137 337
251 613 288 702 24 56 38 101 34 109 -5 7 -4 10 3 5 8 -5 26 29 37 74 1 3 14
32 29 64 15 32 25 65 22 73 -3 8 -2 11 3 8 11 -6 24 28 25 65 1 14 6 25 11 25
7 0 11 -224 13 -647 l2 -648 138 0 c75 0 161 3 189 6 l53 7 2 968 3 969 -120
2 -120 2 125 6 c98 5 77 6 -100 6 -207 -1 -225 -2 -224 -18 1 -10 -1 -16 -5
-14 -4 3 -33 -57 -65 -132 -33 -75 -100 -234 -151 -352 -348 -814 -408 -950
-413 -945 -4 3 -146 333 -317 733 l-311 727 -224 3 -225 2 0 -985z"/>
<path d="M21310 13835 l0 -195 -85 0 c-102 0 -97 10 -93 -180 l3 -135 87 0 87
0 3 -445 c4 -430 5 -447 26 -513 13 -37 27 -65 32 -62 6 3 7 0 5 -7 -11 -28
84 -126 159 -164 78 -41 163 -54 354 -54 l172 0 0 159 0 159 -127 4 c-144 5
-181 17 -210 71 -16 29 -18 72 -21 439 l-3 408 178 2 178 3 3 157 3 158 -178
2 c-133 2 -178 6 -179 16 -1 6 -2 93 -3 192 l-1 180 -195 0 -195 0 0 -195z"/>
<path d="M8740 12860 l0 -779 34 -7 c26 -4 270 -1 349 5 4 1 7 352 7 781 l0
780 -195 0 -195 0 0 -780z"/>
<path d="M20814 13624 c3 -9 6 -355 6 -770 0 -664 2 -754 15 -754 13 0 15 92
15 764 0 491 -4 767 -10 771 -6 4 -8 -7 -5 -27 l5 -33 -10 33 c-6 17 -13 32
-16 32 -4 0 -3 -7 0 -16z"/>
<path d="M22350 12860 l0 -780 195 0 195 0 0 780 0 780 -195 0 -195 0 0 -780z"/>
<path d="M20788 12829 l-3 -724 -30 0 -30 0 -3 718 c-1 466 -6 717 -12 717 -7
0 -10 -250 -10 -719 l0 -720 -27 -4 c-16 -3 9 -4 55 -3 45 0 82 -2 82 -6 0 -5
8 -8 17 -8 14 0 13 3 -5 16 l-22 15 0 716 c0 394 -2 718 -5 721 -3 3 -6 -321
-7 -719z"/>
<path d="M6742 12792 c-18 -59 -32 -119 -32 -135 0 -15 -4 -27 -9 -27 -5 0 -7
-18 -4 -40 6 -40 -3 -50 -24 -29 -9 9 -27 9 -72 -1 -80 -17 -164 -9 -228 21
-49 22 -53 27 -54 59 -1 34 -1 35 -8 6 -3 -16 -12 -31 -20 -34 -9 -3 -11 0 -6
8 6 10 4 12 -8 7 -12 -4 -15 -1 -12 15 3 12 10 25 17 30 10 6 10 8 -1 8 -16 0
-111 -92 -111 -108 0 -15 63 -26 96 -18 l26 7 -5 -58 -5 -58 10 53 11 52 48 0
c27 0 49 -3 49 -7 0 -19 -61 -111 -94 -142 l-35 -34 4 39 c4 35 3 35 -6 -7
-10 -41 -16 -50 -58 -73 -110 -59 -294 -81 -551 -64 -89 6 -94 5 -35 -3 101
-13 129 -25 178 -73 24 -23 66 -50 93 -60 27 -10 81 -35 119 -56 39 -21 94
-43 123 -50 30 -7 52 -18 52 -25 0 -7 -7 -49 -15 -92 -21 -108 -17 -136 4 -38
23 103 34 171 25 162 -12 -11 -44 13 -44 33 0 26 46 28 53 3 4 -14 5 -12 6 5
0 12 5 22 11 22 5 0 48 -18 94 -39 95 -44 126 -79 126 -141 0 -19 -12 -89 -25
-155 -14 -66 -25 -132 -25 -147 0 -16 -3 -28 -7 -28 -5 0 -47 16 -95 36 l-86
37 -10 56 -9 56 -2 -49 c-1 -39 -4 -47 -17 -42 -9 3 -18 6 -20 6 -2 0 -4 7 -4
15 0 9 -6 12 -16 8 -11 -4 -12 -8 -4 -13 9 -5 9 -17 1 -46 -6 -21 -12 -49 -13
-62 -3 -21 -9 -24 -68 -27 -36 -3 -59 -1 -52 3 13 9 -188 37 -369 52 -63 5
-199 9 -304 8 l-190 -2 240 -7 c132 -3 278 -12 325 -18 47 -6 90 -11 96 -11 8
0 7 -16 -2 -52 -8 -29 -14 -59 -14 -68 -1 -38 -10 -40 -155 -25 -77 7 -205 18
-285 25 -271 21 -410 52 -410 91 0 18 53 39 130 52 14 3 3 3 -25 1 -27 -2 -61
-6 -74 -10 -22 -7 -24 -5 -18 22 4 16 53 175 110 354 l102 325 55 6 55 6 -54
1 c-44 2 -52 5 -47 18 3 9 8 28 11 42 7 41 -35 -88 -155 -468 -122 -388 -120
-372 -34 -402 60 -20 152 -33 384 -53 324 -28 393 -34 396 -38 2 -2 -19 -109
-47 -238 -27 -129 -61 -290 -74 -359 -13 -69 -39 -200 -59 -292 -19 -92 -36
-175 -38 -184 -4 -20 30 -33 208 -79 145 -38 321 -70 459 -83 192 -20 602 -12
727 14 l27 5 -20 52 c-11 29 -33 108 -49 177 -16 69 -35 146 -43 172 l-15 47
37 25 c20 13 82 69 139 123 73 70 102 105 102 122 0 22 -46 119 -62 131 -11 8
-3 52 15 87 30 57 22 90 -48 208 l-66 110 163 6 c167 6 255 21 341 58 l48 21
-6 57 c-6 62 -22 295 -55 798 -24 369 -30 415 -24 200 l5 -160 -40 -160 c-63
-244 -135 -375 -306 -551 -87 -89 -155 -125 -243 -126 -35 0 -72 6 -90 15 -30
14 -42 13 -42 -5 0 -4 15 -15 33 -23 31 -15 10 -15 -25 0 -10 4 -18 3 -18 -3
0 -6 12 -15 28 -20 23 -9 24 -11 6 -11 -36 -2 -67 32 -74 80 l-7 44 -2 -41
c-2 -64 22 -87 98 -92 53 -4 61 -2 55 12 -3 9 -1 16 5 16 6 0 11 -4 11 -10 0
-5 12 -10 28 -9 26 0 26 1 5 9 -34 14 -28 20 9 9 43 -12 45 -12 22 6 -18 14
-18 14 11 15 17 0 48 11 70 25 22 13 51 30 65 37 28 13 80 58 80 69 0 4 20 28
44 54 60 62 141 181 173 252 15 32 46 128 69 213 24 85 43 144 44 130 0 -14 7
-112 15 -219 12 -155 12 -197 2 -210 -7 -8 -7 -12 -1 -8 11 7 24 -82 24 -172
0 -38 -5 -49 -37 -81 -21 -20 -49 -50 -63 -66 -13 -16 3 -2 37 30 43 42 64 55
67 45 8 -25 12 -149 5 -149 -4 0 -16 -3 -26 -7 -17 -6 -17 -6 0 14 19 21 22
33 9 33 -5 0 -17 -16 -28 -35 -16 -31 -25 -36 -89 -50 -38 -9 -117 -19 -175
-22 l-105 -6 60 64 c100 107 226 259 216 259 -5 0 -11 -4 -13 -9 -4 -11 -105
-126 -165 -188 -24 -24 -43 -47 -43 -52 0 -5 -19 -23 -43 -39 -36 -24 -57 -30
-123 -35 -43 -3 -68 -2 -54 2 19 5 4 9 -55 15 -82 7 -242 39 -253 51 -3 3 -9
27 -14 53 l-7 47 3 -53 c3 -43 0 -52 -11 -48 -8 4 -18 6 -22 6 -11 0 5 99 25
158 9 26 38 90 64 142 106 210 143 290 138 295 -8 8 -204 -387 -228 -459 -11
-33 -20 -74 -20 -93 0 -37 -3 -38 -49 -22 -19 7 -31 18 -31 29 0 40 46 164
120 320 88 187 115 257 134 350 l13 65 9 -40 8 -40 7 30 c4 17 6 73 6 125 0
89 -1 91 -7 30 l-6 -65 -9 40 c-6 22 -10 90 -10 150 1 92 6 129 33 229 18 65
31 120 29 122 -2 2 -18 -44 -35 -104z"/>
<path d="M7356 12629 c-2 -8 -12 -43 -21 -79 -30 -118 -76 -255 -96 -285 -28
-45 -23 -13 11 63 32 68 80 224 79 252 0 8 -11 -23 -25 -70 -54 -180 -114
-303 -201 -404 -24 -28 -48 -57 -54 -63 -5 -7 -26 -13 -46 -13 -28 0 -34 -3
-25 -12 8 -8 21 -9 47 -1 40 13 38 -3 -3 -18 -35 -13 -68 -4 -75 21 -3 11 -12
20 -20 20 -18 0 -91 -96 -83 -109 3 -5 -3 -11 -14 -14 -18 -5 -19 -3 -5 22 7
15 34 50 60 78 25 28 41 54 36 57 -9 6 -38 -27 -76 -86 -9 -15 -21 -26 -25
-23 -5 3 -12 0 -16 -6 -5 -8 -3 -9 6 -4 8 5 11 3 8 -6 -3 -8 -10 -13 -16 -12
-6 2 -9 -3 -6 -11 3 -8 0 -17 -7 -22 -8 -5 -10 -3 -4 6 5 9 4 11 -3 6 -7 -4
-12 -16 -12 -28 0 -18 2 -19 17 -7 15 13 15 12 4 -8 -6 -13 -16 -23 -22 -23
-6 0 -8 -4 -4 -9 3 -5 -8 -36 -25 -69 -19 -38 -30 -73 -29 -98 l1 -39 12 45
c17 58 57 136 93 179 24 28 36 34 64 33 132 -6 239 86 342 293 61 124 160 436
143 452 -3 3 -7 0 -10 -8z"/>
<path d="M9253 11859 c-187 -376 -421 -678 -743 -963 -63 -56 -159 -132 -213
-170 -56 -39 -94 -72 -91 -78 4 -7 2 -8 -5 -4 -6 4 -19 2 -27 -5 -14 -12 -14
-14 -1 -24 13 -10 13 -13 -6 -25 -20 -12 -21 -12 -9 3 10 11 10 17 2 22 -14 8
-60 -14 -60 -28 0 -5 7 -4 15 3 9 7 18 10 22 7 3 -4 -7 -11 -23 -18 -16 -6
-37 -15 -47 -20 -10 -6 -22 -7 -27 -4 -5 3 -12 0 -16 -6 -4 -7 -3 -9 4 -5 6 3
13 2 16 -3 4 -5 -4 -13 -15 -16 -20 -7 -20 -8 -6 -17 14 -7 17 -25 17 -89 0
-58 3 -78 12 -73 7 4 8 3 4 -5 -6 -8 2 -10 26 -6 31 6 32 5 13 -8 -10 -8 -24
-13 -30 -11 -6 3 -19 -2 -30 -11 -19 -15 -19 -15 10 -10 17 3 24 2 18 -1 -7
-3 -13 -11 -13 -17 1 -7 9 -2 20 11 11 14 24 20 31 16 8 -5 9 -3 5 5 -5 8 -3
11 5 10 20 -4 109 38 109 51 0 6 5 8 10 5 6 -3 13 0 16 8 2 7 11 14 17 14 7 0
49 24 92 53 428 287 782 665 1042 1113 65 112 163 305 163 322 0 3 -49 5 -110
5 l-109 0 -3 66 -3 66 -82 -163z"/>
<path d="M21529 11316 c-46 -16 -102 -59 -119 -90 -17 -32 -32 -23 -30 18 4
77 5 76 -55 76 l-55 0 0 -365 1 -365 53 0 54 0 4 238 c3 223 5 240 26 284 13
25 30 49 38 52 9 3 12 11 8 17 -4 7 -3 9 3 6 6 -4 24 0 39 8 16 8 50 15 77 15
l47 0 0 60 c0 59 -1 60 -27 60 -16 -1 -44 -7 -64 -14z"/>
<path d="M20876 11303 c-3 -3 2 -12 10 -20 15 -16 10 -34 -9 -32 -9 0 -8 2 1
6 6 2 10 9 6 14 -3 5 -14 4 -26 -2 -18 -10 -20 -9 -15 5 8 20 -9 20 -43 1
l-25 -14 25 -1 c19 0 21 -3 10 -9 -8 -4 -43 -5 -77 -2 -48 5 -63 4 -63 -6 0
-7 -3 -13 -7 -14 -23 -2 -46 -8 -51 -14 -11 -10 49 3 62 14 7 6 52 10 102 9
49 -1 81 -3 70 -6 -14 -3 -8 -9 25 -25 24 -11 47 -20 51 -19 3 1 12 -12 19
-28 7 -15 16 -27 20 -24 4 2 6 -2 6 -9 -1 -22 15 -77 23 -77 9 0 8 -20 -3 -36
-4 -7 -72 -15 -179 -20 -160 -8 -167 -9 -88 -14 73 -5 78 -6 40 -11 l-45 -6
50 -3 c41 -3 33 -5 -40 -10 l-90 -6 115 -4 115 -4 -115 -6 -115 -6 165 -4 c91
-3 194 -5 230 -5 l65 0 2 65 c2 68 -12 144 -26 136 -4 -3 -13 6 -20 20 -16 35
-13 44 4 14 8 -14 14 -20 15 -15 0 19 -31 55 -42 49 -7 -4 -8 -2 -4 4 9 16
-50 76 -65 66 -8 -5 -9 -3 -4 6 6 10 4 12 -9 7 -9 -4 -14 -3 -11 2 3 5 1 12
-5 16 -5 3 -10 1 -10 -5 0 -6 -5 -8 -10 -5 -6 4 -8 10 -5 15 6 9 -20 21 -29
13z"/>
<path d="M20957 10788 c-4 -13 -6 -24 -7 -26 0 -1 -16 -16 -35 -33 -20 -18
-32 -36 -28 -43 5 -8 2 -7 -8 1 -9 8 -20 9 -29 3 -8 -6 -28 -10 -45 -11 -26
-2 -27 -2 -6 -6 19 -4 21 -7 10 -14 -12 -7 -12 -9 1 -9 13 0 13 -1 0 -10 -12
-8 -9 -10 13 -10 16 0 26 4 23 8 -3 5 9 9 26 9 18 0 36 7 44 18 13 17 14 17
14 2 0 -9 -4 -17 -10 -17 -5 0 -7 -7 -4 -15 5 -11 -2 -15 -32 -14 -114 3 -208
-2 -195 -10 11 -7 11 -9 0 -13 -9 -3 -8 -6 4 -11 11 -4 17 -1 17 9 0 8 5 12
11 9 6 -4 26 -7 45 -7 19 0 34 -3 34 -8 0 -13 51 2 57 16 3 9 14 12 29 8 30
-8 108 40 100 61 -3 9 0 12 9 8 9 -3 18 4 25 21 5 14 12 26 15 26 4 0 3 -5 -1
-12 -4 -7 -3 -8 5 -4 6 4 9 11 6 16 -3 4 2 13 11 20 8 7 13 19 10 27 -3 7 -1
13 4 13 6 0 10 4 10 9 0 4 -26 9 -59 10 -53 1 -59 -1 -64 -21z"/>
</g>
</svg>
