<?xml version="1.0" standalone="no"?>
<!DOCTYPE svg PUBLIC "-//W3C//DTD SVG 20010904//EN"
 "http://www.w3.org/TR/2001/REC-SVG-20010904/DTD/svg10.dtd">
<svg version="1.0" xmlns="http://www.w3.org/2000/svg"
 width="1240.000000pt" height="876.000000pt" viewBox="0 0 1240.000000 876.000000"
 preserveAspectRatio="xMidYMid meet">
<metadata>
Created by potrace 1.16, written by Peter Selinger 2001-2019
</metadata>
<g transform="translate(0.000000,876.000000) scale(0.100000,-0.100000)"
fill="#000000" stroke="none">
<path d="M5551 7079 c-1 -4 6 -20 14 -35 13 -26 15 -27 15 -7 0 16 4 21 15 17
11 -5 12 -11 5 -24 -6 -12 -7 -21 -1 -25 6 -3 5 -23 -4 -51 -9 -30 -10 -55 -5
-77 5 -18 8 -44 6 -59 -2 -15 1 -25 5 -22 5 3 9 1 9 -5 0 -5 -6 -12 -12 -15
-10 -5 -10 -7 0 -12 6 -3 12 -10 12 -15 0 -5 -11 -2 -25 7 -14 9 -33 13 -44 9
-15 -5 -24 1 -36 24 -8 17 -13 31 -9 31 4 0 1 7 -6 15 -14 17 -40 3 -40 -22 0
-8 -5 -11 -11 -8 -7 5 -5 15 5 30 13 19 13 25 2 34 -7 6 -20 9 -27 6 -19 -7
-75 30 -59 40 6 4 21 -1 33 -12 l22 -18 -19 23 c-11 12 -26 20 -33 18 -8 -3
-16 1 -19 9 -4 8 -11 12 -16 9 -6 -4 -6 -9 2 -14 8 -5 7 -9 -5 -13 -9 -4 -14
-3 -11 2 3 5 -1 12 -10 15 -8 3 -12 2 -9 -4 4 -6 -1 -7 -11 -3 -10 4 -13 8 -7
10 7 3 9 11 6 19 -3 8 0 14 7 14 6 0 9 -4 5 -9 -10 -17 12 -21 26 -5 10 12 10
15 -2 12 -8 -2 -13 2 -12 9 2 7 -4 10 -13 6 -8 -3 -14 -2 -12 3 5 15 -16 11
-35 -7 -17 -16 -17 -18 20 -48 22 -18 44 -29 54 -26 10 3 20 1 24 -5 4 -6 3
-9 -2 -8 -4 2 -9 -1 -10 -7 -2 -5 2 -10 7 -10 6 0 15 -7 20 -15 8 -12 11 -13
19 -1 6 9 11 10 15 2 4 -6 2 -11 -3 -11 -6 0 -11 -5 -11 -11 0 -6 9 -8 21 -4
15 5 19 4 15 -4 -9 -14 18 -42 36 -39 6 2 12 -2 13 -9 0 -6 4 -15 9 -20 5 -4
6 -3 3 3 -4 7 0 15 9 18 12 5 15 2 10 -9 -3 -10 -2 -13 5 -10 6 4 9 -1 7 -11
-2 -14 2 -18 17 -16 11 2 22 8 25 12 3 5 11 5 19 1 9 -6 5 -10 -15 -15 l-28
-7 42 -40 c24 -21 45 -39 47 -39 2 0 3 9 2 19 -1 16 -4 18 -17 8 -12 -9 -13
-9 -2 3 6 8 12 23 13 35 0 20 0 20 10 0 7 -15 8 -13 2 10 -3 17 -6 72 -5 123
1 59 -2 92 -9 92 -6 0 -7 5 -2 13 4 6 8 37 9 67 2 52 1 55 -22 56 -13 1 -21
-2 -18 -7 3 -5 1 -9 -5 -9 -5 0 -12 6 -14 13 -3 6 -6 9 -6 6z"/>
<path d="M5907 6909 c-17 -10 -17 -12 -2 -23 14 -10 17 -28 16 -86 0 -41 -3
-81 -6 -90 -3 -11 1 -16 15 -16 15 0 20 7 20 25 0 33 12 19 16 -20 3 -24 1
-30 -11 -25 -8 3 -15 2 -15 -3 0 -5 20 -8 45 -7 36 1 42 3 30 12 -23 17 -31
59 -30 157 0 48 -1 87 -4 87 -2 0 -10 -8 -17 -17 -13 -17 -13 -17 -14 0 0 19
-16 22 -43 6z"/>
<path d="M3756 2673 c-1 -1 -24 -5 -52 -8 -27 -3 -56 -8 -64 -10 -8 -2 -30 -7
-48 -10 -151 -25 -267 -80 -197 -93 11 -3 15 0 10 8 -5 9 -1 10 16 5 22 -6 23
-6 6 7 -16 12 -14 13 22 13 22 0 38 2 36 5 -6 9 104 32 117 24 6 -4 8 -3 5 3
-11 17 235 40 353 34 40 -3 42 -4 20 -12 -18 -6 -12 -7 25 -4 37 4 46 2 35 -6
-12 -8 -11 -9 6 -5 11 4 48 -5 83 -20 74 -30 116 -25 57 7 -59 32 -191 57
-314 61 -62 2 -114 2 -116 1z"/>
<path d="M8695 2659 c-22 -5 -55 -12 -74 -15 -18 -3 -54 -16 -79 -29 -26 -13
-50 -21 -54 -19 -4 3 -8 1 -8 -5 0 -5 -8 -12 -17 -15 -10 -3 -30 -17 -44 -30
-15 -14 -29 -22 -32 -19 -3 3 -3 -4 0 -16 3 -12 9 -21 14 -21 5 0 9 -4 9 -10
0 -5 -6 -9 -12 -7 -8 1 -12 -6 -10 -18 10 -61 4 -203 -10 -235 -51 -115 -69
-163 -71 -180 -1 -11 -5 -20 -10 -20 -5 0 -4 -7 3 -15 7 -8 9 -15 4 -15 -5 0
-9 -11 -9 -24 0 -13 4 -22 9 -18 5 3 6 -2 3 -12 -4 -10 1 -24 13 -36 20 -20
20 -20 -8 -26 -15 -3 -34 -8 -42 -11 -8 -3 -39 -8 -68 -12 l-54 -8 6 28 c3 15
26 69 50 120 25 50 43 95 41 100 -3 4 -6 33 -6 64 -1 32 -6 58 -13 60 -10 2
-94 19 -156 31 -31 6 -76 39 -72 53 1 6 -6 11 -15 12 -28 1 -62 7 -138 24
-193 43 -262 57 -280 59 -11 0 -22 4 -25 7 -3 3 -48 15 -100 27 -284 64 -576
111 -721 118 -47 2 -92 6 -100 8 -28 11 -347 11 -343 1 3 -5 28 -11 57 -13 28
-1 61 -5 72 -8 17 -4 17 -3 5 6 -11 8 5 9 65 4 79 -7 104 -9 168 -12 24 -2 29
-5 17 -12 -9 -6 -10 -10 -3 -10 6 0 14 4 17 8 3 4 66 2 142 -5 75 -7 141 -10
147 -6 6 3 7 1 4 -5 -5 -6 12 -13 45 -17 87 -10 109 -16 102 -27 -4 -6 3 -5
16 2 12 6 29 9 38 5 29 -11 216 -48 244 -48 15 0 25 -3 23 -7 -7 -11 21 -20
57 -20 17 0 54 -7 82 -15 28 -8 78 -22 111 -31 33 -10 64 -21 70 -26 5 -4 14
-8 20 -8 5 0 3 5 -5 11 -11 8 -8 9 15 3 17 -4 39 -8 50 -9 11 -1 27 -5 35 -8
17 -6 67 -17 94 -20 11 -1 21 -8 24 -15 2 -8 -2 -10 -15 -5 -13 4 -12 1 6 -15
29 -26 32 -27 25 -7 -5 11 -2 13 9 9 9 -3 13 -12 10 -20 -3 -8 0 -14 7 -14 6
0 8 5 5 10 -8 14 18 13 32 -1 6 -6 26 -13 44 -15 17 -2 39 -10 47 -16 13 -10
14 -10 8 0 -4 7 -2 12 8 12 18 0 56 -60 56 -88 0 -11 -5 -24 -11 -27 -6 -4 -8
-14 -4 -22 4 -13 3 -14 -10 -3 -9 8 -15 8 -15 2 0 -6 5 -14 10 -17 6 -3 10
-14 10 -23 0 -14 -1 -14 -12 1 -12 15 -14 15 -25 -8 -7 -16 -7 -23 -1 -19 6 4
8 1 6 -7 -3 -8 -11 -13 -17 -12 -6 2 -11 0 -12 -5 -6 -67 -15 -95 -29 -87 -5
3 -10 -1 -10 -9 0 -9 5 -16 10 -16 6 0 10 -4 10 -10 0 -5 -7 -10 -15 -10 -12
0 -13 -3 -4 -13 13 -13 109 -18 109 -5 0 4 8 7 18 6 34 -3 63 2 58 10 -2 4 12
8 32 9 20 0 50 3 66 6 17 3 39 1 50 -5 17 -8 19 -8 9 2 -6 7 -24 14 -40 16
-31 3 -86 61 -78 82 3 8 0 10 -7 6 -8 -5 -9 -2 -3 12 4 10 8 29 8 41 -1 13 3
20 8 17 5 -3 9 6 9 20 0 14 9 35 19 45 11 11 17 21 15 24 -9 8 8 57 17 51 6
-3 8 6 5 19 -2 14 2 34 9 44 8 10 15 30 15 45 0 15 6 33 13 40 17 19 19 52 2
38 -10 -9 -12 -7 -9 7 3 10 1 38 -5 63 -7 31 -7 48 1 57 6 8 8 16 4 20 -3 3
-6 1 -6 -5 0 -7 -4 -12 -10 -12 -19 0 -10 15 23 35 44 27 51 29 43 16 -5 -7
-1 -8 10 -4 11 4 13 8 6 11 -7 2 -12 8 -12 14 0 5 9 6 21 3 13 -4 19 -3 16 2
-9 15 119 64 151 58 23 -5 24 -4 7 5 -19 9 -18 10 5 8 14 0 33 2 43 7 9 4 30
5 47 3 16 -2 27 -1 24 4 -3 5 5 7 18 4 50 -10 143 -15 123 -6 -18 8 -17 9 8 9
19 1 26 -3 21 -10 -5 -8 1 -10 19 -7 17 3 24 1 20 -8 -2 -6 1 -15 8 -20 7 -4
10 -3 6 3 -4 6 -1 16 7 22 10 8 23 7 51 -5 21 -8 46 -13 56 -11 10 3 19 1 21
-4 2 -4 19 -10 38 -12 60 -8 91 -19 86 -32 -2 -7 17 -21 50 -34 30 -13 54 -28
54 -34 0 -12 20 12 20 24 0 11 -50 28 -65 23 -11 -5 -14 -2 -9 12 6 16 5 17
-7 7 -7 -7 -18 -13 -23 -13 -6 0 -4 5 4 10 13 9 13 11 0 20 -20 14 -96 36
-201 59 -94 20 -341 26 -414 10z"/>
<path d="M4209 2570 c-27 -22 -19 -26 14 -8 21 11 21 10 7 -7 -14 -17 -13 -18
2 -12 11 4 22 -1 30 -12 7 -10 20 -17 29 -16 11 2 17 -5 17 -21 0 -14 -4 -27
-9 -29 -4 -3 -3 -19 3 -36 6 -16 8 -33 4 -36 -3 -4 -6 1 -6 10 0 9 -3 17 -7
17 -5 0 -9 -27 -11 -60 -1 -33 2 -60 7 -60 8 0 10 -12 14 -79 1 -16 4 -27 6
-25 5 5 41 -64 41 -78 0 -5 -4 -7 -9 -4 -5 4 -7 -4 -3 -16 l5 -22 8 22 c5 12
11 22 14 22 4 0 4 -4 1 -9 -3 -5 1 -26 10 -46 15 -36 15 -45 -1 -90 -4 -13 -1
-12 9 5 l15 25 -1 -27 c-1 -15 -9 -30 -16 -33 -8 -3 -11 -12 -8 -20 3 -8 1
-15 -5 -15 -6 0 -17 -7 -26 -15 -8 -8 -19 -13 -24 -10 -5 4 -9 3 -9 0 0 -16
103 -46 168 -48 6 0 12 -4 12 -8 0 -11 84 -6 92 6 4 6 8 2 8 -8 0 -10 4 -16 9
-13 5 4 8 17 6 31 -1 14 3 25 9 25 7 0 6 3 -2 8 -7 5 -10 16 -6 28 6 18 6 18
-9 -1 -16 -20 -16 -20 -10 3 3 14 1 22 -7 22 -8 0 -10 9 -6 28 3 15 3 21 0 14
-3 -6 -10 -9 -15 -6 -6 3 -5 12 3 22 11 14 10 15 -6 9 -13 -5 -17 -3 -13 7 3
8 -2 16 -15 19 -15 4 -18 11 -13 26 4 12 2 21 -4 21 -10 0 -12 38 -5 96 4 29
8 32 38 30 19 -1 32 2 30 6 -3 5 7 8 21 8 14 0 45 9 67 20 23 11 50 20 60 20
10 0 18 6 18 14 0 11 50 31 71 28 4 -1 37 8 75 18 37 11 70 17 73 15 2 -3 -2
-5 -9 -5 -7 0 -11 -3 -8 -6 3 -3 15 -1 27 5 12 6 30 16 41 21 12 6 25 8 30 5
5 -3 11 -1 14 4 3 5 32 12 63 16 32 4 70 13 85 21 33 17 61 19 38 3 -11 -8 -9
-9 10 -3 14 4 27 11 28 16 2 5 20 6 40 3 32 -4 33 -3 12 5 -20 8 -17 9 18 5
27 -4 53 0 70 9 32 16 106 35 182 46 30 4 98 15 150 23 112 18 222 30 267 28
17 -1 34 3 38 9 4 6 15 8 26 5 12 -4 19 -2 19 7 0 9 3 9 8 2 11 -17 60 -23 58
-8 -1 8 -5 16 -8 19 -7 7 -209 -10 -368 -31 -191 -26 -324 -53 -733 -147 -54
-13 -94 -27 -90 -32 4 -4 3 -5 -3 -2 -14 8 -220 -25 -247 -40 -4 -3 -3 -11 4
-19 9 -12 9 -13 -3 -9 -9 4 -22 0 -30 -9 -18 -18 -75 -33 -150 -41 l-57 -6 -7
-45 c-3 -24 -4 -57 -2 -74 3 -16 0 -30 -4 -30 -5 0 -3 -7 6 -15 8 -8 18 -24
21 -35 4 -11 11 -17 17 -14 7 4 8 2 4 -5 -4 -6 -3 -17 2 -24 5 -7 16 -32 25
-57 8 -25 18 -52 21 -61 6 -13 -1 -14 -56 -8 -34 4 -67 5 -72 2 -5 -4 -6 -1
-1 7 6 10 1 12 -26 7 -19 -3 -28 -3 -21 0 10 4 10 8 0 21 -11 13 -11 14 1 7
11 -6 13 -4 8 8 -3 9 -1 17 5 19 15 5 16 107 0 129 -7 10 -11 19 -8 19 3 0 -5
25 -19 55 -13 31 -27 71 -31 90 -3 19 -9 33 -13 31 -9 -6 -10 10 -13 122 -2
50 1 92 5 92 4 0 3 9 -3 20 -9 16 -8 22 5 26 13 5 11 10 -10 28 -14 12 -38 29
-54 39 -28 16 -30 16 -52 -3z"/>
<path d="M3334 2545 c-12 -8 -24 -11 -28 -7 -4 3 -3 -5 3 -19 6 -17 6 -30 0
-36 -6 -6 1 -30 17 -64 38 -78 53 -151 54 -260 0 -95 0 -97 25 -101 20 -4 23
-2 14 8 -6 7 -9 52 -8 109 1 52 -1 99 -5 102 -3 3 -6 21 -6 39 0 18 -4 35 -10
39 -6 4 -6 15 1 32 8 22 8 24 -5 14 -12 -10 -15 -8 -18 16 -2 17 -11 32 -25
38 -13 5 -23 13 -23 16 0 4 10 5 23 2 20 -4 21 -3 4 10 -21 17 -13 49 10 40
12 -5 14 -3 8 7 -6 10 -4 12 10 6 15 -5 16 -4 5 9 -15 19 -20 19 -46 0z"/>
<path d="M6352 2256 c-1 -66 -5 -129 -8 -138 -3 -12 0 -18 10 -18 9 0 16 -4
16 -10 0 -5 -5 -10 -11 -10 -6 0 -8 -9 -4 -21 4 -12 3 -19 -2 -16 -5 3 -15 1
-23 -4 -10 -6 4 -9 43 -7 32 0 53 5 46 9 -7 4 -16 6 -20 3 -8 -5 -22 27 -14
34 3 3 5 -1 5 -8 0 -7 3 -10 8 -6 10 10 10 66 0 60 -5 -3 -5 -10 -2 -16 4 -6
2 -8 -3 -5 -6 4 -8 18 -6 32 3 13 8 23 12 20 4 -2 7 32 8 75 0 43 3 96 7 117
5 26 4 33 -3 24 -7 -12 -15 -12 -33 -4 l-23 10 -3 -121z"/>
<path d="M3305 2070 c-10 -11 -30 -20 -46 -20 -39 0 -121 -79 -123 -119 -1
-16 -4 -33 -8 -36 -4 -4 4 -17 18 -29 13 -11 35 -50 47 -86 22 -62 23 -73 14
-205 -8 -133 -1 -197 22 -215 4 -3 20 -22 36 -43 19 -25 33 -36 44 -32 8 3 12
3 9 -1 -11 -10 23 -40 79 -68 64 -32 202 -45 270 -27 38 10 110 61 87 61 -5 0
1 7 13 15 26 18 36 52 16 59 -8 3 -12 2 -9 -3 3 -5 -2 -15 -11 -22 -15 -12
-16 -12 -10 4 9 25 2 21 -19 -10 -15 -24 -15 -26 -1 -14 9 7 17 9 17 4 0 -18
-36 -43 -71 -49 -19 -4 -38 -10 -44 -14 -11 -7 -101 -5 -125 4 -8 3 -34 10
-58 16 -23 6 -40 15 -37 20 3 6 0 7 -8 5 -7 -3 -22 3 -32 15 -10 11 -24 20
-31 20 -7 0 -18 9 -24 20 -6 11 -16 19 -22 17 -6 -1 -13 5 -15 13 -4 13 -3 13
6 0 6 -8 11 -10 11 -5 0 6 -15 25 -34 43 -34 32 -49 79 -35 104 12 21 22 208
11 208 -5 0 -10 21 -10 46 -1 25 -7 55 -13 66 -10 18 -9 20 4 15 14 -5 14 -2
5 18 -6 13 -16 22 -21 18 -7 -4 -8 1 -3 13 4 10 4 15 0 11 -4 -4 -14 2 -22 14
-10 15 -11 24 -3 32 14 14 15 30 1 22 -5 -3 -10 -4 -10 -1 0 3 10 10 21 17 17
9 20 8 14 -3 -3 -7 3 -2 14 11 12 12 19 27 16 31 -3 5 -1 11 5 15 5 3 10 2 10
-2 0 -5 9 -9 19 -9 11 0 17 4 15 8 -5 8 24 12 56 9 9 -1 11 1 5 6 -20 16 -17
36 5 30 13 -3 20 0 20 9 0 21 -44 17 -65 -6z"/>
<path d="M9508 1882 c-12 -15 -11 -16 5 -3 21 17 22 8 1 -24 -9 -14 -14 -32
-10 -40 3 -9 2 -14 -3 -11 -20 12 -30 -263 -12 -322 10 -35 5 -66 -10 -57 -5
3 -11 -5 -15 -19 -3 -13 -13 -27 -22 -31 -14 -5 -14 -7 -2 -15 13 -8 13 -10
-1 -10 -9 0 -23 -8 -30 -17 -13 -17 -13 -17 6 -3 19 14 19 14 6 -3 -8 -10 -20
-16 -27 -13 -7 3 -15 -6 -18 -20 -5 -19 -11 -24 -25 -19 -11 3 -22 1 -26 -4
-4 -7 1 -8 12 -5 15 5 16 4 3 -5 -8 -6 -23 -8 -32 -5 -13 4 -16 1 -12 -11 5
-11 2 -16 -7 -15 -8 1 -36 2 -64 1 -36 -1 -46 -4 -35 -11 18 -12 -104 -6 -134
6 -15 6 -17 4 -11 -6 5 -9 4 -11 -4 -6 -6 4 -9 12 -6 17 4 5 -3 9 -15 9 -11 0
-24 8 -27 18 -4 9 -17 25 -30 35 -13 10 -23 27 -23 37 0 30 22 70 34 63 6 -4
4 2 -4 12 -11 14 -12 19 -2 22 6 3 10 9 6 14 -3 5 0 9 5 9 12 0 15 39 5 63 -4
11 -14 12 -47 6 -23 -4 -55 -6 -72 -3 -28 3 -28 3 -5 -5 23 -8 23 -9 -10 -10
-19 -1 -67 -8 -105 -16 -39 -8 -94 -18 -122 -21 -45 -5 -53 -4 -53 10 0 9 -4
16 -9 16 -6 0 -8 -8 -6 -19 2 -10 -2 -18 -8 -18 -36 1 -58 -4 -53 -12 7 -11
-22 -23 -35 -15 -5 3 -31 7 -57 9 -31 2 -38 1 -22 -4 19 -6 4 -11 -68 -24 -51
-10 -97 -15 -102 -12 -6 4 -10 1 -10 -6 0 -7 -10 -9 -25 -7 -14 3 -28 2 -31
-3 -3 -5 -26 -7 -52 -4 -39 4 -42 3 -17 -5 25 -7 21 -8 -27 -7 -31 1 -54 -2
-51 -7 4 -5 -17 -7 -45 -4 -39 4 -48 2 -37 -6 11 -8 -15 -10 -102 -5 -65 3
-141 5 -170 5 -28 -1 -49 2 -46 7 2 4 -11 7 -29 8 -28 0 -30 2 -13 10 16 7 14
8 -10 4 -34 -6 -109 17 -98 30 5 4 2 5 -5 1 -15 -9 -54 2 -47 14 3 4 -4 10
-15 13 -11 3 -18 1 -14 -4 3 -5 -2 -9 -10 -9 -9 0 -16 5 -16 11 0 6 -9 9 -20
6 -12 -3 -18 -1 -14 5 9 15 -18 29 -32 17 -9 -7 -14 -4 -18 9 -4 11 -17 28
-29 38 l-22 19 19 -23 c13 -15 15 -21 5 -17 -35 13 -94 152 -79 188 5 12 9 15
9 7 1 -10 6 -7 17 8 8 12 12 27 9 32 -3 6 -2 10 3 10 6 0 13 7 16 15 4 12 2
14 -9 7 -16 -8 -131 7 -152 21 -8 5 -13 4 -13 -2 0 -6 -7 -11 -16 -11 -8 0
-13 4 -10 9 3 5 -5 9 -19 9 -14 0 -23 -3 -21 -7 2 -3 -10 -5 -27 -4 -18 0 -52
2 -77 4 -25 1 -51 7 -59 13 -12 9 -13 7 -8 -8 6 -15 5 -17 -6 -7 -46 38 -540
48 -807 17 -25 -3 -74 -10 -110 -14 -36 -5 -76 -7 -90 -4 -33 6 -44 6 -115 -8
-33 -6 -75 -11 -92 -11 -38 1 -41 -9 -12 -48 12 -16 19 -34 15 -39 -3 -6 -1
-14 5 -18 6 -3 7 -9 2 -13 -4 -3 -13 -19 -19 -36 -6 -16 -16 -29 -23 -27 -7 1
-10 -2 -6 -8 3 -6 12 -7 18 -4 7 4 0 -4 -14 -18 -14 -13 -28 -29 -30 -35 -2
-7 -11 -13 -19 -15 -8 -2 -21 -9 -28 -16 -8 -7 -18 -10 -23 -7 -5 4 -6 -1 -2
-11 5 -13 2 -15 -18 -9 -19 5 -21 4 -9 -5 12 -9 6 -10 -25 -6 -24 3 -32 2 -21
-2 14 -6 -4 -14 -70 -32 -49 -13 -95 -23 -101 -22 -7 2 -13 -2 -13 -8 0 -14
-43 -13 -60 3 -12 10 -12 9 -2 -4 11 -14 6 -17 -40 -23 -73 -8 -286 -7 -272 2
7 4 -25 7 -71 8 -45 0 -91 5 -101 9 -11 5 -26 9 -34 11 -8 1 -62 9 -120 18
-98 16 -132 25 -99 27 21 1 -23 18 -46 17 -16 0 -16 -2 5 -9 18 -6 9 -7 -30
-4 -30 3 -65 5 -78 5 -13 0 -21 4 -18 9 3 5 -4 11 -15 14 -14 4 -20 11 -16 21
4 10 1 13 -9 9 -7 -3 -14 -9 -14 -14 0 -5 -15 -9 -34 -9 -40 0 -174 27 -198
41 -10 5 -41 9 -68 9 -33 0 -49 4 -45 10 4 7 -8 10 -34 9 -23 -2 -42 -8 -42
-13 -6 -45 -5 -56 1 -56 4 0 5 -11 2 -25 -3 -16 0 -25 8 -25 7 0 10 -8 7 -19
-3 -14 -1 -18 9 -14 9 3 14 -3 14 -18 1 -19 2 -21 10 -8 8 15 -4 66 -23 96 -5
7 -10 21 -12 31 -4 21 -11 22 160 -17 50 -12 119 -24 155 -27 59 -5 158 -23
520 -96 98 -20 145 -23 320 -22 180 0 215 3 285 22 157 44 245 74 245 85 0 5
3 7 6 4 8 -8 61 28 92 63 47 53 74 176 48 218 -3 5 14 9 37 11 24 1 65 8 93
15 27 7 88 14 134 15 47 1 99 4 115 6 17 3 80 7 140 10 61 2 142 6 180 8 39 3
125 2 193 -2 67 -3 122 -2 122 3 0 5 6 4 13 -2 15 -13 117 -20 117 -8 0 4 8 5
18 1 15 -6 70 -12 255 -29 30 -3 66 -10 80 -15 14 -5 28 -7 32 -3 4 4 5 -5 1
-20 -3 -16 -2 -28 3 -28 5 0 7 -15 4 -33 -5 -35 31 -137 49 -137 5 0 7 -3 5
-7 -15 -24 166 -116 248 -128 11 -1 34 -8 50 -15 71 -29 208 -42 385 -37 119
3 175 8 178 16 2 6 8 8 13 5 6 -3 49 2 97 11 122 23 329 65 377 77 22 5 56 9
75 9 45 -1 220 31 215 38 -1 3 7 6 18 6 12 1 45 4 73 8 l51 7 -5 -27 c-3 -16
-11 -37 -18 -48 -8 -11 -14 -44 -14 -75 1 -56 12 -77 66 -123 48 -40 167 -46
302 -14 7 2 21 10 31 18 9 8 24 15 32 17 22 5 49 34 42 45 -3 6 -1 7 5 3 17
-10 104 84 98 106 -2 11 0 15 6 11 8 -4 9 8 5 35 -3 28 -2 40 5 35 7 -3 8 -1
4 5 -9 15 -23 222 -15 217 3 -3 6 11 7 30 2 39 22 93 52 135 11 15 20 30 20
33 0 12 -61 3 -72 -11z"/>
</g>
</svg>
