<?xml version="1.0" standalone="no"?>
<!DOCTYPE svg PUBLIC "-//W3C//DTD SVG 20010904//EN"
 "http://www.w3.org/TR/2001/REC-SVG-20010904/DTD/svg10.dtd">
<svg version="1.0" xmlns="http://www.w3.org/2000/svg"
 width="1240.000000pt" height="1085.000000pt" viewBox="0 0 1240.000000 1085.000000"
 preserveAspectRatio="xMidYMid meet">
<metadata>
Created by potrace 1.16, written by Peter Selinger 2001-2019
</metadata>
<g transform="translate(0.000000,1085.000000) scale(0.100000,-0.100000)"
fill="#000000" stroke="none">
<path d="M5710 10389 c-41 -5 -163 -16 -270 -24 -318 -25 -646 -68 -830 -110
-36 -8 -83 -17 -105 -21 -38 -6 -111 -22 -350 -79 -108 -26 -478 -139 -645
-197 -47 -16 -152 -57 -235 -90 -82 -33 -171 -69 -198 -79 -26 -11 -55 -23
-65 -28 -9 -5 -78 -37 -152 -71 -241 -111 -649 -330 -699 -374 l-23 -21 6
-1275 c3 -701 8 -1914 11 -2695 4 -832 10 -1463 16 -1524 16 -166 118 -537
207 -756 22 -55 53 -131 67 -170 37 -94 208 -432 267 -525 153 -243 147 -234
270 -394 186 -241 419 -485 618 -646 30 -25 57 -47 60 -50 6 -7 105 -82 150
-114 74 -54 288 -194 340 -223 30 -17 96 -52 145 -78 50 -26 97 -52 105 -56
96 -52 409 -172 585 -223 33 -10 70 -22 82 -26 37 -15 235 -58 338 -75 55 -9
136 -22 180 -30 258 -46 962 -43 1210 4 28 6 102 18 165 27 145 21 414 88 595
149 210 70 353 130 560 235 164 84 197 102 205 111 3 3 16 12 30 19 50 27 218
140 306 206 50 38 108 82 130 99 125 95 444 399 444 424 0 8 3 12 6 8 6 -6
105 107 199 228 140 180 300 434 417 663 82 161 168 355 168 381 0 7 6 22 14
34 18 27 80 209 116 342 87 319 96 373 105 620 2 83 7 1001 10 2040 3 1040 8
2196 11 2570 5 740 7 713 -51 744 -129 70 -217 119 -260 143 -42 25 -297 151
-470 234 -86 41 -307 136 -362 154 -29 10 -67 25 -85 34 -39 18 -210 78 -323
112 -44 14 -107 33 -140 44 -154 47 -253 74 -441 120 -111 28 -211 50 -221 50
-10 0 -46 7 -78 16 -156 40 -609 102 -915 124 -80 6 -192 15 -250 20 -124 12
-862 11 -970 -1z m985 -130 c379 -25 431 -31 710 -70 215 -30 327 -49 381 -64
28 -8 59 -15 69 -15 18 0 278 -60 370 -85 28 -8 86 -24 130 -36 108 -29 189
-54 325 -101 63 -22 131 -44 150 -50 19 -5 49 -16 65 -23 17 -8 89 -37 160
-66 132 -52 339 -140 372 -158 10 -5 104 -52 209 -104 203 -101 494 -262 506
-281 12 -18 -1 -5162 -13 -5291 -6 -60 -17 -146 -24 -190 -18 -105 -95 -389
-123 -458 -7 -16 -12 -32 -12 -36 0 -4 -22 -67 -49 -139 -159 -420 -388 -817
-671 -1163 -105 -128 -363 -391 -473 -481 -165 -136 -310 -245 -375 -283 -9
-5 -30 -19 -47 -31 -127 -87 -406 -232 -595 -309 -36 -15 -78 -33 -95 -41 -62
-28 -306 -104 -455 -142 -135 -35 -230 -54 -460 -92 -106 -18 -377 -33 -585
-33 -424 1 -716 41 -1100 150 -116 32 -299 93 -340 113 -11 5 -60 26 -110 46
-85 34 -258 117 -280 134 -5 4 -46 26 -90 50 -150 80 -496 318 -565 390 -3 3
-39 34 -80 70 -155 133 -358 352 -505 545 -27 36 -59 78 -71 93 -30 39 -153
225 -204 307 -48 78 -212 397 -252 490 -99 230 -206 557 -253 780 -31 145 -34
304 -40 1930 -3 908 -8 2078 -11 2601 -4 523 -4 960 0 971 11 35 256 174 611
347 343 168 709 312 1055 416 41 12 102 31 135 41 77 23 412 104 488 118 32 6
62 13 66 16 5 2 37 9 72 14 35 6 91 15 124 21 568 99 1304 138 1880 99z"/>
<path d="M6015 10114 c-205 -6 -507 -23 -606 -34 -343 -40 -495 -61 -674 -96
-177 -34 -399 -85 -500 -115 -38 -11 -88 -25 -110 -30 -44 -11 -229 -70 -395
-126 -58 -20 -177 -65 -265 -100 -88 -36 -180 -73 -205 -83 -25 -10 -76 -34
-115 -53 -38 -19 -115 -56 -170 -82 -226 -108 -541 -285 -560 -314 -14 -22 -7
-2081 7 -2098 8 -10 781 -13 3782 -13 2074 0 3777 4 3784 8 10 7 14 221 19
1053 6 1016 5 1044 -13 1060 -82 67 -482 277 -824 431 -210 95 -667 261 -880
319 -247 68 -579 142 -735 165 -55 8 -107 16 -115 19 -26 7 -250 36 -355 45
-55 5 -138 13 -185 19 -141 16 -659 31 -885 25z m281 -369 l24 -24 0 -549 c0
-466 -2 -551 -14 -562 -17 -13 -118 -18 -157 -8 -16 5 -29 17 -33 30 -3 13 -6
269 -6 570 l0 546 25 9 c14 4 50 9 81 10 47 2 59 -1 80 -22z m-1483 -145 c2
-3 22 -61 45 -130 64 -194 96 -281 120 -331 12 -25 22 -49 22 -54 0 -12 98
-280 122 -334 26 -58 78 -215 78 -235 0 -21 -34 -34 -115 -42 -85 -9 -99 4
-135 119 -11 35 -14 37 -55 37 -23 0 -48 6 -54 14 -13 15 -4 163 10 172 14 8
10 45 -10 99 -10 27 -31 86 -46 130 -15 44 -36 104 -46 134 -28 80 -110 285
-119 296 -4 6 -11 29 -15 53 -11 66 5 77 108 77 47 0 87 -2 90 -5z m2808 -29
c17 -16 38 -78 79 -226 12 -44 28 -105 36 -135 9 -30 26 -91 39 -135 13 -44
31 -107 40 -140 10 -33 35 -115 56 -183 34 -107 38 -128 29 -165 -5 -23 -10
-57 -10 -76 0 -52 -21 -110 -42 -117 -26 -8 -80 26 -89 56 -4 14 -17 61 -28
105 -12 44 -28 98 -35 120 -7 22 -21 65 -30 95 -9 30 -35 111 -56 179 -22 68
-40 128 -40 133 0 6 -6 24 -14 41 -35 80 -116 337 -116 370 0 21 6 53 14 72
l15 34 68 -6 c43 -3 74 -11 84 -22z m392 -48 c10 -6 9 -90 -2 -149 -5 -27 -19
-139 -31 -249 -21 -194 -33 -237 -59 -221 -6 4 -11 20 -11 35 0 30 -1 35 -49
186 -67 217 -66 204 -47 307 9 50 20 96 23 101 5 8 159 0 176 -10z m1255 -273
c20 -11 54 -27 76 -35 l39 -15 -6 -48 c-16 -132 -38 -339 -47 -437 -5 -60 -14
-139 -20 -175 -6 -36 -15 -130 -20 -210 -11 -164 -27 -280 -41 -295 -6 -6 -26
-4 -57 7 -26 9 -61 19 -79 23 -49 10 -55 25 -52 117 l4 83 -37 18 c-44 22 -50
50 -17 91 11 15 24 39 28 54 4 15 19 33 34 40 30 14 34 26 41 122 2 36 12 128
20 205 9 77 20 203 25 280 6 77 13 149 17 159 5 14 30 31 52 35 2 1 20 -8 40
-19z m-5860 -17 c66 -21 104 -64 159 -178 48 -102 55 -182 24 -265 -12 -30
-21 -60 -21 -66 0 -6 20 -19 45 -28 58 -23 76 -50 119 -181 79 -242 94 -300
80 -323 -11 -17 -151 -65 -165 -56 -14 9 -46 75 -54 114 -15 70 -86 278 -99
289 -7 6 -31 17 -52 24 -36 13 -41 19 -64 84 l-24 71 27 39 c30 43 32 62 16
131 -18 82 -51 127 -111 153 -28 11 -78 101 -78 139 0 21 26 44 65 58 44 15
72 14 133 -5z m1264 -123 c86 -284 88 -297 88 -483 0 -94 -4 -177 -8 -183 -13
-19 -91 -44 -136 -44 -65 0 -68 8 -56 146 5 66 14 236 20 378 7 164 15 265 22
273 24 30 42 8 70 -87z m2784 4 c12 -43 38 -133 58 -199 52 -169 56 -197 40
-258 -8 -29 -14 -73 -14 -98 0 -66 -17 -108 -47 -115 -38 -10 -140 4 -168 22
-29 19 -30 34 -10 159 13 78 38 267 65 482 7 63 24 97 44 90 6 -2 21 -39 32
-83z m-4358 53 c6 -7 21 -44 33 -82 12 -39 49 -151 82 -250 33 -99 63 -193 68
-210 21 -80 29 -107 58 -200 16 -55 44 -138 60 -185 17 -47 33 -104 37 -127 6
-38 4 -42 -22 -56 -16 -8 -53 -22 -83 -32 -45 -15 -55 -15 -66 -4 -13 14 -106
286 -120 349 -4 19 -23 80 -42 135 -19 55 -39 116 -44 135 -6 19 -26 82 -45
140 -19 58 -44 134 -55 170 -12 36 -28 81 -36 100 -27 60 3 89 122 120 43 11
41 11 53 -3z m5946 -297 c-1 -95 -57 -378 -84 -429 -11 -20 -41 -83 -66 -141
-25 -58 -51 -111 -56 -117 -15 -19 -86 -16 -143 6 -64 24 -68 48 -24 122 38
65 126 224 184 334 142 269 147 276 169 273 18 -3 21 -9 20 -48z m-3763 -760
c83 -23 108 -103 55 -179 l-29 -41 42 -63 c48 -74 52 -97 17 -97 -25 0 -46 21
-104 104 -47 68 -66 61 -72 -29 -5 -67 -6 -70 -32 -73 -22 -3 -30 2 -38 23
-11 30 -13 324 -2 341 16 24 99 32 163 14z m539 1 c18 -5 25 -14 25 -31 0 -24
-3 -25 -48 -22 -56 4 -88 -13 -117 -61 -38 -62 -16 -164 42 -197 23 -12 34
-13 74 -2 41 11 49 11 63 -3 15 -15 13 -18 -14 -41 -23 -18 -42 -24 -83 -24
-90 0 -140 40 -168 136 -14 47 -13 58 1 108 9 30 25 66 36 81 42 53 119 76
189 56z m1429 -4 c83 -22 109 -103 56 -173 -30 -39 -29 -44 21 -120 37 -55 39
-84 6 -84 -25 0 -44 17 -82 75 -47 71 -60 84 -76 78 -10 -4 -14 -23 -14 -63 0
-32 -3 -65 -6 -74 -8 -21 -51 -20 -63 2 -5 9 -8 90 -7 180 1 150 3 165 20 178
23 17 84 17 145 1z m-2478 -17 c4 -8 19 -42 32 -75 80 -195 97 -242 97 -257 0
-42 -66 -34 -76 10 -9 36 -20 42 -81 42 -50 0 -52 -1 -74 -40 -24 -43 -61 -55
-73 -23 -6 16 31 126 75 219 10 23 19 44 19 47 0 3 9 26 20 52 20 48 44 57 61
25z m1389 -50 l5 -65 70 0 70 0 5 65 c5 64 5 65 35 65 l30 0 3 -183 c2 -162 1
-183 -14 -189 -34 -13 -49 11 -54 88 l-5 74 -64 3 c-76 4 -81 -1 -81 -80 0
-68 -7 -88 -29 -88 -37 0 -41 20 -41 186 0 89 3 170 6 179 4 10 16 15 33 13
24 -3 26 -7 31 -68z m698 43 c-3 -27 -5 -28 -83 -33 l-80 -5 0 -35 c0 -34 1
-35 45 -40 55 -7 70 -15 70 -40 0 -21 -17 -27 -80 -32 -33 -3 -35 -5 -38 -42
-4 -50 5 -58 64 -57 85 1 106 -7 102 -37 l-3 -27 -104 -3 c-67 -2 -108 1 -117
9 -19 16 -21 355 -1 362 6 3 61 6 120 6 l108 1 -3 -27z m725 9 c9 -10 27 -38
40 -63 32 -60 50 -57 91 16 33 60 65 80 89 56 12 -12 5 -28 -60 -135 -40 -65
-43 -75 -43 -142 0 -53 -4 -75 -16 -85 -31 -25 -48 1 -55 82 -5 76 -11 91 -73
193 -20 33 -36 68 -36 78 0 24 41 24 63 0z m986 -596 c9 -10 6 -25 -14 -64
-43 -86 -50 -82 160 -82 l185 0 12 -26 c9 -18 9 -30 1 -42 -9 -15 -35 -17
-197 -20 -185 -2 -186 -3 -186 -25 0 -12 12 -42 25 -66 41 -71 40 -71 -241
-71 l-244 0 -71 68 c-39 37 -78 72 -88 77 -10 7 -756 12 -2156 15 -1802 5
-2146 8 -2177 19 -38 14 -49 29 -25 35 141 38 45 36 2249 36 l2103 0 45 41
c25 23 64 59 87 80 l43 39 239 0 c190 0 241 -3 250 -14z"/>
<path d="M2417 6813 c-10 -9 2 -2519 14 -2783 5 -124 14 -245 20 -270 6 -25
17 -72 24 -105 7 -33 18 -73 24 -90 6 -16 37 -113 70 -215 86 -267 178 -478
316 -725 71 -127 194 -318 270 -420 33 -43 75 -99 94 -124 19 -25 37 -48 40
-51 3 -3 35 -39 71 -80 118 -138 356 -366 461 -445 15 -11 71 -54 125 -96 103
-78 240 -171 309 -209 22 -12 58 -32 80 -46 61 -37 351 -178 425 -207 67 -26
216 -78 330 -115 140 -46 430 -106 630 -131 151 -19 360 -33 385 -27 l25 6 -2
3068 -3 3067 -1851 3 c-1018 1 -1854 -1 -1857 -5z m2434 -575 c8 -32 11 -463
10 -1633 0 -875 2 -1613 5 -1641 4 -32 14 -60 27 -75 12 -14 39 -43 60 -67
l37 -42 0 -189 c0 -105 -4 -192 -9 -195 -5 -4 -29 3 -54 13 -25 11 -48 17 -51
14 -3 -4 -6 -64 -6 -134 0 -70 -3 -134 -6 -143 -4 -9 -18 -16 -34 -16 -16 0
-30 7 -34 16 -3 9 -6 74 -6 144 0 73 -4 131 -10 135 -5 3 -23 -1 -39 -10 -17
-8 -39 -15 -51 -15 -19 0 -20 5 -20 190 l0 190 38 42 c20 24 46 50 57 59 20
17 20 33 25 1671 5 1527 6 1656 22 1691 9 20 19 37 22 37 3 0 10 -19 17 -42z
m-1062 -30 c8 -34 11 -492 11 -1667 l0 -1620 58 -66 59 -66 6 -134 c7 -136 1
-252 -14 -260 -4 -3 -26 2 -49 11 -25 10 -45 13 -50 8 -5 -5 -11 -70 -12 -144
l-3 -135 -31 -3 -31 -3 -7 62 c-3 34 -6 99 -6 144 0 45 -3 84 -6 88 -4 3 -24
-3 -45 -13 -68 -35 -69 -32 -69 184 l0 192 51 49 c28 28 56 59 62 70 9 15 13
435 17 1683 4 1459 7 1664 20 1672 19 12 25 4 39 -52z m513 16 c4 -16 8 -751
8 -1634 0 -883 3 -1621 6 -1641 5 -26 23 -55 65 -100 l59 -64 0 -192 c0 -185
-1 -193 -20 -193 -10 0 -35 8 -55 17 -19 9 -37 14 -39 12 -3 -3 -6 -61 -7
-129 -1 -136 -9 -170 -37 -170 -37 0 -42 20 -42 156 0 73 -4 135 -9 139 -5 3
-25 -2 -44 -11 -65 -31 -67 -27 -67 181 l0 186 60 64 c43 46 60 72 60 92 1 16
1 739 1 1608 0 1479 3 1671 26 1708 9 15 27 1 35 -29z m-151 -84 c18 -10 19
-23 19 -186 0 -96 -4 -183 -10 -193 -7 -14 -35 -23 -107 -35 -54 -10 -113 -22
-132 -28 -26 -8 -35 -7 -42 3 -10 15 -12 351 -3 386 5 18 17 23 77 33 40 6 92
15 117 19 25 5 49 9 53 10 5 0 17 -4 28 -9z m438 -30 c52 -10 102 -26 110 -35
14 -13 16 -45 15 -206 0 -113 -5 -194 -11 -200 -6 -6 -36 -2 -89 15 -43 13
-108 30 -144 38 l-65 13 -3 185 c-1 101 0 190 2 197 8 19 75 16 185 -7z m-948
-156 c9 -80 10 -257 2 -322 -6 -52 -8 -54 -72 -100 -239 -169 -395 -385 -478
-660 -65 -217 -54 -528 28 -742 29 -78 95 -205 142 -275 52 -78 215 -241 293
-294 34 -23 68 -49 75 -58 11 -12 14 -63 15 -214 1 -108 -2 -203 -7 -210 -11
-19 -60 0 -180 67 -140 78 -241 156 -365 281 -66 67 -184 213 -184 228 0 3
-11 21 -24 38 -83 111 -179 360 -223 581 -23 113 -23 419 1 536 33 170 73 293
132 416 161 332 412 588 733 750 47 24 91 42 96 41 6 -2 13 -30 16 -63z m1501
-81 c137 -90 285 -231 388 -369 146 -195 230 -378 286 -624 27 -116 29 -140
29 -340 0 -146 -4 -234 -14 -275 -38 -166 -64 -254 -107 -352 -8 -17 -14 -33
-14 -36 0 -10 -106 -195 -139 -242 -96 -137 -237 -286 -344 -365 -26 -19 -63
-46 -81 -60 -18 -14 -67 -43 -110 -65 -65 -34 -78 -38 -86 -25 -7 10 -8 93 -5
230 l6 215 47 39 c232 195 366 420 429 721 22 106 12 414 -16 515 -77 270
-208 469 -434 657 l-27 23 0 223 c0 123 3 227 7 230 7 8 87 -35 185 -100z
m-982 -552 c6 -11 10 -91 10 -188 0 -136 -3 -173 -16 -191 -8 -12 -21 -22 -27
-22 -16 -1 -109 -50 -138 -75 -14 -11 -38 -38 -54 -60 -40 -53 -49 -59 -57
-32 -8 30 -8 468 1 490 10 28 169 85 263 96 4 1 12 -8 18 -18z m325 -12 c74
-20 206 -91 219 -119 9 -19 12 -173 11 -655 -1 -346 -5 -638 -9 -647 -9 -21
-196 -113 -246 -122 -19 -3 -40 -2 -46 2 -14 8 -17 64 -15 260 l1 143 32 17
c99 53 183 173 209 298 11 54 10 69 -10 144 -28 108 -77 180 -162 241 l-64 45
-3 202 -2 202 22 0 c13 0 41 -5 63 -11z m-843 -301 c2 -13 3 -228 1 -478 -2
-250 -3 -461 -3 -467 0 -24 -27 -13 -52 20 -37 47 -82 142 -109 227 -21 66
-24 94 -24 235 0 176 11 227 75 357 58 115 102 157 112 106z m1347 -156 c54
-140 72 -285 52 -427 -14 -96 -47 -198 -71 -220 -17 -16 -18 -2 -22 317 -2
183 -2 341 0 350 5 23 28 12 41 -20z m-1060 -547 c49 -65 104 -107 169 -131
26 -9 53 -24 60 -33 8 -10 12 -65 12 -192 0 -146 -3 -180 -15 -193 -9 -8 -22
-13 -30 -10 -7 3 -40 12 -72 19 -87 20 -146 43 -166 67 -16 19 -17 44 -16 262
1 214 4 266 14 266 1 0 21 -25 44 -55z m781 -905 c7 -13 10 -85 8 -201 -3
-163 -5 -182 -22 -195 -27 -19 -160 -47 -231 -48 l-60 -1 -3 189 c-2 130 1
193 9 202 6 8 27 14 45 14 30 0 136 28 189 50 33 14 54 11 65 -10z m-763 -21
c15 -6 64 -14 108 -19 116 -14 115 -12 115 -219 0 -215 5 -207 -121 -192 -129
15 -165 26 -173 54 -8 29 -8 351 0 371 7 19 31 20 71 5z"/>
<path d="M8093 5982 c-11 -9 -46 -53 -79 -97 -32 -44 -62 -84 -66 -90 -5 -5
-23 -28 -40 -51 -18 -23 -53 -69 -78 -103 -25 -34 -72 -96 -105 -139 -33 -42
-68 -88 -77 -102 -52 -76 -81 -114 -104 -138 -14 -15 -41 -50 -60 -78 -18 -29
-39 -58 -46 -65 -16 -16 -171 -220 -238 -313 -25 -34 -59 -80 -77 -102 -38
-45 -234 -307 -277 -368 -16 -22 -40 -55 -55 -72 -14 -17 -35 -44 -46 -59 -11
-16 -25 -33 -31 -39 -6 -7 -17 -23 -25 -38 -8 -14 -35 -50 -61 -79 -25 -30
-66 -83 -90 -119 -25 -36 -54 -76 -66 -90 -12 -14 -58 -74 -102 -134 -60 -81
-80 -116 -80 -140 0 -17 0 -222 -1 -456 0 -234 0 -435 0 -447 1 -33 29 -30
194 23 78 25 158 50 177 56 19 6 53 17 75 24 51 18 79 18 118 0 18 -7 64 -22
102 -34 219 -64 283 -85 311 -97 76 -33 112 -30 285 24 90 29 196 61 234 72
39 11 85 27 103 35 41 18 71 18 119 0 21 -7 72 -23 113 -36 70 -21 162 -49
323 -99 37 -11 77 -21 88 -21 12 0 94 23 183 51 88 28 175 55 191 60 101 29
121 35 130 41 27 17 87 19 132 4 189 -63 374 -117 383 -111 12 8 115 210 155
305 15 36 33 79 40 95 52 120 105 270 154 439 19 64 19 71 4 100 -20 38 -87
131 -121 168 -14 15 -35 43 -46 62 -21 34 -93 131 -118 157 -7 8 -17 22 -23
31 -22 35 -81 116 -115 158 -19 25 -49 65 -65 90 -17 25 -50 70 -75 101 -25
31 -63 82 -85 113 -35 51 -195 269 -247 336 -10 14 -39 52 -63 85 -25 33 -55
73 -67 89 -13 15 -34 45 -48 65 -14 20 -57 79 -96 131 -39 52 -91 124 -115
160 -25 36 -58 79 -75 96 -16 17 -47 58 -69 90 -22 32 -65 93 -96 134 -31 41
-98 131 -149 200 -50 69 -98 128 -105 132 -7 5 -21 0 -32 -10z m70 -423 c18
-56 18 -75 -8 -417 -6 -79 4 -84 91 -48 106 43 107 42 119 -89 4 -38 13 -91
20 -116 7 -26 16 -77 20 -115 9 -94 23 -144 40 -144 7 0 62 52 122 115 59 63
113 115 120 115 6 0 71 -80 144 -177 73 -98 151 -203 173 -233 23 -30 44 -59
49 -65 91 -120 117 -154 143 -189 17 -24 56 -78 87 -121 35 -47 54 -82 48 -88
-5 -5 -45 2 -99 19 l-91 27 -63 -46 c-35 -25 -81 -60 -103 -76 -22 -17 -79
-59 -126 -93 -48 -35 -135 -98 -194 -141 -131 -97 -167 -118 -181 -109 -6 4
-48 68 -94 142 -132 216 -179 288 -192 296 -11 7 -35 -8 -144 -95 -49 -39 -93
-74 -99 -79 -139 -110 -255 -192 -266 -187 -8 3 -37 74 -65 163 -31 96 -56
157 -64 157 -14 0 -32 -39 -115 -260 -75 -201 -73 -195 -90 -201 -13 -6 -128
51 -405 201 -140 75 -150 82 -150 100 0 7 17 36 38 64 20 28 83 112 139 188
56 76 144 195 195 265 51 69 150 204 220 300 70 95 162 220 204 278 78 107
123 168 287 390 51 69 99 135 107 146 8 12 34 48 57 80 53 76 82 106 96 101 7
-2 20 -28 30 -58z"/>
<path d="M6665 2644 c-139 -43 -323 -100 -352 -109 -17 -5 -23 -14 -25 -38 -2
-47 3 -91 10 -99 7 -7 137 29 366 101 l129 41 101 -31 c56 -17 127 -40 159
-50 89 -31 299 -89 320 -89 20 0 247 63 307 85 19 7 89 29 156 49 l120 36 90
-29 c342 -109 453 -141 491 -141 16 0 56 9 89 19 32 11 113 36 179 57 66 20
160 50 208 65 l88 29 67 -20 c37 -11 99 -29 137 -41 39 -12 85 -22 103 -23 29
-1 36 4 60 46 18 31 23 51 17 57 -10 10 -177 65 -310 103 l-70 20 -281 -86
c-155 -47 -291 -86 -303 -86 -11 0 -38 6 -58 14 -21 8 -90 30 -153 50 -63 19
-166 51 -229 70 -62 20 -121 36 -130 36 -14 0 -161 -44 -301 -90 -30 -10 -75
-23 -100 -30 -25 -7 -69 -21 -98 -31 -63 -23 -88 -23 -144 -5 -55 18 -264 83
-348 108 -36 11 -82 26 -103 34 -52 19 -67 18 -192 -22z"/>
<path d="M6745 2424 c-27 -8 -63 -18 -80 -23 -45 -12 -327 -101 -351 -111 -18
-7 -23 -19 -26 -62 -7 -90 -4 -91 112 -54 41 13 129 40 195 61 66 20 130 41
143 46 29 12 71 12 108 0 16 -5 72 -23 124 -39 52 -16 161 -50 241 -76 80 -25
152 -46 159 -46 8 0 78 20 155 44 462 145 416 136 527 102 51 -16 104 -33 118
-38 14 -6 45 -16 70 -23 25 -7 98 -29 162 -49 65 -20 123 -36 130 -36 7 0 76
20 153 44 271 87 402 126 422 126 10 0 55 -11 99 -24 43 -13 85 -21 91 -19 11
4 73 96 73 108 0 2 -39 16 -87 31 -49 14 -108 33 -132 41 -47 15 -55 13 -381
-91 -58 -19 -136 -43 -173 -55 l-68 -21 -162 51 c-305 97 -392 121 -423 121
-17 -1 -96 -22 -175 -47 -79 -25 -175 -55 -214 -67 -38 -11 -87 -27 -108 -34
-54 -20 -97 -17 -185 10 -42 13 -156 49 -252 79 -225 71 -207 68 -265 51z"/>
<path d="M6690 2165 c-41 -13 -142 -44 -225 -70 -82 -25 -156 -52 -163 -59
-18 -18 -18 -1332 0 -1353 8 -11 27 -13 72 -9 441 41 628 70 841 131 33 9 89
25 125 35 84 23 332 110 346 121 6 5 28 15 50 23 80 28 362 172 469 240 185
116 349 236 500 367 193 167 520 522 513 557 -3 16 -70 42 -106 42 -26 0 -117
-24 -172 -45 -19 -7 -69 -23 -110 -35 -41 -12 -123 -37 -182 -56 -59 -19 -114
-34 -122 -34 -8 0 -61 15 -118 34 -56 19 -125 41 -153 49 -27 8 -104 32 -169
53 -113 35 -123 37 -174 26 -49 -10 -243 -70 -417 -127 -108 -36 -127 -38
-191 -17 -33 11 -113 36 -179 56 -66 20 -162 50 -214 66 -110 35 -122 35 -221
5z"/>
</g>
</svg>
